<svg width="1042" height="270" viewBox="0 0 1042 270" fill="none" xmlns="http://www.w3.org/2000/svg">
<path d="M1.99219 95L103 155.858L198 82.5L286.674 115.621L381.5 116.124L477.625 103.047L567.367 116.124L659.103 155.858L747.349 141.272L841.079 164.408L932.317 144.29L1040.01 180" stroke="#FC306D" stroke-width="2"/>
<ellipse cx="3.48662" cy="3.5" rx="3.48662" ry="3.5" transform="matrix(1 0 0 -1 0 99)" fill="#FC306D"/>
<ellipse cx="3.48662" cy="3.5" rx="3.48662" ry="3.5" transform="matrix(1 0 0 -1 98.6211 158)" fill="#FC306D"/>
<ellipse cx="3.48662" cy="3.5" rx="3.48662" ry="3.5" transform="matrix(1 0 0 -1 195.258 87)" fill="#FC306D"/>
<ellipse cx="3.48662" cy="3.5" rx="3.48662" ry="3.5" transform="matrix(1 0 0 -1 285.903 119)" fill="#FC306D"/>
<ellipse cx="3.48662" cy="3.5" rx="3.48662" ry="3.5" transform="matrix(1 0 0 -1 379.543 119)" fill="#FC306D"/>
<ellipse cx="3.48662" cy="3.5" rx="3.48662" ry="3.5" transform="matrix(1 0 0 -1 476.172 107)" fill="#FC306D"/>
<ellipse cx="3.48662" cy="3.5" rx="3.48662" ry="3.5" transform="matrix(1 0 0 -1 563.836 120)" fill="#FC306D"/>
<ellipse cx="3.48662" cy="3.5" rx="3.48662" ry="3.5" transform="matrix(1 0 0 -1 654.487 159)" fill="#FC306D"/>
<ellipse cx="3.48662" cy="3.5" rx="3.48662" ry="3.5" transform="matrix(1 0 0 -1 743.147 145)" fill="#FC306D"/>
<ellipse cx="3.48662" cy="3.5" rx="3.48662" ry="3.5" transform="matrix(1 0 0 -1 836.788 167)" fill="#FC306D"/>
<ellipse cx="3.48662" cy="3.5" rx="3.48662" ry="3.5" transform="matrix(1 0 0 -1 928.436 148)" fill="#FC306D"/>
<ellipse cx="3.48662" cy="3.5" rx="3.48662" ry="3.5" transform="matrix(1 0 0 -1 1035.03 182)" fill="#FC306D"/>
<path d="M1.99219 95L103 155.858L198 82.5L286.674 115.621L381.5 116.124L477.625 103.047L567.367 116.124L659.103 155.858L747.349 141.272L841.079 164.408L932.317 144.29L1040.01 180" stroke="#FC306D" stroke-width="2"/>
<ellipse cx="3.48662" cy="3.5" rx="3.48662" ry="3.5" transform="matrix(1 0 0 -1 0 99)" fill="#FC306D"/>
<ellipse cx="3.48662" cy="3.5" rx="3.48662" ry="3.5" transform="matrix(1 0 0 -1 195.258 87)" fill="#FC306D"/>
<ellipse cx="3.48662" cy="3.5" rx="3.48662" ry="3.5" transform="matrix(1 0 0 -1 285.903 119)" fill="#FC306D"/>
<ellipse cx="3.48662" cy="3.5" rx="3.48662" ry="3.5" transform="matrix(1 0 0 -1 379.543 119)" fill="#FC306D"/>
<ellipse cx="3.48662" cy="3.5" rx="3.48662" ry="3.5" transform="matrix(1 0 0 -1 476.172 107)" fill="#FC306D"/>
<ellipse cx="3.48662" cy="3.5" rx="3.48662" ry="3.5" transform="matrix(1 0 0 -1 563.836 120)" fill="#FC306D"/>
<ellipse cx="3.48662" cy="3.5" rx="3.48662" ry="3.5" transform="matrix(1 0 0 -1 654.487 159)" fill="#FC306D"/>
<ellipse cx="3.48662" cy="3.5" rx="3.48662" ry="3.5" transform="matrix(1 0 0 -1 743.147 145)" fill="#FC306D"/>
<ellipse cx="3.48662" cy="3.5" rx="3.48662" ry="3.5" transform="matrix(1 0 0 -1 836.788 167)" fill="#FC306D"/>
<ellipse cx="3.48662" cy="3.5" rx="3.48662" ry="3.5" transform="matrix(1 0 0 -1 928.436 148)" fill="#FC306D"/>
<ellipse cx="3.48662" cy="3.5" rx="3.48662" ry="3.5" transform="matrix(1 0 0 -1 1035.03 182)" fill="#FC306D"/>
<path d="M1040.01 15L939 75.858L844 2.5L755.326 35.6213L660.5 36.1243L564.375 23.0473L474.633 36.1243L382.897 75.858L294.651 61.2722L200.92 84.4083L102.5 65L1.99231 100" stroke="#00A8EF" stroke-width="2"/>
<ellipse cx="1038.51" cy="15.5" rx="3.48662" ry="3.5" transform="rotate(180 1038.51 15.5)" fill="#00A8EF"/>
<ellipse cx="939.892" cy="75.5" rx="3.48662" ry="3.5" transform="rotate(180 939.892 75.5)" fill="#00A8EF"/>
<ellipse cx="843.256" cy="3.5" rx="3.48662" ry="3.5" transform="rotate(180 843.256 3.5)" fill="#00A8EF"/>
<ellipse cx="752.611" cy="35.5" rx="3.48662" ry="3.5" transform="rotate(180 752.611 35.5)" fill="#00A8EF"/>
<ellipse cx="658.97" cy="35.5" rx="3.48662" ry="3.5" transform="rotate(180 658.97 35.5)" fill="#00A8EF"/>
<ellipse cx="562.341" cy="23.5" rx="3.48662" ry="3.5" transform="rotate(180 562.341 23.5)" fill="#00A8EF"/>
<ellipse cx="474.677" cy="36.5" rx="3.48662" ry="3.5" transform="rotate(180 474.677 36.5)" fill="#00A8EF"/>
<ellipse cx="384.026" cy="75.5" rx="3.48662" ry="3.5" transform="rotate(180 384.026 75.5)" fill="#00A8EF"/>
<ellipse cx="295.366" cy="61.5" rx="3.48662" ry="3.5" transform="rotate(180 295.366 61.5)" fill="#00A8EF"/>
<ellipse cx="201.725" cy="83.5" rx="3.48662" ry="3.5" transform="rotate(180 201.725 83.5)" fill="#00A8EF"/>
<ellipse cx="103.078" cy="64.5" rx="3.48662" ry="3.5" transform="rotate(180 103.078 64.5)" fill="#00A8EF"/>
<ellipse cx="3.48653" cy="98.5" rx="3.48662" ry="3.5" transform="rotate(180 3.48653 98.5)" fill="#00A8EF"/>
<path d="M1040.01 160L939 99.142L844 172.5L755.326 139.379L660.5 138.876L564.375 151.953L474.633 138.876L382.897 99.142L294.651 113.728L200.92 90.5917L109.683 110.71L1.99231 75" stroke="#E87D00" stroke-width="2"/>
<ellipse cx="3.48662" cy="3.5" rx="3.48662" ry="3.5" transform="matrix(-1 0 0 1 1042 156)" fill="#E87D00"/>
<ellipse cx="3.48662" cy="3.5" rx="3.48662" ry="3.5" transform="matrix(-1 0 0 1 943.379 96)" fill="#E87D00"/>
<ellipse cx="3.48662" cy="3.5" rx="3.48662" ry="3.5" transform="matrix(-1 0 0 1 846.742 168)" fill="#E87D00"/>
<ellipse cx="3.48662" cy="3.5" rx="3.48662" ry="3.5" transform="matrix(-1 0 0 1 756.097 136)" fill="#E87D00"/>
<ellipse cx="3.48662" cy="3.5" rx="3.48662" ry="3.5" transform="matrix(-1 0 0 1 662.457 136)" fill="#E87D00"/>
<ellipse cx="3.48662" cy="3.5" rx="3.48662" ry="3.5" transform="matrix(-1 0 0 1 565.828 148)" fill="#E87D00"/>
<ellipse cx="3.48662" cy="3.5" rx="3.48662" ry="3.5" transform="matrix(-1 0 0 1 478.164 135)" fill="#E87D00"/>
<ellipse cx="3.48662" cy="3.5" rx="3.48662" ry="3.5" transform="matrix(-1 0 0 1 387.513 96)" fill="#E87D00"/>
<ellipse cx="3.48662" cy="3.5" rx="3.48662" ry="3.5" transform="matrix(-1 0 0 1 298.853 110)" fill="#E87D00"/>
<ellipse cx="3.48662" cy="3.5" rx="3.48662" ry="3.5" transform="matrix(-1 0 0 1 205.212 88)" fill="#E87D00"/>
<ellipse cx="3.48662" cy="3.5" rx="3.48662" ry="3.5" transform="matrix(-1 0 0 1 113.564 107)" fill="#E87D00"/>
<ellipse cx="3.48662" cy="3.5" rx="3.48662" ry="3.5" transform="matrix(-1 0 0 1 6.97314 73)" fill="#E87D00"/>
<path d="M1.99219 193L101.5 172L200.5 184.953L289.5 193L381.5 171.876L477.625 184.953L567.367 171.876L656 184.953L747.349 146.728L844 156L932.317 143.71L1035 143.71" stroke="#4B10AC" stroke-width="2"/>
<ellipse cx="3.48662" cy="192.5" rx="3.48662" ry="3.5" fill="#4B10AC"/>
<ellipse cx="383.03" cy="172.5" rx="3.48662" ry="3.5" fill="#4B10AC"/>
<ellipse cx="479.659" cy="184.5" rx="3.48662" ry="3.5" fill="#4B10AC"/>
<ellipse cx="567.323" cy="171.5" rx="3.48662" ry="3.5" fill="#4B10AC"/>
<ellipse cx="746.634" cy="146.5" rx="3.48662" ry="3.5" fill="#4B10AC"/>
<ellipse cx="931.922" cy="143.5" rx="3.48662" ry="3.5" fill="#4B10AC"/>
<ellipse cx="1035.49" cy="143.5" rx="3.48662" ry="3.5" fill="#4B10AC"/>
<ellipse cx="844.487" cy="156.5" rx="3.48662" ry="3.5" fill="#4B10AC"/>
<ellipse cx="657.487" cy="184.5" rx="3.48662" ry="3.5" fill="#4B10AC"/>
<ellipse cx="102.487" cy="172.5" rx="3.48662" ry="3.5" fill="#4B10AC"/>
<ellipse cx="199.487" cy="184.5" rx="3.48662" ry="3.5" fill="#4B10AC"/>
<ellipse cx="289.487" cy="193.5" rx="3.48662" ry="3.5" fill="#4B10AC"/>
<path d="M1.99268 216L102.474 249.5L200.5 257.953L289.5 266L381.5 244.876L477.625 257.953L562.974 245L656 257.953L747.349 219.728L844 229L935.974 216.71H1035" stroke="#900000" stroke-width="2"/>
<ellipse cx="3.4871" cy="215.5" rx="3.48662" ry="3.5" fill="#900000"/>
<ellipse cx="383.03" cy="245.5" rx="3.48662" ry="3.5" fill="#900000"/>
<ellipse cx="479.659" cy="257.5" rx="3.48662" ry="3.5" fill="#900000"/>
<ellipse cx="563.323" cy="244.5" rx="3.48662" ry="3.5" fill="#900000"/>
<ellipse cx="746.635" cy="219.5" rx="3.48662" ry="3.5" fill="#900000"/>
<ellipse cx="936.923" cy="216.5" rx="3.48662" ry="3.5" fill="#900000"/>
<ellipse cx="1035.49" cy="216.5" rx="3.48662" ry="3.5" fill="#900000"/>
<ellipse cx="844.487" cy="229.5" rx="3.48662" ry="3.5" fill="#900000"/>
<ellipse cx="657.487" cy="257.5" rx="3.48662" ry="3.5" fill="#900000"/>
<ellipse cx="102.487" cy="248.5" rx="3.48662" ry="3.5" fill="#900000"/>
<ellipse cx="199.487" cy="257.5" rx="3.48662" ry="3.5" fill="#900000"/>
<ellipse cx="289.487" cy="266.5" rx="3.48662" ry="3.5" fill="#900000"/>
<path d="M1.99219 212L102.5 231L200.5 203.953L289.5 226L381.5 190.876L478 171L567.367 190.876L657 192.5L747.349 165.728L844 175L932.317 162.71L1038 181" stroke="#059471" stroke-width="2"/>
<ellipse cx="3.48662" cy="211.5" rx="3.48662" ry="3.5" fill="#059471"/>
<ellipse cx="383.03" cy="191.5" rx="3.48662" ry="3.5" fill="#059471"/>
<ellipse cx="567.323" cy="190.5" rx="3.48662" ry="3.5" fill="#059471"/>
<ellipse cx="746.634" cy="165.5" rx="3.48662" ry="3.5" fill="#059471"/>
<ellipse cx="931.922" cy="162.5" rx="3.48662" ry="3.5" fill="#059471"/>
<ellipse cx="844.487" cy="175.5" rx="3.48662" ry="3.5" fill="#059471"/>
<ellipse cx="199.487" cy="203.5" rx="3.48662" ry="3.5" fill="#059471"/>
<ellipse cx="1038.49" cy="181.5" rx="3.48662" ry="3.5" fill="#059471"/>
<ellipse cx="657.487" cy="192.5" rx="3.48662" ry="3.5" fill="#059471"/>
<ellipse cx="478.487" cy="171.5" rx="3.48662" ry="3.5" fill="#059471"/>
<ellipse cx="289.487" cy="225.5" rx="3.48662" ry="3.5" fill="#059471"/>
<ellipse cx="102.487" cy="230.5" rx="3.48662" ry="3.5" fill="#059471"/>
<path d="M1.99219 155L102.703 140.917L196.932 118.284L286.674 134.379L381.401 146.953H477.625L567.367 133.876L659.103 94.142L747.349 108.728L841.079 85.5917L932.317 105.71L1040.01 70" stroke="#2169D6" stroke-width="2"/>
<ellipse cx="3.48662" cy="154.5" rx="3.48662" ry="3.5" fill="#2169D6"/>
<ellipse cx="102.108" cy="140.5" rx="3.48662" ry="3.5" fill="#2169D6"/>
<ellipse cx="196.744" cy="118.5" rx="3.48662" ry="3.5" fill="#2169D6"/>
<ellipse cx="289.389" cy="134.5" rx="3.48662" ry="3.5" fill="#2169D6"/>
<ellipse cx="383.03" cy="146.5" rx="3.48662" ry="3.5" fill="#2169D6"/>
<ellipse cx="479.659" cy="146.5" rx="3.48662" ry="3.5" fill="#2169D6"/>
<ellipse cx="567.323" cy="133.5" rx="3.48662" ry="3.5" fill="#2169D6"/>
<ellipse cx="657.974" cy="94.5" rx="3.48662" ry="3.5" fill="#2169D6"/>
<ellipse cx="746.634" cy="108.5" rx="3.48662" ry="3.5" fill="#2169D6"/>
<ellipse cx="840.275" cy="86.5" rx="3.48662" ry="3.5" fill="#2169D6"/>
<ellipse cx="931.922" cy="105.5" rx="3.48662" ry="3.5" fill="#2169D6"/>
<ellipse cx="1038.51" cy="71.5" rx="3.48662" ry="3.5" fill="#2169D6"/>
</svg>
