<svg width="16" height="16" viewBox="0 0 16 16" fill="none" xmlns="http://www.w3.org/2000/svg">
<path fill-rule="evenodd" clip-rule="evenodd" d="M7.99986 10.6663C7.84786 10.6663 7.69652 10.615 7.57319 10.5117L3.57319 7.17833C3.29052 6.943 3.25186 6.52233 3.48786 6.23966C3.72319 5.957 4.14319 5.919 4.42652 6.15433L8.00719 9.13833L11.5819 6.26166C11.8685 6.031 12.2885 6.07633 12.5192 6.363C12.7499 6.64966 12.7045 7.069 12.4179 7.30033L8.41786 10.519C8.29586 10.617 8.14786 10.6663 7.99986 10.6663" fill="black"/>
<mask id="mask0_3317_290758" style="mask-type:luminance" maskUnits="userSpaceOnUse" x="3" y="6" width="10" height="5">
<path fill-rule="evenodd" clip-rule="evenodd" d="M7.99986 10.6663C7.84786 10.6663 7.69652 10.615 7.57319 10.5117L3.57319 7.17833C3.29052 6.943 3.25186 6.52233 3.48786 6.23966C3.72319 5.957 4.14319 5.919 4.42652 6.15433L8.00719 9.13833L11.5819 6.26166C11.8685 6.031 12.2885 6.07633 12.5192 6.363C12.7499 6.64966 12.7045 7.069 12.4179 7.30033L8.41786 10.519C8.29586 10.617 8.14786 10.6663 7.99986 10.6663" fill="white"/>
</mask>
<g mask="url(#mask0_3317_290758)">
<rect width="16" height="16" fill="black"/>
</g>
</svg>
