<svg width="5" height="4" viewBox="0 0 5 4" fill="none" xmlns="http://www.w3.org/2000/svg">
<path d="M3.79514 3.37119C3.19329 3.11707 2.63156 2.79609 2.12333 2.40823C1.80234 2.16749 1.50811 1.9 1.21387 1.61914C1.49473 1.43189 1.82909 1.3249 2.15008 1.31152H2.1902C2.3507 1.31152 2.52456 1.33827 2.68506 1.39177C3.46077 1.67263 3.88876 2.50185 3.79514 3.37119Z" fill="#F5F5FF" stroke="#2E2E2E" stroke-width="0.0715533" stroke-miterlimit="10" stroke-linecap="round" stroke-linejoin="round"/>
<path d="M4.67797 3.69231C4.37036 3.59869 4.07612 3.4917 3.79526 3.37133C3.19341 3.11721 2.63168 2.79622 2.12345 2.40836C1.80247 2.16762 1.50823 1.90014 1.21399 1.61927C1.13374 1.53903 1.06687 1.47215 1 1.39191C1.30761 1.01742 1.72222 0.749933 2.17695 0.616189C2.35082 0.562691 2.53806 0.549316 2.7253 0.549316C2.95267 0.549316 3.19341 0.589439 3.42078 0.669686C4.59773 1.08429 5.15945 2.46186 4.67797 3.69231Z" fill="#F5F5FF" stroke="#2E2E2E" stroke-width="0.0715533" stroke-miterlimit="10" stroke-linecap="round" stroke-linejoin="round"/>
</svg>
