<svg width="420" height="222" viewBox="0 0 420 222" fill="none" xmlns="http://www.w3.org/2000/svg">
<g clip-path="url(#clip0_699_117855)">
<path fill-rule="evenodd" clip-rule="evenodd" d="M358.203 165.998C364.457 165.998 369.526 158.914 369.526 150.175C369.526 141.437 364.457 134.353 358.203 134.353C351.95 134.353 346.881 141.437 346.881 150.175C346.881 158.914 351.95 165.998 358.203 165.998Z" fill="#4B10AC" fill-opacity="0.25"/>
<path d="M369.304 150.175C369.304 154.503 368.048 158.413 366.029 161.234C364.01 164.056 361.24 165.776 358.203 165.776C355.167 165.776 352.397 164.056 350.378 161.234C348.359 158.413 347.103 154.503 347.103 150.175C347.103 145.847 348.359 141.938 350.378 139.116C352.397 136.294 355.167 134.575 358.203 134.575C361.24 134.575 364.01 136.294 366.029 139.116C368.048 141.938 369.304 145.847 369.304 150.175Z" stroke="#4B10AC" stroke-opacity="0.5" stroke-width="0.44386"/>
<g clip-path="url(#clip1_699_117855)">
<path fill-rule="evenodd" clip-rule="evenodd" d="M358.203 153.335C359.674 153.335 360.866 152.143 360.866 150.672C360.866 149.201 359.674 148.009 358.203 148.009C356.732 148.009 355.54 149.201 355.54 150.672C355.54 152.143 356.732 153.335 358.203 153.335Z" fill="#4B10AC"/>
<mask id="mask0_699_117855" style="mask-type:luminance" maskUnits="userSpaceOnUse" x="355" y="148" width="6" height="6">
<path fill-rule="evenodd" clip-rule="evenodd" d="M358.203 153.335C359.674 153.335 360.866 152.143 360.866 150.672C360.866 149.201 359.674 148.009 358.203 148.009C356.732 148.009 355.54 149.201 355.54 150.672C355.54 152.143 356.732 153.335 358.203 153.335Z" fill="white"/>
</mask>
<g mask="url(#mask0_699_117855)">
</g>
</g>
</g>
<g clip-path="url(#clip2_699_117855)">
<path fill-rule="evenodd" clip-rule="evenodd" d="M409.18 221.096C414.881 221.096 419.502 216.026 419.502 209.773C419.502 203.52 414.881 198.451 409.18 198.451C403.479 198.451 398.857 203.52 398.857 209.773C398.857 216.026 403.479 221.096 409.18 221.096Z" fill="#4B10AC" fill-opacity="0.25"/>
<path d="M419.28 209.773C419.28 215.924 414.739 220.874 409.18 220.874C403.62 220.874 399.079 215.924 399.079 209.773C399.079 203.623 403.62 198.673 409.18 198.673C414.739 198.673 419.28 203.623 419.28 209.773Z" stroke="#4B10AC" stroke-opacity="0.5" stroke-width="0.44386"/>
<g clip-path="url(#clip3_699_117855)">
<path fill-rule="evenodd" clip-rule="evenodd" d="M409.18 212.437C410.651 212.437 411.843 211.245 411.843 209.774C411.843 208.303 410.651 207.111 409.18 207.111C407.709 207.111 406.517 208.303 406.517 209.774C406.517 211.245 407.709 212.437 409.18 212.437Z" fill="#4B10AC"/>
<mask id="mask1_699_117855" style="mask-type:luminance" maskUnits="userSpaceOnUse" x="406" y="207" width="6" height="6">
<path fill-rule="evenodd" clip-rule="evenodd" d="M409.18 212.437C410.651 212.437 411.843 211.245 411.843 209.774C411.843 208.303 410.651 207.111 409.18 207.111C407.709 207.111 406.517 208.303 406.517 209.774C406.517 211.245 407.709 212.437 409.18 212.437Z" fill="white"/>
</mask>
<g mask="url(#mask1_699_117855)">
</g>
</g>
</g>
<g clip-path="url(#clip4_699_117855)">
<path fill-rule="evenodd" clip-rule="evenodd" d="M255.128 151.524C260.829 151.524 265.45 146.902 265.45 141.201C265.45 135.5 260.829 130.879 255.128 130.879C249.427 130.879 244.805 135.5 244.805 141.201C244.805 146.902 249.427 151.524 255.128 151.524Z" fill="#4B10AC" fill-opacity="0.25"/>
<path d="M265.228 141.201C265.228 146.779 260.706 151.302 255.128 151.302C249.549 151.302 245.027 146.779 245.027 141.201C245.027 135.623 249.549 131.101 255.128 131.101C260.706 131.101 265.228 135.623 265.228 141.201Z" stroke="#4B10AC" stroke-opacity="0.5" stroke-width="0.44386"/>
<g clip-path="url(#clip5_699_117855)">
<path fill-rule="evenodd" clip-rule="evenodd" d="M255.128 143.867C256.599 143.867 257.791 142.675 257.791 141.204C257.791 139.733 256.599 138.541 255.128 138.541C253.657 138.541 252.465 139.733 252.465 141.204C252.465 142.675 253.657 143.867 255.128 143.867Z" fill="#4B10AC"/>
<mask id="mask2_699_117855" style="mask-type:luminance" maskUnits="userSpaceOnUse" x="252" y="138" width="6" height="6">
<path fill-rule="evenodd" clip-rule="evenodd" d="M255.128 143.867C256.599 143.867 257.791 142.675 257.791 141.204C257.791 139.733 256.599 138.541 255.128 138.541C253.657 138.541 252.465 139.733 252.465 141.204C252.465 142.675 253.657 143.867 255.128 143.867Z" fill="white"/>
</mask>
<g mask="url(#mask2_699_117855)">
</g>
</g>
</g>
<g clip-path="url(#clip6_699_117855)">
<path fill-rule="evenodd" clip-rule="evenodd" d="M315.128 191.524C320.829 191.524 325.45 186.902 325.45 181.201C325.45 175.5 320.829 170.879 315.128 170.879C309.427 170.879 304.805 175.5 304.805 181.201C304.805 186.902 309.427 191.524 315.128 191.524Z" fill="#4B10AC" fill-opacity="0.25"/>
<path d="M325.228 181.201C325.228 186.779 320.706 191.302 315.128 191.302C309.549 191.302 305.027 186.779 305.027 181.201C305.027 175.623 309.549 171.101 315.128 171.101C320.706 171.101 325.228 175.623 325.228 181.201Z" stroke="#4B10AC" stroke-opacity="0.5" stroke-width="0.44386"/>
<g clip-path="url(#clip7_699_117855)">
<path fill-rule="evenodd" clip-rule="evenodd" d="M315.128 183.867C316.599 183.867 317.791 182.675 317.791 181.204C317.791 179.733 316.599 178.541 315.128 178.541C313.657 178.541 312.465 179.733 312.465 181.204C312.465 182.675 313.657 183.867 315.128 183.867Z" fill="#4B10AC"/>
<mask id="mask3_699_117855" style="mask-type:luminance" maskUnits="userSpaceOnUse" x="312" y="178" width="6" height="6">
<path fill-rule="evenodd" clip-rule="evenodd" d="M315.128 183.867C316.599 183.867 317.791 182.675 317.791 181.204C317.791 179.733 316.599 178.541 315.128 178.541C313.657 178.541 312.465 179.733 312.465 181.204C312.465 182.675 313.657 183.867 315.128 183.867Z" fill="white"/>
</mask>
<g mask="url(#mask3_699_117855)">
</g>
</g>
</g>
<g clip-path="url(#clip8_699_117855)">
<path fill-rule="evenodd" clip-rule="evenodd" d="M150.541 120.05C156.246 120.05 160.87 115.425 160.87 109.721C160.87 104.017 156.246 99.3926 150.541 99.3926C144.837 99.3926 140.213 104.017 140.213 109.721C140.213 115.425 144.837 120.05 150.541 120.05Z" fill="#4B10AC" fill-opacity="0.25"/>
<path d="M160.37 109.721C160.37 115.149 155.97 119.55 150.541 119.55C145.113 119.55 140.713 115.149 140.713 109.721C140.713 104.293 145.113 99.8926 150.541 99.8926C155.97 99.8926 160.37 104.293 160.37 109.721Z" stroke="#4B10AC" stroke-opacity="0.5"/>
<g clip-path="url(#clip9_699_117855)">
<path fill-rule="evenodd" clip-rule="evenodd" d="M150.312 112.156C151.782 112.156 152.975 110.964 152.975 109.493C152.975 108.022 151.782 106.83 150.312 106.83C148.841 106.83 147.648 108.022 147.648 109.493C147.648 110.964 148.841 112.156 150.312 112.156Z" fill="#4B10AC"/>
<mask id="mask4_699_117855" style="mask-type:luminance" maskUnits="userSpaceOnUse" x="147" y="106" width="6" height="7">
<path fill-rule="evenodd" clip-rule="evenodd" d="M150.312 112.156C151.782 112.156 152.975 110.964 152.975 109.493C152.975 108.022 151.782 106.83 150.312 106.83C148.841 106.83 147.648 108.022 147.648 109.493C147.648 110.964 148.841 112.156 150.312 112.156Z" fill="white"/>
</mask>
<g mask="url(#mask4_699_117855)">
</g>
</g>
</g>
<g clip-path="url(#clip10_699_117855)">
<path fill-rule="evenodd" clip-rule="evenodd" d="M20.5414 140.05C26.2457 140.05 30.8699 135.425 30.8699 129.721C30.8699 124.017 26.2457 119.393 20.5414 119.393C14.8371 119.393 10.2129 124.017 10.2129 129.721C10.2129 135.425 14.8371 140.05 20.5414 140.05Z" fill="#4B10AC" fill-opacity="0.25"/>
<path d="M30.3699 129.721C30.3699 135.149 25.9695 139.55 20.5414 139.55C15.1133 139.55 10.7129 135.149 10.7129 129.721C10.7129 124.293 15.1133 119.893 20.5414 119.893C25.9695 119.893 30.3699 124.293 30.3699 129.721Z" stroke="#4B10AC" stroke-opacity="0.5"/>
<g clip-path="url(#clip11_699_117855)">
<path fill-rule="evenodd" clip-rule="evenodd" d="M20.3116 132.156C21.7824 132.156 22.9748 130.964 22.9748 129.493C22.9748 128.022 21.7824 126.83 20.3116 126.83C18.8408 126.83 17.6484 128.022 17.6484 129.493C17.6484 130.964 18.8408 132.156 20.3116 132.156Z" fill="#4B10AC"/>
<mask id="mask5_699_117855" style="mask-type:luminance" maskUnits="userSpaceOnUse" x="17" y="126" width="6" height="7">
<path fill-rule="evenodd" clip-rule="evenodd" d="M20.3116 132.156C21.7824 132.156 22.9748 130.964 22.9748 129.493C22.9748 128.022 21.7824 126.83 20.3116 126.83C18.8408 126.83 17.6484 128.022 17.6484 129.493C17.6484 130.964 18.8408 132.156 20.3116 132.156Z" fill="white"/>
</mask>
<g mask="url(#mask5_699_117855)">
</g>
</g>
</g>
<g clip-path="url(#clip12_699_117855)">
<path fill-rule="evenodd" clip-rule="evenodd" d="M10.9711 182.087C16.6754 182.087 21.2996 177.462 21.2996 171.758C21.2996 166.054 16.6754 161.43 10.9711 161.43C5.26681 161.43 0.642578 166.054 0.642578 171.758C0.642578 177.462 5.26681 182.087 10.9711 182.087Z" fill="#4B10AC" fill-opacity="0.25"/>
<path d="M21.0777 171.758C21.0777 177.34 16.5528 181.865 10.9711 181.865C5.38938 181.865 0.864508 177.34 0.864508 171.758C0.864508 166.176 5.38938 161.652 10.9711 161.652C16.5528 161.652 21.0777 166.176 21.0777 171.758Z" stroke="#4B10AC" stroke-opacity="0.5" stroke-width="0.44386"/>
<g clip-path="url(#clip13_699_117855)">
<path fill-rule="evenodd" clip-rule="evenodd" d="M10.7413 174.194C12.2121 174.194 13.4044 173.001 13.4044 171.53C13.4044 170.06 12.2121 168.867 10.7413 168.867C9.27046 168.867 8.07812 170.06 8.07812 171.53C8.07812 173.001 9.27046 174.194 10.7413 174.194Z" fill="#4B10AC"/>
<mask id="mask6_699_117855" style="mask-type:luminance" maskUnits="userSpaceOnUse" x="8" y="168" width="6" height="7">
<path fill-rule="evenodd" clip-rule="evenodd" d="M10.7413 174.194C12.2121 174.194 13.4044 173.001 13.4044 171.53C13.4044 170.06 12.2121 168.867 10.7413 168.867C9.27046 168.867 8.07812 170.06 8.07812 171.53C8.07812 173.001 9.27046 174.194 10.7413 174.194Z" fill="white"/>
</mask>
<g mask="url(#mask6_699_117855)">
</g>
</g>
</g>
<defs>
<clipPath id="clip0_699_117855">
<rect width="22.6449" height="31.64" fill="white" transform="translate(346.881 134.353)"/>
</clipPath>
<clipPath id="clip1_699_117855">
<rect width="5.32632" height="5.32632" fill="white" transform="translate(355.54 148.009)"/>
</clipPath>
<clipPath id="clip2_699_117855">
<rect width="20.6449" height="22.6449" fill="white" transform="translate(398.857 198.451)"/>
</clipPath>
<clipPath id="clip3_699_117855">
<rect width="5.32632" height="5.32632" fill="white" transform="translate(406.517 207.111)"/>
</clipPath>
<clipPath id="clip4_699_117855">
<rect width="20.6449" height="20.6449" fill="white" transform="translate(244.805 130.879)"/>
</clipPath>
<clipPath id="clip5_699_117855">
<rect width="5.32632" height="5.32632" fill="white" transform="translate(252.465 138.541)"/>
</clipPath>
<clipPath id="clip6_699_117855">
<rect width="20.6449" height="20.6449" fill="white" transform="translate(304.805 170.879)"/>
</clipPath>
<clipPath id="clip7_699_117855">
<rect width="5.32632" height="5.32632" fill="white" transform="translate(312.465 178.541)"/>
</clipPath>
<clipPath id="clip8_699_117855">
<rect width="20.657" height="20.657" fill="white" transform="translate(140.213 99.3926)"/>
</clipPath>
<clipPath id="clip9_699_117855">
<rect width="5.32632" height="5.32632" fill="white" transform="translate(147.648 106.83)"/>
</clipPath>
<clipPath id="clip10_699_117855">
<rect width="20.657" height="20.657" fill="white" transform="translate(10.2129 119.393)"/>
</clipPath>
<clipPath id="clip11_699_117855">
<rect width="5.32632" height="5.32632" fill="white" transform="translate(17.6484 126.83)"/>
</clipPath>
<clipPath id="clip12_699_117855">
<rect width="20.657" height="20.657" fill="white" transform="translate(0.642578 161.43)"/>
</clipPath>
<clipPath id="clip13_699_117855">
<rect width="5.32632" height="5.32632" fill="white" transform="translate(8.07812 168.867)"/>
</clipPath>
</defs>
</svg>
