<svg width="15" height="18" viewBox="0 0 15 18" fill="none" xmlns="http://www.w3.org/2000/svg">
<path d="M2.03735 11.4097L2.07996 11.5323C2.07463 11.519 2.05866 11.4763 2.03735 11.4097ZM3.76544 8.61198C3.84267 7.94783 4.10361 7.57717 4.59355 7.19576C5.2965 6.68104 6.17251 6.97173 6.17251 6.97173V5.2408C6.38553 5.23546 6.59854 5.2488 6.80892 5.28081V7.50778C6.80892 7.50778 5.93291 7.2171 5.22993 7.73182C4.74 8.11322 4.47906 8.48396 4.40183 9.14804C4.39917 9.50811 4.46307 9.98015 4.76129 10.3855C4.68674 10.3455 4.61218 10.3002 4.53497 10.2495C3.8826 9.79077 3.76278 9.09999 3.76544 8.61198ZM10.4328 2.04035C9.95091 1.48826 9.7672 0.928184 9.70065 0.536133H10.3077C10.3077 0.536133 10.1879 1.56561 11.0692 2.57642L11.0825 2.58976C10.8429 2.43507 10.6245 2.24837 10.4328 2.04035ZM13.3592 3.60857V5.79021C13.3592 5.79021 12.5843 5.7582 12.0092 5.60619C11.2077 5.39282 10.6938 5.06477 10.6938 5.06477C10.6938 5.06477 10.337 4.83007 10.3104 4.81407V9.32137C10.3104 9.57212 10.2438 10.1988 10.0441 10.7216C9.78313 11.4043 9.3784 11.8551 9.30385 11.9457C9.30385 11.9457 8.81127 12.5538 7.94591 12.9619C7.16576 13.33 6.47874 13.3219 6.27373 13.33C6.27373 13.33 5.08881 13.3779 4.02106 12.6552C3.78941 12.4952 3.57373 12.3138 3.37669 12.1138L3.38201 12.1191C4.44976 12.8445 5.63469 12.7939 5.63469 12.7939C5.83969 12.7859 6.52671 12.7939 7.30686 12.4258C8.17222 12.0178 8.6648 11.4097 8.6648 11.4097C8.73935 11.319 9.14408 10.8683 9.40507 10.1855C9.6048 9.66276 9.67134 9.03598 9.67134 8.78532V4.28066C9.70065 4.29666 10.0548 4.53136 10.0548 4.53136C10.0548 4.53136 10.5687 4.85941 11.3701 5.07278C11.9452 5.2248 12.7201 5.2568 12.7201 5.2568V3.54723C12.9864 3.60857 13.2127 3.62457 13.3592 3.60857Z" fill="#EE1D52"/>
<path d="M12.72 3.54456V5.25414C12.72 5.25414 11.9451 5.22213 11.37 5.07011C10.5685 4.85674 10.0547 4.5287 10.0547 4.5287C10.0547 4.5287 9.69782 4.294 9.67123 4.278V8.78532C9.67123 9.03598 9.60469 9.66276 9.40496 10.1855C9.14398 10.8683 8.73925 11.319 8.66469 11.4097C8.66469 11.4097 8.17211 12.0178 7.30675 12.4258C6.5266 12.7939 5.83958 12.7859 5.63458 12.7939C5.63458 12.7939 4.44965 12.8419 3.38191 12.1191L3.37659 12.1138C3.26475 11.9991 3.15825 11.8791 3.05972 11.7537C2.7189 11.319 2.51121 10.8069 2.45795 10.6603V10.6575C2.37274 10.4042 2.19701 9.79077 2.22097 9.20138C2.26358 8.15854 2.61505 7.51581 2.70825 7.35578C2.95321 6.91839 3.2754 6.52631 3.65351 6.19826C3.98901 5.91556 4.36977 5.68886 4.77717 5.5315C5.21918 5.34481 5.69311 5.24613 6.1724 5.23813V6.96908C6.1724 6.96908 5.29639 6.67831 4.59344 7.19312C4.1035 7.57444 3.84256 7.94518 3.76533 8.60925C3.76268 9.09734 3.88249 9.78813 4.53752 10.2495C4.61474 10.3002 4.6893 10.3455 4.76385 10.3855C4.87835 10.5402 5.0168 10.6762 5.17657 10.7883C5.81828 11.2123 6.35346 11.2416 7.04048 10.9669C7.49847 10.7829 7.84194 10.3695 8.0017 9.90812C8.10292 9.62008 8.1002 9.33204 8.1002 9.03333V0.536133H9.69782C9.76445 0.928184 9.94551 1.48826 10.4301 2.04035C10.6244 2.24837 10.8428 2.43507 11.0798 2.58976C11.1491 2.6671 11.5085 3.04048 11.9718 3.27252C12.2088 3.39253 12.4617 3.48321 12.72 3.54456Z" fill="black"/>
<path d="M1.82178 10.1322L1.86171 10.2469C1.85639 10.2336 1.84041 10.1936 1.82178 10.1322Z" fill="#69C9D0"/>
<path d="M4.77704 5.53424C4.367 5.69159 3.98888 5.9183 3.65339 6.201C3.27262 6.52905 2.9531 6.92375 2.70813 7.36115C2.61494 7.52117 2.26346 8.16126 2.22085 9.20674C2.19689 9.79887 2.3753 10.4096 2.45784 10.663V10.6656C2.51109 10.8097 2.71878 11.3244 3.05961 11.7592C3.15812 11.8845 3.26463 12.0045 3.37647 12.1192C3.01434 11.8685 2.69482 11.5671 2.42056 11.223C2.0824 10.7937 1.8747 10.2842 1.82145 10.1349V10.1296C1.73625 9.87619 1.55784 9.26281 1.58447 8.67069C1.62707 7.62785 1.97855 6.98511 2.07175 6.82509C2.31671 6.3877 2.63623 5.99297 3.017 5.66493C3.3525 5.38222 3.73327 5.15552 4.14066 4.99817C4.39628 4.89149 4.66255 4.81414 4.93415 4.76347C5.34425 4.69146 5.76227 4.68612 6.17501 4.7448V5.24087C5.693 5.24887 5.21905 5.34755 4.77704 5.53424Z" fill="#69C9D0"/>
<path d="M9.70038 0.536071H8.10276V9.03327C8.10276 9.33198 8.10276 9.62002 8.00418 9.90806C7.84178 10.3668 7.49831 10.7829 7.04296 10.9669C6.35603 11.2442 5.81812 11.2122 5.17907 10.7882C5.01931 10.6788 4.88085 10.5429 4.76636 10.3881C5.31221 10.6788 5.79946 10.6735 6.40392 10.4308C6.8619 10.2468 7.20537 9.83074 7.36513 9.37201C7.46636 9.08397 7.46371 8.79593 7.46371 8.49722V0H9.67107C9.66843 0 9.6444 0.210692 9.70038 0.536071ZM12.7198 3.07243V3.5445C12.4616 3.48315 12.2086 3.39248 11.9716 3.27246C11.511 3.04309 11.1515 2.66704 11.0796 2.58969C11.1622 2.64304 11.2448 2.69104 11.3326 2.73639C11.8971 3.01642 12.4483 3.10177 12.7198 3.07243Z" fill="#69C9D0"/>
<path d="M9.75355 16.6504C9.75355 16.7118 9.76148 16.7704 9.78014 16.8292C9.78014 16.8344 9.78278 16.8372 9.78278 16.8425C9.87071 17.1252 10.1316 17.3172 10.4272 17.3172V18C10.0944 18 9.85733 18.0107 9.49521 17.7973C9.08519 17.5519 8.85352 17.1065 8.85352 16.6424C8.85352 16.1651 9.11178 15.685 9.55383 15.453C9.87335 15.2849 10.1157 15.2849 10.4298 15.2849V15.9677C10.0571 15.9677 9.75619 16.269 9.75619 16.6424L9.75355 16.6504Z" fill="#69C9D0"/>
<path d="M11.1065 16.6504C11.1065 16.7118 11.0985 16.7704 11.0799 16.8292C11.0799 16.8344 11.0772 16.8372 11.0772 16.8425C10.9894 17.1252 10.7284 17.3172 10.4328 17.3172V18C10.763 18 11.0027 18.0107 11.3622 17.7973C11.7748 17.5519 12.0065 17.1065 12.0065 16.6424C12.0065 16.1651 11.7482 15.685 11.3062 15.453C10.9867 15.2849 10.7444 15.2849 10.4302 15.2849V15.9677C10.803 15.9677 11.1038 16.269 11.1038 16.6424V16.6504H11.1065Z" fill="#EE1D52"/>
<path d="M0.000244141 14.6661H2.49519L2.26354 15.3543H1.61117V17.9866H0.809706V15.3543H0.000244141V14.6661ZM6.61441 14.6661V15.3543H7.42388V17.9866H8.22797V15.3543H8.88039L9.11199 14.6661H6.61441ZM3.03838 15.4476C3.25406 15.4476 3.42714 15.2742 3.42714 15.0582C3.42714 14.8422 3.25406 14.6688 3.03838 14.6688C2.8227 14.6688 2.64963 14.8422 2.64963 15.0582C2.64963 15.2742 2.8227 15.4476 3.03838 15.4476ZM2.64963 17.9839H3.43779V15.7223H2.64963V17.9839ZM6.27095 15.429H5.34961L4.55612 16.2237V14.6661H3.77329L3.77062 17.9813H4.56145V17.1172L4.80642 16.8931L5.57328 17.9813H6.41733L5.30701 16.3917L6.27095 15.429ZM13.8277 16.3944L14.7916 15.429H13.8703L13.0768 16.2237V14.6661H12.2939L12.2887 17.9839H13.0795V17.1198L13.3271 16.8958L14.0939 17.9839H14.938L13.8277 16.3944ZM11.8014 16.6397C11.8014 17.3892 11.1863 17.9973 10.4274 17.9973C9.66855 17.9973 9.05345 17.3892 9.05345 16.6397C9.05345 15.8903 9.66855 15.2822 10.4274 15.2822C11.1863 15.2822 11.8014 15.8903 11.8014 16.6397ZM11.101 16.6397C11.101 16.2664 10.8002 15.965 10.4274 15.965C10.0546 15.965 9.75376 16.2664 9.75376 16.6397C9.75376 17.0131 10.0546 17.3145 10.4274 17.3145C10.8002 17.3145 11.101 17.0131 11.101 16.6397Z" fill="black"/>
</svg>
