<svg width="21" height="8" viewBox="0 0 21 8" fill="none" xmlns="http://www.w3.org/2000/svg">
<path d="M20.0811 4.39873C20.0811 4.45209 20.0811 4.47877 20.0811 4.53213C18.8005 5.54591 17.3332 6.37295 15.7858 6.95988C15.439 7.09327 15.0922 7.19998 14.7454 7.3067C13.278 7.76023 11.704 8.00034 10.0766 8.00034C8.44922 8.00034 6.87519 7.76023 5.40787 7.3067C5.06105 7.19998 4.71422 7.09327 4.3674 6.95988C2.79337 6.37295 1.32605 5.51923 0.0187988 4.50545C0.0454774 3.9452 0.152192 3.43831 0.338942 2.95809C0.36562 2.90474 0.36562 2.87806 0.392299 2.8247C0.73912 2.0777 1.37941 1.51745 2.28648 1.3307C2.31315 1.3307 2.33983 1.3307 2.36651 1.3307C2.57994 1.30402 2.79337 1.27734 3.03348 1.27734H17.3599C17.5733 1.27734 17.7867 1.30402 17.9735 1.3307C18.0268 1.3307 18.0535 1.35738 18.1069 1.35738C18.9606 1.54413 19.5208 2.0777 19.8143 2.79802C19.841 2.87806 19.8676 2.93141 19.8943 3.01145C20.001 3.35827 20.0811 3.73177 20.0811 4.13195C20.0811 4.21198 20.0811 4.29202 20.0811 4.39873Z" fill="#2E2E2E"/>
<path d="M12.9046 1.09042L14.3452 1.30385C13.7049 2.9846 12.0508 4.26517 10.2367 4.34521C8.28917 4.42524 6.39499 3.09131 5.72803 1.30385L7.14199 0.957031" fill="#F5F5FF"/>
<path d="M12.9046 1.09042L14.3452 1.30385C13.7049 2.9846 12.0508 4.26517 10.2367 4.34521C8.28917 4.42524 6.39499 3.09131 5.72803 1.30385L7.14199 0.957031" stroke="#2E2E2E" stroke-width="0.266786" stroke-miterlimit="10" stroke-linecap="round" stroke-linejoin="round"/>
<path d="M17.7868 3.30452C17.7868 3.49127 17.6534 3.62466 17.4666 3.62466C17.2799 3.62466 17.1465 3.49127 17.1465 3.30452C17.1465 3.11777 17.2799 2.98438 17.4666 2.98438C17.6534 2.98438 17.7868 3.11777 17.7868 3.30452Z" fill="#F5F5FF"/>
<path d="M3.56706 3.7315C3.56706 4.07833 3.30027 4.34511 2.95345 4.34511C2.60663 4.34511 2.33984 4.07833 2.33984 3.7315C2.33984 3.38468 2.60663 3.1179 2.95345 3.1179C3.27359 3.09122 3.56706 3.38468 3.56706 3.7315Z" fill="#F5F5FF"/>
<path d="M15.3057 6.47928C15.3057 6.71939 15.119 6.87946 14.9056 6.87946C14.6921 6.87946 14.5054 6.69271 14.5054 6.47928C14.5054 6.26585 14.6921 6.0791 14.9056 6.0791C15.119 6.0791 15.3057 6.23917 15.3057 6.47928Z" fill="#F5F5FF"/>
<path d="M8.23583 7.11961C8.50104 7.11961 8.71604 6.90461 8.71604 6.63939C8.71604 6.37418 8.50104 6.15918 8.23583 6.15918C7.97061 6.15918 7.75562 6.37418 7.75562 6.63939C7.75562 6.90461 7.97061 7.11961 8.23583 7.11961Z" fill="#F5F5FF"/>
</svg>
