<svg width="8" height="7" viewBox="0 0 8 7" fill="none" xmlns="http://www.w3.org/2000/svg">
<path d="M6.34092 5.95931C4.76689 5.37238 3.29957 4.51867 1.99232 3.50488C1.72553 3.29146 1.43207 3.05135 1.16528 2.81124C1.48543 2.43774 1.8856 2.14428 2.31246 1.95753C2.47253 1.87749 2.6326 1.82413 2.79268 1.77078C3.05946 1.69074 3.32625 1.66406 3.59303 1.66406C3.8865 1.66406 4.20664 1.71742 4.5001 1.82414C4.71353 1.90417 4.92696 2.01089 5.08703 2.1176C5.22042 2.19763 5.35382 2.30435 5.46053 2.41106C6.3676 3.2381 6.71442 4.62538 6.34092 5.95931Z" fill="#F5F5FF" stroke="#2E2E2E" stroke-width="0.266786" stroke-miterlimit="10" stroke-linecap="round" stroke-linejoin="round"/>
<path d="M7.51466 5.98593L7.38127 6.33275C7.03445 6.22604 6.68762 6.11932 6.3408 5.98593C4.76677 5.399 3.29945 4.54529 1.9922 3.5315C1.72541 3.31808 1.43195 3.07797 1.16516 2.83786C0.978413 2.67779 0.818342 2.51772 0.631592 2.33097C1.37859 1.07708 2.68584 0.330078 4.04645 0.330078C4.12648 0.330078 4.2332 0.330078 4.31323 0.330078C4.63338 0.356757 4.95352 0.410115 5.27366 0.543507C7.4613 1.26383 8.47509 3.79829 7.51466 5.98593Z" fill="#2E2E2E"/>
</svg>
