<svg width="14" height="14" viewBox="0 0 14 14" fill="none" xmlns="http://www.w3.org/2000/svg">
<path d="M7.00228 0C4.07985 0 3.22515 0.00301564 3.05901 0.0168014C2.45928 0.0666672 2.08609 0.161121 1.67952 0.3636C1.36619 0.519229 1.11908 0.699628 0.875206 0.952511C0.431059 1.41369 0.161879 1.98106 0.0644358 2.65549C0.01706 2.9829 0.00327802 3.04967 0.000478542 4.72206C-0.000598178 5.27952 0.000478542 6.01319 0.000478542 6.99725C0.000478542 9.91812 0.00370871 10.7722 0.0177061 10.938C0.0661585 11.5218 0.15768 11.8891 0.351489 12.2908C0.721881 13.0598 1.42929 13.637 2.26267 13.8524C2.55123 13.9268 2.86994 13.9677 3.27909 13.9871C3.45244 13.9946 5.21934 14 6.98732 14C8.75529 14 10.5233 13.9978 10.6923 13.9892C11.1661 13.9669 11.4412 13.93 11.7453 13.8514C12.5841 13.6349 13.2786 13.0662 13.6565 12.2865C13.8466 11.8944 13.9429 11.5132 13.9865 10.9599C13.996 10.8393 14 8.91606 14 6.99542C14 5.07446 13.9957 3.15479 13.9862 3.03416C13.9421 2.47196 13.8457 2.09393 13.6495 1.69436C13.4886 1.36727 13.3098 1.123 13.0503 0.873243C12.5872 0.430806 12.0209 0.161552 11.346 0.06419C11.019 0.0169091 10.9538 0.00290794 9.28063 0L7.00228 0Z" fill="url(#paint0_radial_643_78364)"/>
<path d="M7.00228 0C4.07985 0 3.22515 0.00301564 3.05901 0.0168014C2.45928 0.0666672 2.08609 0.161121 1.67952 0.3636C1.36619 0.519229 1.11908 0.699628 0.875206 0.952511C0.431059 1.41369 0.161879 1.98106 0.0644358 2.65549C0.01706 2.9829 0.00327802 3.04967 0.000478542 4.72206C-0.000598178 5.27952 0.000478542 6.01319 0.000478542 6.99725C0.000478542 9.91812 0.00370871 10.7722 0.0177061 10.938C0.0661585 11.5218 0.15768 11.8891 0.351489 12.2908C0.721881 13.0598 1.42929 13.637 2.26267 13.8524C2.55123 13.9268 2.86994 13.9677 3.27909 13.9871C3.45244 13.9946 5.21934 14 6.98732 14C8.75529 14 10.5233 13.9978 10.6923 13.9892C11.1661 13.9669 11.4412 13.93 11.7453 13.8514C12.5841 13.6349 13.2786 13.0662 13.6565 12.2865C13.8466 11.8944 13.9429 11.5132 13.9865 10.9599C13.996 10.8393 14 8.91606 14 6.99542C14 5.07446 13.9957 3.15479 13.9862 3.03416C13.9421 2.47196 13.8457 2.09393 13.6495 1.69436C13.4886 1.36727 13.3098 1.123 13.0503 0.873243C12.5872 0.430806 12.0209 0.161552 11.346 0.06419C11.019 0.0169091 10.9538 0.00290794 9.28063 0L7.00228 0Z" fill="url(#paint1_radial_643_78364)"/>
<path d="M6.99901 1.83081C5.5954 1.83081 5.41925 1.83695 4.86797 1.86204C4.31776 1.88725 3.9422 1.97438 3.61359 2.10222C3.27367 2.23426 2.98532 2.41089 2.69805 2.69835C2.41057 2.98569 2.23398 3.27412 2.10155 3.61402C1.97342 3.94284 1.8862 4.31861 1.86144 4.86874C1.83678 5.42018 1.83032 5.59648 1.83032 7.00048C1.83032 8.40447 1.83657 8.58014 1.86155 9.13157C1.88685 9.68192 1.97396 10.0576 2.10166 10.3863C2.23377 10.7263 2.41035 11.0147 2.69773 11.3021C2.98489 11.5896 3.27324 11.7667 3.61294 11.8987C3.94177 12.0266 4.31744 12.1137 4.86754 12.1389C5.41882 12.164 5.59486 12.1701 6.99837 12.1701C8.40209 12.1701 8.5777 12.164 9.12898 12.1389C9.67919 12.1137 10.0552 12.0266 10.384 11.8987C10.7238 11.7667 11.0117 11.5896 11.2989 11.3021C11.5864 11.0147 11.763 10.7263 11.8954 10.3864C12.0225 10.0576 12.1097 9.68181 12.1355 9.13167C12.1603 8.58024 12.1667 8.40447 12.1667 7.00048C12.1667 5.59648 12.1603 5.42028 12.1355 4.86885C12.1097 4.3185 12.0225 3.94284 11.8954 3.61413C11.763 3.27412 11.5864 2.98569 11.2989 2.69835C11.0114 2.41078 10.7239 2.23415 10.3837 2.10222C10.0542 1.97438 9.67843 1.88725 9.12823 1.86204C8.57695 1.83695 8.40144 1.83081 6.9974 1.83081H6.99901ZM6.53538 2.76243C6.67298 2.76221 6.82652 2.76243 6.99901 2.76243C8.37894 2.76243 8.54249 2.76738 9.08742 2.79215C9.59132 2.8152 9.86481 2.89942 10.047 2.97018C10.2882 3.06388 10.4601 3.17589 10.6409 3.35683C10.8218 3.53777 10.9338 3.71009 11.0277 3.95134C11.0984 4.13336 11.1827 4.40692 11.2057 4.91096C11.2304 5.45593 11.2358 5.61964 11.2358 6.99929C11.2358 8.37895 11.2304 8.54265 11.2057 9.08762C11.1826 9.59167 11.0984 9.86523 11.0277 10.0472C10.934 10.2885 10.8218 10.4603 10.6409 10.6411C10.46 10.822 10.2883 10.9341 10.047 11.0278C9.86503 11.0988 9.59132 11.1828 9.08742 11.2059C8.5426 11.2307 8.37894 11.2361 6.99901 11.2361C5.61898 11.2361 5.45543 11.2307 4.9106 11.2059C4.4067 11.1826 4.13321 11.0984 3.95092 11.0276C3.70974 10.9339 3.53746 10.8219 3.35657 10.641C3.17568 10.4601 3.06371 10.2882 2.96982 10.0468C2.89908 9.8648 2.81477 9.59124 2.79183 9.08719C2.76707 8.54222 2.76212 8.37852 2.76212 6.998C2.76212 5.61748 2.76707 5.45464 2.79183 4.90967C2.81488 4.40563 2.89908 4.13207 2.96982 3.94984C3.06349 3.70858 3.17568 3.53626 3.35657 3.35532C3.53746 3.17439 3.70974 3.06238 3.95092 2.96846C4.1331 2.89738 4.4067 2.81337 4.9106 2.79021C5.38738 2.76867 5.57214 2.76221 6.53538 2.76114V2.76243ZM9.75779 3.62081C9.41539 3.62081 9.13759 3.89835 9.13759 4.24095C9.13759 4.58344 9.41539 4.86131 9.75779 4.86131C10.1002 4.86131 10.378 4.58344 10.378 4.24095C10.378 3.89846 10.1002 3.62059 9.75779 3.62059V3.62081ZM6.99901 4.34564C5.53327 4.34564 4.3449 5.53434 4.3449 7.00048C4.3449 8.46662 5.53327 9.65478 6.99901 9.65478C8.46475 9.65478 9.6527 8.46662 9.6527 7.00048C9.6527 5.53434 8.46475 4.34564 6.99901 4.34564ZM6.99901 5.27726C7.9504 5.27726 8.72177 6.04872 8.72177 7.00048C8.72177 7.95213 7.9504 8.7237 6.99901 8.7237C6.04751 8.7237 5.27626 7.95213 5.27626 7.00048C5.27626 6.04872 6.04751 5.27726 6.99901 5.27726Z" fill="white"/>
<defs>
<radialGradient id="paint0_radial_643_78364" cx="0" cy="0" r="1" gradientUnits="userSpaceOnUse" gradientTransform="translate(3.71877 15.0783) rotate(-90) scale(13.8751 12.9049)">
<stop stop-color="#FFDD55"/>
<stop offset="0.1" stop-color="#FFDD55"/>
<stop offset="0.5" stop-color="#FF543E"/>
<stop offset="1" stop-color="#C837AB"/>
</radialGradient>
<radialGradient id="paint1_radial_643_78364" cx="0" cy="0" r="1" gradientUnits="userSpaceOnUse" gradientTransform="translate(-2.34507 1.00854) rotate(78.6806) scale(6.2022 25.5657)">
<stop stop-color="#3771C8"/>
<stop offset="0.13" stop-color="#3771C8"/>
<stop offset="1" stop-color="#6600FF" stop-opacity="0"/>
</radialGradient>
</defs>
</svg>
