<svg width="12" height="14" viewBox="0 0 12 14" fill="none" xmlns="http://www.w3.org/2000/svg">
<path d="M1.96631 8.8742L1.99944 8.96959C1.9953 8.95924 1.98288 8.92605 1.96631 8.8742ZM3.31038 6.69821C3.37044 6.18164 3.5734 5.89335 3.95446 5.5967C4.5012 5.19637 5.18254 5.42246 5.18254 5.42246V4.07618C5.34822 4.07203 5.5139 4.0824 5.67752 4.10729V5.83939C5.67752 5.83939 4.99618 5.6133 4.44942 6.01364C4.06837 6.31029 3.86541 6.59864 3.80535 7.11514C3.80327 7.3952 3.85298 7.76234 4.08493 8.07765C4.02694 8.04651 3.96895 8.01127 3.9089 7.97184C3.4015 7.61505 3.30831 7.07777 3.31038 6.69821ZM8.49613 1.58694C8.12129 1.15754 7.97841 0.721921 7.92665 0.416992H8.39884C8.39884 0.416992 8.30559 1.2177 8.99111 2.00388L9.00145 2.01425C8.81509 1.89394 8.64524 1.74874 8.49613 1.58694ZM10.7722 2.80666V4.5035C10.7722 4.5035 10.1695 4.4786 9.72215 4.36037C9.0988 4.19442 8.69912 3.93927 8.69912 3.93927C8.69912 3.93927 8.42157 3.75672 8.40089 3.74428V7.24996C8.40089 7.44498 8.34913 7.93241 8.19379 8.33898C7.9908 8.87002 7.67601 9.22064 7.61803 9.29113C7.61803 9.29113 7.23491 9.76409 6.56185 10.0815C5.95507 10.3677 5.42072 10.3615 5.26127 10.3677C5.26127 10.3677 4.33966 10.4051 3.50919 9.84295C3.32902 9.71849 3.16127 9.57743 3.00801 9.42184L3.01216 9.42595C3.84263 9.99018 4.76423 9.95082 4.76423 9.95082C4.92368 9.94458 5.45803 9.95082 6.06482 9.66452C6.73787 9.34716 7.12099 8.8742 7.12099 8.8742C7.17898 8.80364 7.49377 8.45309 7.69676 7.92205C7.8521 7.51548 7.90386 7.02798 7.90386 6.83303V3.3294C7.92665 3.34185 8.20208 3.52439 8.20208 3.52439C8.20208 3.52439 8.60176 3.77954 9.22511 3.94549C9.67245 4.06373 10.2751 4.08862 10.2751 4.08862V2.75896C10.4822 2.80666 10.6582 2.81911 10.7722 2.80666Z" fill="#EE1D52"/>
<path d="M10.2751 2.75688V4.08655C10.2751 4.08655 9.67239 4.06166 9.22506 3.94342C8.60171 3.77747 8.20202 3.52232 8.20202 3.52232C8.20202 3.52232 7.92447 3.33978 7.9038 3.32733V6.83303C7.9038 7.02798 7.85204 7.51548 7.6967 7.92205C7.49371 8.45309 7.17892 8.80364 7.12093 8.8742C7.12093 8.8742 6.73781 9.34716 6.06476 9.66452C5.45797 9.95082 4.92362 9.94458 4.76418 9.95082C4.76418 9.95082 3.84257 9.98812 3.0121 9.42595L3.00796 9.42184C2.92098 9.33262 2.83814 9.23929 2.76151 9.14178C2.49642 8.80364 2.33489 8.40536 2.29347 8.29132V8.2892C2.2272 8.09218 2.09051 7.61505 2.10915 7.15663C2.14229 6.34553 2.41566 5.84563 2.48814 5.72117C2.67867 5.38097 2.92926 5.07602 3.22335 4.82087C3.48429 4.60099 3.78044 4.42467 4.0973 4.30228C4.44109 4.15707 4.8097 4.08032 5.18248 4.0741V5.4204C5.18248 5.4204 4.50114 5.19424 3.9544 5.59465C3.57334 5.89123 3.37038 6.17958 3.31032 6.69608C3.30825 7.07571 3.40144 7.61299 3.91091 7.97184C3.97097 8.01127 4.02896 8.04651 4.08695 8.07765C4.176 8.19793 4.28369 8.30374 4.40795 8.39089C4.90706 8.72067 5.32331 8.7435 5.85766 8.52983C6.21387 8.38671 6.48101 8.06517 6.60527 7.70632C6.684 7.48229 6.68188 7.25826 6.68188 7.02593V0.416992H7.92447C7.9763 0.721921 8.11713 1.15754 8.49401 1.58694C8.64518 1.74874 8.81503 1.89394 8.99934 2.01425C9.05321 2.07441 9.33275 2.36482 9.69313 2.54529C9.87743 2.63864 10.0742 2.70916 10.2751 2.75688Z" fill="black"/>
<path d="M1.79858 7.88062L1.82965 7.96983C1.8255 7.95947 1.81308 7.92834 1.79858 7.88062Z" fill="#69C9D0"/>
<path d="M4.09726 4.30437C3.77833 4.42675 3.48425 4.60308 3.22331 4.82296C2.92715 5.07811 2.67864 5.3851 2.4881 5.7253C2.41562 5.84976 2.14225 6.34761 2.10911 7.16076C2.09047 7.6213 2.22923 8.09631 2.29343 8.29339V8.29545C2.33485 8.4075 2.49639 8.80784 2.76148 9.14598C2.8381 9.24342 2.92094 9.33682 3.00793 9.42597C2.72627 9.23101 2.47775 8.99662 2.26444 8.72898C2.00142 8.39502 1.83988 7.9988 1.79846 7.88264V7.87852C1.7322 7.68144 1.59344 7.20437 1.61415 6.74383C1.64728 5.93273 1.92065 5.43283 1.99314 5.30836C2.18367 4.96817 2.43218 4.66116 2.72834 4.40602C2.98928 4.18613 3.28544 4.00981 3.6023 3.88743C3.80111 3.80445 4.00821 3.74429 4.21945 3.70488C4.53842 3.64887 4.86355 3.64472 5.18457 3.69036V4.07619C4.80967 4.08242 4.44105 4.15916 4.09726 4.30437Z" fill="#69C9D0"/>
<path d="M7.92644 0.416944H6.68385V7.02588C6.68385 7.25821 6.68385 7.48224 6.60717 7.70627C6.48086 8.06306 6.21372 8.38666 5.85956 8.52978C5.32528 8.74551 4.90691 8.72062 4.40987 8.39084C4.28561 8.30575 4.17792 8.2 4.08887 8.07966C4.51342 8.30575 4.89239 8.30163 5.36252 8.11285C5.71873 7.96973 5.98588 7.64613 6.11013 7.28934C6.18887 7.06531 6.18681 6.84128 6.18681 6.60895V0H7.90365C7.90159 0 7.8829 0.163872 7.92644 0.416944ZM10.2749 2.38967V2.75683C10.074 2.70912 9.87728 2.63859 9.69298 2.54524C9.33472 2.36685 9.05512 2.07437 8.99918 2.01421C9.0634 2.05569 9.12762 2.09303 9.19594 2.1283C9.63499 2.34611 10.0637 2.41249 10.2749 2.38967Z" fill="#69C9D0"/>
<path d="M7.96785 12.9503C7.96785 12.998 7.97401 13.0436 7.98853 13.0893C7.98853 13.0934 7.99058 13.0955 7.99058 13.0996C8.05897 13.3195 8.2619 13.4689 8.49179 13.4689V13.9999C8.23294 13.9999 8.04857 14.0082 7.76691 13.8423C7.44802 13.6514 7.26782 13.305 7.26782 12.944C7.26782 12.5728 7.46869 12.1994 7.81251 12.0189C8.06103 11.8882 8.24951 11.8882 8.49385 11.8882V12.4192C8.20391 12.4192 7.9699 12.6536 7.9699 12.944L7.96785 12.9503Z" fill="#69C9D0"/>
<path d="M9.01996 12.9503C9.01996 12.998 9.01373 13.0436 8.99922 13.0893C8.99922 13.0934 8.99716 13.0955 8.99716 13.0996C8.92884 13.3195 8.72585 13.4689 8.49595 13.4689V13.9999C8.75275 13.9999 8.93918 14.0082 9.21878 13.8423C9.53973 13.6514 9.71992 13.305 9.71992 12.944C9.71992 12.5728 9.51905 12.1994 9.17524 12.0189C8.92672 11.8882 8.73831 11.8882 8.4939 11.8882V12.4192C8.78384 12.4192 9.01784 12.6536 9.01784 12.944V12.9503H9.01996Z" fill="#EE1D52"/>
<path d="M0.381836 11.407H2.32235L2.14218 11.9422H1.63478V13.9896H1.01142V11.9422H0.381836V11.407ZM5.52619 11.407V11.9422H6.15577V13.9896H6.78118V11.9422H7.28862L7.46875 11.407H5.52619ZM2.74483 12.0148C2.91258 12.0148 3.0472 11.8799 3.0472 11.7119C3.0472 11.5439 2.91258 11.409 2.74483 11.409C2.57708 11.409 2.44247 11.5439 2.44247 11.7119C2.44247 11.8799 2.57708 12.0148 2.74483 12.0148ZM2.44247 13.9875H3.05548V12.2284H2.44247V13.9875ZM5.25905 12.0003H4.54245L3.9253 12.6184V11.407H3.31643L3.31435 13.9854H3.92944V13.3133L4.11997 13.1391L4.71642 13.9854H5.3729L4.50932 12.7491L5.25905 12.0003ZM11.1365 12.7512L11.8862 12.0003H11.1696L10.5525 12.6184V11.407H9.9436L9.93949 13.9875H10.5546V13.3154L10.7471 13.1412L11.3436 13.9875H12.0001L11.1365 12.7512ZM9.56048 12.942C9.56048 13.5249 9.08206 13.9979 8.49185 13.9979C7.90163 13.9979 7.42322 13.5249 7.42322 12.942C7.42322 12.3591 7.90163 11.8862 8.49185 11.8862C9.08206 11.8862 9.56048 12.3591 9.56048 12.942ZM9.01579 12.942C9.01579 12.6516 8.78179 12.4172 8.49185 12.4172C8.20191 12.4172 7.96791 12.6516 7.96791 12.942C7.96791 13.2324 8.20191 13.4668 8.49185 13.4668C8.78179 13.4668 9.01579 13.2324 9.01579 12.942Z" fill="black"/>
</svg>
