<svg width="14" height="14" viewBox="0 0 14 14" fill="none" xmlns="http://www.w3.org/2000/svg">
<path d="M11.7337 14H2.26625C1.01471 14 0 12.9853 0 11.7337V2.26625C0 1.01471 1.01471 0 2.26625 0H11.7337C12.9853 0 14 1.01471 14 2.26625V11.7337C14 12.9853 12.9853 14 11.7337 14Z" fill="black"/>
<path d="M5.90115 5.71845C5.72732 5.60281 5.14967 5.20089 5.14967 5.20089C5.63675 4.50264 6.2793 4.23081 7.16742 4.23081C7.79553 4.23081 8.32884 4.44256 8.70961 4.84331C9.09053 5.2442 9.30782 5.81747 9.35725 6.55058C9.56842 6.6391 9.7634 6.74337 9.94044 6.86266C10.6544 7.34391 11.0476 8.06345 11.0476 8.88843C11.0476 10.6418 9.61348 12.1649 7.0175 12.1649C4.78859 12.1649 2.4729 10.8653 2.4729 6.99581C2.4729 3.14829 4.71596 1.83447 7.01123 1.83447C8.07115 1.83447 10.5573 1.99139 11.4923 5.08568L10.6155 5.31362C9.89261 3.10906 8.37696 2.75818 6.98732 2.75818C4.69015 2.75818 3.39078 4.16008 3.39078 7.14266C3.39078 9.81695 4.84313 11.2377 7.0178 11.2377C8.80688 11.2377 10.1408 10.3058 10.1408 8.94166C10.1408 8.01329 9.3625 7.56879 9.32269 7.56879C9.17073 8.36533 8.76328 9.70524 6.97463 9.70524C5.9325 9.70524 5.03403 8.98381 5.03403 8.03851C5.03403 6.68868 6.31167 6.20014 7.32069 6.20014C7.69855 6.20014 8.15457 6.22566 8.39198 6.27408C8.39198 5.86268 8.04475 5.1586 7.16757 5.1586C6.3633 5.15845 6.15928 5.41993 5.90115 5.71845ZM7.44407 7.1221C6.12967 7.1221 5.95963 7.6837 5.95963 8.03647C5.95963 8.60318 6.63148 8.79101 6.98994 8.79101C7.64707 8.79101 8.32213 8.60843 8.4283 7.22608C8.09507 7.15112 7.84671 7.1221 7.44407 7.1221Z" fill="white"/>
</svg>
