<svg width="14" height="14" viewBox="0 0 14 14" fill="none" xmlns="http://www.w3.org/2000/svg">
<path d="M7 14C10.866 14 14 10.866 14 7C14 3.13401 10.866 0 7 0C3.13401 0 0 3.13401 0 7C0 10.866 3.13401 14 7 14Z" fill="url(#paint0_linear_643_78392)"/>
<path d="M2.60691 7.34243C3.42521 6.89169 4.33865 6.5155 5.19212 6.13738C6.66043 5.51805 8.13457 4.90946 9.62359 4.34287C9.91327 4.24633 10.4338 4.15195 10.4849 4.58128C10.4569 5.189 10.342 5.79315 10.2631 6.39731C10.063 7.72591 9.83155 9.04996 9.60597 10.3742C9.52821 10.8152 8.97568 11.0436 8.62212 10.7613C7.77244 10.1874 6.91622 9.61906 6.07739 9.03182C5.80258 8.75258 6.05744 8.35165 6.30279 8.15227C7.00261 7.46254 7.74479 6.87664 8.40804 6.15132C8.58695 5.71925 8.05833 6.08336 7.88397 6.19495C6.92591 6.85517 5.99129 7.5557 4.98119 8.13594C4.46523 8.41996 3.86387 8.17724 3.34815 8.01875C2.88574 7.8273 2.20814 7.63439 2.60685 7.34249L2.60691 7.34243Z" fill="white"/>
<defs>
<linearGradient id="paint0_linear_643_78392" x1="9.33392" y1="2.3338" x2="5.83392" y2="10.5" gradientUnits="userSpaceOnUse">
<stop stop-color="#37AEE2"/>
<stop offset="1" stop-color="#1E96C8"/>
</linearGradient>
</defs>
</svg>
