<svg width="8" height="7" viewBox="0 0 8 7" fill="none" xmlns="http://www.w3.org/2000/svg">
<path d="M6.08128 3.53156C4.80071 4.54535 3.33339 5.37238 1.78604 5.95931C1.30582 4.19853 2.0795 2.35771 3.62686 1.82414C3.92032 1.71742 4.24047 1.66406 4.53393 1.66406C4.80071 1.66406 5.0675 1.69074 5.33429 1.77078C5.52104 1.82413 5.70779 1.90417 5.89454 1.98421C6.26804 2.17096 6.64154 2.46442 6.935 2.78456C6.80161 2.89128 6.69489 2.99799 6.5615 3.1047C6.58818 3.13138 6.58818 3.18474 6.58818 3.21142C6.58818 3.34481 6.48146 3.4782 6.32139 3.4782C6.26803 3.4782 6.21468 3.45153 6.16132 3.42485C6.13464 3.50488 6.10796 3.50488 6.08128 3.53156Z" fill="#F5F5FF" stroke="#2E2E2E" stroke-width="0.266786" stroke-miterlimit="10" stroke-linecap="round" stroke-linejoin="round"/>
<path d="M6.08115 3.53164C4.80058 4.54542 3.33326 5.37246 1.7859 5.95939C1.43908 6.09278 1.09226 6.19949 0.745439 6.30621L0.612046 5.95939C-0.321703 3.77175 0.692083 1.23728 2.82637 0.490285C3.22655 0.356892 3.60005 0.276855 4.00022 0.276855H4.05358C5.41419 0.276855 6.72144 1.02385 7.46844 2.27775C7.30836 2.43782 7.12161 2.62457 6.93486 2.78464C6.80147 2.89135 6.69476 2.99807 6.56136 3.10478C6.58804 3.13146 6.58804 3.18482 6.58804 3.2115C6.58804 3.34489 6.48133 3.47828 6.32126 3.47828C6.2679 3.47828 6.21454 3.4516 6.16119 3.42493C6.13451 3.50496 6.10783 3.50496 6.08115 3.53164Z" fill="#2E2E2E"/>
<path d="M6.5614 3.26483C6.5614 3.39822 6.45469 3.53162 6.29462 3.53162C6.24126 3.53162 6.1879 3.50494 6.13455 3.47826C6.10787 3.45158 6.08119 3.4249 6.05451 3.39822C6.02783 3.37155 6.02783 3.31819 6.02783 3.26483C6.02783 3.21147 6.02783 3.1848 6.05451 3.13144C6.10787 3.0514 6.1879 2.99805 6.29462 2.99805C6.40133 2.99805 6.50805 3.05141 6.53473 3.15812C6.5614 3.1848 6.5614 3.21147 6.5614 3.26483Z" fill="#F5F5FF"/>
</svg>
