<svg width="18" height="18" viewBox="0 0 18 18" fill="none" xmlns="http://www.w3.org/2000/svg">
<path d="M9.00294 0C5.24552 0 4.14662 0.00387725 3.93301 0.0216018C3.16193 0.0857149 2.68211 0.207156 2.15938 0.467486C1.75653 0.66758 1.43882 0.899522 1.12527 1.22466C0.554219 1.8176 0.20813 2.54708 0.082846 3.4142C0.0219343 3.83516 0.00421459 3.92101 0.000615269 6.07122C-0.000769086 6.78796 0.000615269 7.73124 0.000615269 8.99647C0.000615269 12.7519 0.00476834 13.85 0.022765 14.0632C0.0850609 14.8137 0.202731 15.2859 0.451915 15.8024C0.928133 16.7911 1.83765 17.5333 2.90915 17.8103C3.28015 17.9058 3.68992 17.9585 4.21598 17.9834C4.43886 17.9931 6.71058 18 8.9837 18C11.2568 18 13.5299 17.9972 13.7473 17.9862C14.3564 17.9575 14.7101 17.91 15.1012 17.8089C16.1796 17.5306 17.0725 16.7994 17.5584 15.7969C17.8027 15.2928 17.9266 14.8027 17.9827 14.0913C17.9949 13.9362 18 11.4635 18 8.99412C18 6.52431 17.9945 4.05616 17.9823 3.90107C17.9255 3.17824 17.8016 2.6922 17.5494 2.17846C17.3424 1.75792 17.1126 1.44386 16.779 1.12274C16.1836 0.553893 15.4554 0.20771 14.5877 0.0825301C14.1673 0.0217403 14.0835 0.00373878 11.9322 0L9.00294 0Z" fill="url(#paint0_radial_703_122689)"/>
<path d="M9.00294 0C5.24552 0 4.14662 0.00387725 3.93301 0.0216018C3.16193 0.0857149 2.68211 0.207156 2.15938 0.467486C1.75653 0.66758 1.43882 0.899522 1.12527 1.22466C0.554219 1.8176 0.20813 2.54708 0.082846 3.4142C0.0219343 3.83516 0.00421459 3.92101 0.000615269 6.07122C-0.000769086 6.78796 0.000615269 7.73124 0.000615269 8.99647C0.000615269 12.7519 0.00476834 13.85 0.022765 14.0632C0.0850609 14.8137 0.202731 15.2859 0.451915 15.8024C0.928133 16.7911 1.83765 17.5333 2.90915 17.8103C3.28015 17.9058 3.68992 17.9585 4.21598 17.9834C4.43886 17.9931 6.71058 18 8.9837 18C11.2568 18 13.5299 17.9972 13.7473 17.9862C14.3564 17.9575 14.7101 17.91 15.1012 17.8089C16.1796 17.5306 17.0725 16.7994 17.5584 15.7969C17.8027 15.2928 17.9266 14.8027 17.9827 14.0913C17.9949 13.9362 18 11.4635 18 8.99412C18 6.52431 17.9945 4.05616 17.9823 3.90107C17.9255 3.17824 17.8016 2.6922 17.5494 2.17846C17.3424 1.75792 17.1126 1.44386 16.779 1.12274C16.1836 0.553893 15.4554 0.20771 14.5877 0.0825301C14.1673 0.0217403 14.0835 0.00373878 11.9322 0L9.00294 0Z" fill="url(#paint1_radial_703_122689)"/>
<path d="M8.99849 2.35388C7.19384 2.35388 6.96736 2.36177 6.25857 2.39404C5.55116 2.42644 5.0683 2.53847 4.6458 2.70283C4.20876 2.8726 3.83803 3.0997 3.46868 3.46928C3.09906 3.83873 2.87202 4.20956 2.70175 4.64658C2.53701 5.06934 2.42488 5.55248 2.39304 6.2598C2.36133 6.96878 2.35303 7.19546 2.35303 9.0006C2.35303 10.8057 2.36106 11.0316 2.39317 11.7406C2.42571 12.4482 2.5377 12.9312 2.70188 13.3538C2.87175 13.7909 3.09878 14.1618 3.46826 14.5312C3.83747 14.9009 4.2082 15.1286 4.64497 15.2984C5.06775 15.4627 5.55075 15.5748 6.25802 15.6072C6.96681 15.6394 7.19315 15.6473 8.99766 15.6473C10.8024 15.6473 11.0282 15.6394 11.737 15.6072C12.4444 15.5748 12.9278 15.4627 13.3506 15.2984C13.7875 15.1286 14.1577 14.9009 14.5269 14.5312C14.8965 14.1618 15.1236 13.7909 15.2938 13.3539C15.4572 12.9312 15.5693 12.448 15.6026 11.7407C15.6344 11.0317 15.6427 10.8057 15.6427 9.0006C15.6427 7.19546 15.6344 6.96892 15.6026 6.25994C15.5693 5.55234 15.4572 5.06934 15.2938 4.64672C15.1236 4.20956 14.8965 3.83873 14.5269 3.46928C14.1573 3.09956 13.7877 2.87246 13.3502 2.70283C12.9266 2.53847 12.4435 2.42644 11.736 2.39404C11.0273 2.36177 10.8016 2.35388 8.99641 2.35388H8.99849ZM8.40238 3.55168C8.5793 3.5514 8.77671 3.55168 8.99849 3.55168C10.7727 3.55168 10.983 3.55805 11.6836 3.58989C12.3315 3.61953 12.6831 3.72781 12.9173 3.81879C13.2274 3.93926 13.4485 4.08327 13.6809 4.31591C13.9135 4.54854 14.0575 4.7701 14.1782 5.08028C14.2691 5.3143 14.3775 5.66602 14.407 6.31408C14.4389 7.01475 14.4458 7.22523 14.4458 8.99907C14.4458 10.7729 14.4389 10.9834 14.407 11.6841C14.3774 12.3321 14.2691 12.6838 14.1782 12.9179C14.0577 13.228 13.9135 13.4489 13.6809 13.6814C13.4484 13.914 13.2276 14.0581 12.9173 14.1785C12.6834 14.2699 12.3315 14.3779 11.6836 14.4076C10.9831 14.4394 10.7727 14.4463 8.99849 14.4463C7.22416 14.4463 7.01387 14.4394 6.31339 14.4076C5.66551 14.3777 5.31389 14.2694 5.07951 14.1784C4.76942 14.0579 4.54792 13.9139 4.31535 13.6813C4.08278 13.4486 3.93881 13.2276 3.81809 12.9173C3.72714 12.6833 3.61874 12.3316 3.58926 11.6835C3.55742 10.9828 3.55105 10.7724 3.55105 8.99741C3.55105 7.22246 3.55742 7.01309 3.58926 6.31242C3.61888 5.66436 3.72714 5.31264 3.81809 5.07834C3.93853 4.76816 4.08278 4.54661 4.31535 4.31397C4.54792 4.08134 4.76942 3.93732 5.07951 3.81657C5.31375 3.72518 5.66551 3.61717 6.31339 3.5874C6.92638 3.55971 7.16394 3.5514 8.40238 3.55001V3.55168ZM12.5455 4.65531C12.1053 4.65531 11.7481 5.01215 11.7481 5.45264C11.7481 5.89298 12.1053 6.25024 12.5455 6.25024C12.9857 6.25024 13.3429 5.89298 13.3429 5.45264C13.3429 5.01229 12.9857 4.65503 12.5455 4.65503V4.65531ZM8.99849 5.58723C7.11396 5.58723 5.58605 7.11556 5.58605 9.0006C5.58605 10.8856 7.11396 12.4133 8.99849 12.4133C10.883 12.4133 12.4104 10.8856 12.4104 9.0006C12.4104 7.11556 10.883 5.58723 8.99849 5.58723ZM8.99849 6.78503C10.2217 6.78503 11.2135 7.77691 11.2135 9.0006C11.2135 10.2241 10.2217 11.2162 8.99849 11.2162C7.77513 11.2162 6.78352 10.2241 6.78352 9.0006C6.78352 7.77691 7.77513 6.78503 8.99849 6.78503Z" fill="white"/>
<defs>
<radialGradient id="paint0_radial_703_122689" cx="0" cy="0" r="1" gradientUnits="userSpaceOnUse" gradientTransform="translate(4.78128 19.3864) rotate(-90) scale(17.8394 16.592)">
<stop stop-color="#FFDD55"/>
<stop offset="0.1" stop-color="#FFDD55"/>
<stop offset="0.5" stop-color="#FF543E"/>
<stop offset="1" stop-color="#C837AB"/>
</radialGradient>
<radialGradient id="paint1_radial_703_122689" cx="0" cy="0" r="1" gradientUnits="userSpaceOnUse" gradientTransform="translate(-3.01509 1.29669) rotate(78.6806) scale(7.97425 32.8702)">
<stop stop-color="#3771C8"/>
<stop offset="0.13" stop-color="#3771C8"/>
<stop offset="1" stop-color="#6600FF" stop-opacity="0"/>
</radialGradient>
</defs>
</svg>
