<svg width="18" height="18" viewBox="0 0 18 18" fill="none" xmlns="http://www.w3.org/2000/svg">
<path d="M15.0863 18H2.91375C1.30462 18 0 16.6954 0 15.0863V2.91375C0 1.30462 1.30462 0 2.91375 0H15.0863C16.6954 0 18 1.30462 18 2.91375V15.0863C18 16.6954 16.6954 18 15.0863 18Z" fill="black"/>
<path d="M7.58744 7.35233C7.36394 7.20364 6.62125 6.68689 6.62125 6.68689C7.2475 5.78914 8.07362 5.43964 9.2155 5.43964C10.0231 5.43964 10.7088 5.71189 11.1983 6.22714C11.6881 6.74258 11.9674 7.47964 12.031 8.42221C12.3025 8.53602 12.5532 8.67008 12.7808 8.82345C13.6988 9.4422 14.2043 10.3673 14.2043 11.428C14.2043 13.6823 12.3604 15.6406 9.02275 15.6406C6.157 15.6406 3.17969 13.9698 3.17969 8.99464C3.17969 4.04783 6.06363 2.35864 9.01469 2.35864C10.3774 2.35864 13.5739 2.56039 14.776 6.53877L13.6488 6.83183C12.7193 3.99739 10.7706 3.54627 8.98394 3.54627C6.03044 3.54627 4.35981 5.3487 4.35981 9.18345C4.35981 12.6218 6.22713 14.4485 9.02313 14.4485C11.3234 14.4485 13.0384 13.2503 13.0384 11.4965C13.0384 10.3028 12.0378 9.73133 11.9866 9.73133C11.7912 10.7555 11.2673 12.4782 8.96763 12.4782C7.62775 12.4782 6.47256 11.5506 6.47256 10.3353C6.47256 8.59977 8.11525 7.97164 9.41256 7.97164C9.89838 7.97164 10.4847 8.00446 10.7899 8.06671C10.7899 7.53777 10.3435 6.63252 9.21569 6.63252C8.18162 6.63233 7.91931 6.96852 7.58744 7.35233ZM9.57119 9.15702C7.88125 9.15702 7.66263 9.87908 7.66263 10.3326C7.66263 11.0613 8.52644 11.3028 8.98731 11.3028C9.83219 11.3028 10.7001 11.068 10.8366 9.29071C10.4082 9.19433 10.0889 9.15702 9.57119 9.15702Z" fill="white"/>
</svg>
