<svg width="464" height="161" viewBox="0 0 464 161" fill="none" xmlns="http://www.w3.org/2000/svg">
<path opacity="0.04" d="M57.7959 49.5868C42.6175 69.7026 14.1005 85.169 1.73926 90.3877V160.412H463.991V20.1722C394.135 20.1722 393.273 140.677 353.602 140.677C313.931 140.677 312.207 72.3594 292.371 72.3594C272.536 72.3594 277.71 109.365 232.003 105.095C186.295 100.825 163.872 58.6009 136.275 20.1722C108.827 -18.0497 77.1124 23.9846 58.1035 49.1791L57.7959 49.5868Z" fill="#AB64F2"/>
<path d="M4.24316 89.0719C16.5377 83.9334 44.9008 68.7048 59.9973 48.8982C78.8679 24.14 110.605 -17.9022 138.053 19.9358C165.501 57.7738 187.803 99.3489 233.264 103.553C278.725 107.757 273.578 71.3208 293.307 71.3208C313.035 71.3208 314.751 138.588 354.207 138.588C393.664 138.588 394.522 19.9358 464 19.9358" stroke="#AB64F2" stroke-width="3"/>
<ellipse cx="4.86971" cy="88.3222" rx="4.17391" ry="4.76707" fill="#C026D3"/>
<ellipse cx="56.7047" cy="53.216" rx="4.17391" ry="4.76706" fill="#C026D3"/>
<ellipse cx="117.681" cy="4.82248" rx="4.17391" ry="4.76706" fill="#C026D3"/>
<ellipse cx="409.995" cy="57.01" rx="4.17391" ry="4.76706" fill="#C026D3"/>
<ellipse cx="175.859" cy="70.2949" rx="4.17391" ry="4.76707" fill="#C026D3"/>
<ellipse cx="234.748" cy="104.453" rx="4.17391" ry="4.76706" fill="#C026D3"/>
<ellipse cx="351.816" cy="137.662" rx="4.17391" ry="4.76707" fill="#C026D3"/>
<ellipse cx="292.927" cy="71.2414" rx="4.17391" ry="4.76706" fill="#C026D3"/>
</svg>
