<svg width="4" height="4" viewBox="0 0 4 4" fill="none" xmlns="http://www.w3.org/2000/svg">
<path d="M3.75592 1.5791C3.46168 1.87333 3.15407 2.14082 2.83308 2.39494C2.32485 2.76942 1.7765 3.09041 1.18802 3.34452C1.0944 2.46181 1.52239 1.61922 2.2981 1.35173C2.4586 1.29823 2.61909 1.27148 2.79296 1.27148H2.81971C2.83308 1.27148 2.84646 1.27148 2.87321 1.27148C3.18082 1.29823 3.48843 1.40523 3.75592 1.5791Z" fill="#F5F5FF" stroke="#2E2E2E" stroke-width="0.0715533" stroke-miterlimit="10" stroke-linecap="round" stroke-linejoin="round"/>
<path d="M3.97003 1.36524C3.90316 1.44549 3.83629 1.51236 3.75604 1.57923C3.4618 1.87347 3.15419 2.14096 2.8332 2.39507C2.32498 2.76956 1.77662 3.09055 1.18815 3.34466C0.893909 3.46503 0.599671 3.5854 0.292059 3.66565C-0.202795 2.4352 0.358932 1.04426 1.54926 0.629648C1.77662 0.549401 2.00399 0.509277 2.24473 0.509277C2.4186 0.509277 2.60584 0.536026 2.77971 0.57615C3.23444 0.723269 3.64905 0.977383 3.97003 1.36524Z" fill="#F5F5FF" stroke="#2E2E2E" stroke-width="0.0715533" stroke-miterlimit="10" stroke-linecap="round" stroke-linejoin="round"/>
</svg>
