<svg width="491" height="229" viewBox="0 0 491 229" fill="none" xmlns="http://www.w3.org/2000/svg">
<g clip-path="url(#clip0_643_78673)">
<path fill-rule="evenodd" clip-rule="evenodd" d="M153.01 83.657C158.714 83.657 163.338 79.0328 163.338 73.3285C163.338 67.6242 158.714 63 153.01 63C147.305 63 142.681 67.6242 142.681 73.3285C142.681 79.0328 147.305 83.657 153.01 83.657Z" fill="#FC306D" fill-opacity="0.25"/>
<path d="M162.838 73.3285C162.838 78.7566 158.438 83.157 153.01 83.157C147.582 83.157 143.181 78.7566 143.181 73.3285C143.181 67.9004 147.582 63.5 153.01 63.5C158.438 63.5 162.838 67.9004 162.838 73.3285Z" stroke="#FC306D" stroke-opacity="0.5"/>
<g clip-path="url(#clip1_643_78673)">
<path fill-rule="evenodd" clip-rule="evenodd" d="M152.78 75.7638C154.251 75.7638 155.443 74.5715 155.443 73.1007C155.443 71.6298 154.251 70.4375 152.78 70.4375C151.309 70.4375 150.117 71.6298 150.117 73.1007C150.117 74.5715 151.309 75.7638 152.78 75.7638Z" fill="#FC306D"/>
<mask id="mask0_643_78673" style="mask-type:luminance" maskUnits="userSpaceOnUse" x="150" y="70" width="6" height="6">
<path fill-rule="evenodd" clip-rule="evenodd" d="M152.78 75.7638C154.251 75.7638 155.443 74.5715 155.443 73.1007C155.443 71.6298 154.251 70.4375 152.78 70.4375C151.309 70.4375 150.117 71.6298 150.117 73.1007C150.117 74.5715 151.309 75.7638 152.78 75.7638Z" fill="white"/>
</mask>
<g mask="url(#mask0_643_78673)">
</g>
</g>
</g>
<g clip-path="url(#clip2_643_78673)">
<path fill-rule="evenodd" clip-rule="evenodd" d="M280.685 63.6449C286.386 63.6449 291.007 59.0234 291.007 53.3225C291.007 47.6215 286.386 43 280.685 43C274.984 43 270.362 47.6215 270.362 53.3225C270.362 59.0234 274.984 63.6449 280.685 63.6449Z" fill="#009020" fill-opacity="0.25"/>
<path d="M290.785 53.3225C290.785 58.9008 286.263 63.423 280.685 63.423C275.106 63.423 270.584 58.9008 270.584 53.3225C270.584 47.7441 275.106 43.2219 280.685 43.2219C286.263 43.2219 290.785 47.7441 290.785 53.3225Z" stroke="#009020" stroke-opacity="0.5" stroke-width="0.44386"/>
<g clip-path="url(#clip3_643_78673)">
<path fill-rule="evenodd" clip-rule="evenodd" d="M280.685 55.9845C282.155 55.9845 283.348 54.7922 283.348 53.3214C283.348 51.8505 282.155 50.6582 280.685 50.6582C279.214 50.6582 278.021 51.8505 278.021 53.3214C278.021 54.7922 279.214 55.9845 280.685 55.9845Z" fill="#009020"/>
<mask id="mask1_643_78673" style="mask-type:luminance" maskUnits="userSpaceOnUse" x="278" y="50" width="6" height="6">
<path fill-rule="evenodd" clip-rule="evenodd" d="M280.685 55.9845C282.155 55.9845 283.348 54.7922 283.348 53.3214C283.348 51.8505 282.155 50.6582 280.685 50.6582C279.214 50.6582 278.021 51.8505 278.021 53.3214C278.021 54.7922 279.214 55.9845 280.685 55.9845Z" fill="white"/>
</mask>
<g mask="url(#mask1_643_78673)">
</g>
</g>
</g>
<g clip-path="url(#clip4_643_78673)">
<path fill-rule="evenodd" clip-rule="evenodd" d="M374.685 176.645C380.386 176.645 385.007 172.023 385.007 166.322C385.007 160.622 380.386 156 374.685 156C368.984 156 364.362 160.622 364.362 166.322C364.362 172.023 368.984 176.645 374.685 176.645Z" fill="#009020" fill-opacity="0.25"/>
<path d="M384.785 166.322C384.785 171.901 380.263 176.423 374.685 176.423C369.106 176.423 364.584 171.901 364.584 166.322C364.584 160.744 369.106 156.222 374.685 156.222C380.263 156.222 384.785 160.744 384.785 166.322Z" stroke="#009020" stroke-opacity="0.5" stroke-width="0.44386"/>
<g clip-path="url(#clip5_643_78673)">
<path fill-rule="evenodd" clip-rule="evenodd" d="M374.685 168.985C376.155 168.985 377.348 167.792 377.348 166.321C377.348 164.851 376.155 163.658 374.685 163.658C373.214 163.658 372.021 164.851 372.021 166.321C372.021 167.792 373.214 168.985 374.685 168.985Z" fill="#009020"/>
<mask id="mask2_643_78673" style="mask-type:luminance" maskUnits="userSpaceOnUse" x="372" y="163" width="6" height="6">
<path fill-rule="evenodd" clip-rule="evenodd" d="M374.685 168.985C376.155 168.985 377.348 167.792 377.348 166.321C377.348 164.851 376.155 163.658 374.685 163.658C373.214 163.658 372.021 164.851 372.021 166.321C372.021 167.792 373.214 168.985 374.685 168.985Z" fill="white"/>
</mask>
<g mask="url(#mask2_643_78673)">
</g>
</g>
</g>
<g clip-path="url(#clip6_643_78673)">
<path fill-rule="evenodd" clip-rule="evenodd" d="M479.685 85.6449C485.386 85.6449 490.007 81.0234 490.007 75.3225C490.007 69.6215 485.386 65 479.685 65C473.984 65 469.362 69.6215 469.362 75.3225C469.362 81.0234 473.984 85.6449 479.685 85.6449Z" fill="#009020" fill-opacity="0.25"/>
<path d="M489.785 75.3225C489.785 80.9008 485.263 85.423 479.685 85.423C474.106 85.423 469.584 80.9008 469.584 75.3225C469.584 69.7441 474.106 65.2219 479.685 65.2219C485.263 65.2219 489.785 69.7441 489.785 75.3225Z" stroke="#009020" stroke-opacity="0.5" stroke-width="0.44386"/>
<g clip-path="url(#clip7_643_78673)">
<path fill-rule="evenodd" clip-rule="evenodd" d="M479.685 77.9845C481.155 77.9845 482.348 76.7922 482.348 75.3214C482.348 73.8505 481.155 72.6582 479.685 72.6582C478.214 72.6582 477.021 73.8505 477.021 75.3214C477.021 76.7922 478.214 77.9845 479.685 77.9845Z" fill="#009020"/>
<mask id="mask3_643_78673" style="mask-type:luminance" maskUnits="userSpaceOnUse" x="477" y="72" width="6" height="6">
<path fill-rule="evenodd" clip-rule="evenodd" d="M479.685 77.9845C481.155 77.9845 482.348 76.7922 482.348 75.3214C482.348 73.8505 481.155 72.6582 479.685 72.6582C478.214 72.6582 477.021 73.8505 477.021 75.3214C477.021 76.7922 478.214 77.9845 479.685 77.9845Z" fill="white"/>
</mask>
<g mask="url(#mask3_643_78673)">
</g>
</g>
</g>
<g clip-path="url(#clip8_643_78673)">
<path fill-rule="evenodd" clip-rule="evenodd" d="M426.685 228.645C432.386 228.645 437.007 224.023 437.007 218.322C437.007 212.622 432.386 208 426.685 208C420.984 208 416.362 212.622 416.362 218.322C416.362 224.023 420.984 228.645 426.685 228.645Z" fill="#009020" fill-opacity="0.25"/>
<path d="M436.785 218.322C436.785 223.901 432.263 228.423 426.685 228.423C421.106 228.423 416.584 223.901 416.584 218.322C416.584 212.744 421.106 208.222 426.685 208.222C432.263 208.222 436.785 212.744 436.785 218.322Z" stroke="#009020" stroke-opacity="0.5" stroke-width="0.44386"/>
<g clip-path="url(#clip9_643_78673)">
<path fill-rule="evenodd" clip-rule="evenodd" d="M426.685 220.985C428.155 220.985 429.348 219.792 429.348 218.321C429.348 216.851 428.155 215.658 426.685 215.658C425.214 215.658 424.021 216.851 424.021 218.321C424.021 219.792 425.214 220.985 426.685 220.985Z" fill="#009020"/>
<mask id="mask4_643_78673" style="mask-type:luminance" maskUnits="userSpaceOnUse" x="424" y="215" width="6" height="6">
<path fill-rule="evenodd" clip-rule="evenodd" d="M426.685 220.985C428.155 220.985 429.348 219.792 429.348 218.321C429.348 216.851 428.155 215.658 426.685 215.658C425.214 215.658 424.021 216.851 424.021 218.321C424.021 219.792 425.214 220.985 426.685 220.985Z" fill="white"/>
</mask>
<g mask="url(#mask4_643_78673)">
</g>
</g>
</g>
<g clip-path="url(#clip10_643_78673)">
<path fill-rule="evenodd" clip-rule="evenodd" d="M251.329 109.657C257.033 109.657 261.657 105.033 261.657 99.3285C261.657 93.6242 257.033 89 251.329 89C245.624 89 241 93.6242 241 99.3285C241 105.033 245.624 109.657 251.329 109.657Z" fill="#4B10AC" fill-opacity="0.25"/>
<path d="M261.435 99.3285C261.435 104.91 256.91 109.435 251.329 109.435C245.747 109.435 241.222 104.91 241.222 99.3285C241.222 93.7468 245.747 89.2219 251.329 89.2219C256.91 89.2219 261.435 93.7468 261.435 99.3285Z" stroke="#4B10AC" stroke-opacity="0.5" stroke-width="0.44386"/>
<g clip-path="url(#clip11_643_78673)">
<path fill-rule="evenodd" clip-rule="evenodd" d="M251.099 101.764C252.57 101.764 253.762 100.571 253.762 99.1007C253.762 97.6298 252.57 96.4375 251.099 96.4375C249.628 96.4375 248.436 97.6298 248.436 99.1007C248.436 100.571 249.628 101.764 251.099 101.764Z" fill="#4B10AC"/>
<mask id="mask5_643_78673" style="mask-type:luminance" maskUnits="userSpaceOnUse" x="248" y="96" width="6" height="6">
<path fill-rule="evenodd" clip-rule="evenodd" d="M251.099 101.764C252.57 101.764 253.762 100.571 253.762 99.1007C253.762 97.6298 252.57 96.4375 251.099 96.4375C249.628 96.4375 248.436 97.6298 248.436 99.1007C248.436 100.571 249.628 101.764 251.099 101.764Z" fill="white"/>
</mask>
<g mask="url(#mask5_643_78673)">
</g>
</g>
</g>
<g clip-path="url(#clip12_643_78673)">
<path fill-rule="evenodd" clip-rule="evenodd" d="M272.329 173.657C278.033 173.657 282.657 169.033 282.657 163.329C282.657 157.624 278.033 153 272.329 153C266.624 153 262 157.624 262 163.329C262 169.033 266.624 173.657 272.329 173.657Z" fill="#4B10AC" fill-opacity="0.25"/>
<path d="M282.435 163.329C282.435 168.91 277.91 173.435 272.329 173.435C266.747 173.435 262.222 168.91 262.222 163.329C262.222 157.747 266.747 153.222 272.329 153.222C277.91 153.222 282.435 157.747 282.435 163.329Z" stroke="#4B10AC" stroke-opacity="0.5" stroke-width="0.44386"/>
<g clip-path="url(#clip13_643_78673)">
<path fill-rule="evenodd" clip-rule="evenodd" d="M272.099 165.764C273.57 165.764 274.762 164.571 274.762 163.101C274.762 161.63 273.57 160.438 272.099 160.438C270.628 160.438 269.436 161.63 269.436 163.101C269.436 164.571 270.628 165.764 272.099 165.764Z" fill="#4B10AC"/>
<mask id="mask6_643_78673" style="mask-type:luminance" maskUnits="userSpaceOnUse" x="269" y="160" width="6" height="6">
<path fill-rule="evenodd" clip-rule="evenodd" d="M272.099 165.764C273.57 165.764 274.762 164.571 274.762 163.101C274.762 161.63 273.57 160.438 272.099 160.438C270.628 160.438 269.436 161.63 269.436 163.101C269.436 164.571 270.628 165.764 272.099 165.764Z" fill="white"/>
</mask>
<g mask="url(#mask6_643_78673)">
</g>
</g>
</g>
<g clip-path="url(#clip14_643_78673)">
<path fill-rule="evenodd" clip-rule="evenodd" d="M332.329 213.657C338.033 213.657 342.657 209.033 342.657 203.329C342.657 197.624 338.033 193 332.329 193C326.624 193 322 197.624 322 203.329C322 209.033 326.624 213.657 332.329 213.657Z" fill="#4B10AC" fill-opacity="0.25"/>
<path d="M342.435 203.329C342.435 208.91 337.91 213.435 332.329 213.435C326.747 213.435 322.222 208.91 322.222 203.329C322.222 197.747 326.747 193.222 332.329 193.222C337.91 193.222 342.435 197.747 342.435 203.329Z" stroke="#4B10AC" stroke-opacity="0.5" stroke-width="0.44386"/>
<g clip-path="url(#clip15_643_78673)">
<path fill-rule="evenodd" clip-rule="evenodd" d="M332.099 205.764C333.57 205.764 334.762 204.571 334.762 203.101C334.762 201.63 333.57 200.438 332.099 200.438C330.628 200.438 329.436 201.63 329.436 203.101C329.436 204.571 330.628 205.764 332.099 205.764Z" fill="#4B10AC"/>
<mask id="mask7_643_78673" style="mask-type:luminance" maskUnits="userSpaceOnUse" x="329" y="200" width="6" height="6">
<path fill-rule="evenodd" clip-rule="evenodd" d="M332.099 205.764C333.57 205.764 334.762 204.571 334.762 203.101C334.762 201.63 333.57 200.438 332.099 200.438C330.628 200.438 329.436 201.63 329.436 203.101C329.436 204.571 330.628 205.764 332.099 205.764Z" fill="white"/>
</mask>
<g mask="url(#mask7_643_78673)">
</g>
</g>
</g>
<g clip-path="url(#clip16_643_78673)">
<path fill-rule="evenodd" clip-rule="evenodd" d="M355.329 83.657C361.033 83.657 365.657 79.0328 365.657 73.3285C365.657 67.6242 361.033 63 355.329 63C349.624 63 345 67.6242 345 73.3285C345 79.0328 349.624 83.657 355.329 83.657Z" fill="#4B10AC" fill-opacity="0.25"/>
<path d="M365.435 73.3285C365.435 78.9102 360.91 83.4351 355.329 83.4351C349.747 83.4351 345.222 78.9102 345.222 73.3285C345.222 67.7468 349.747 63.2219 355.329 63.2219C360.91 63.2219 365.435 67.7468 365.435 73.3285Z" stroke="#4B10AC" stroke-opacity="0.5" stroke-width="0.44386"/>
<g clip-path="url(#clip17_643_78673)">
<path fill-rule="evenodd" clip-rule="evenodd" d="M355.099 75.7638C356.57 75.7638 357.762 74.5715 357.762 73.1007C357.762 71.6298 356.57 70.4375 355.099 70.4375C353.628 70.4375 352.436 71.6298 352.436 73.1007C352.436 74.5715 353.628 75.7638 355.099 75.7638Z" fill="#4B10AC"/>
<mask id="mask8_643_78673" style="mask-type:luminance" maskUnits="userSpaceOnUse" x="352" y="70" width="6" height="6">
<path fill-rule="evenodd" clip-rule="evenodd" d="M355.099 75.7638C356.57 75.7638 357.762 74.5715 357.762 73.1007C357.762 71.6298 356.57 70.4375 355.099 70.4375C353.628 70.4375 352.436 71.6298 352.436 73.1007C352.436 74.5715 353.628 75.7638 355.099 75.7638Z" fill="white"/>
</mask>
<g mask="url(#mask8_643_78673)">
</g>
</g>
</g>
<g clip-path="url(#clip18_643_78673)">
<path fill-rule="evenodd" clip-rule="evenodd" d="M315.329 20.657C321.033 20.657 325.657 16.0328 325.657 10.3285C325.657 4.62423 321.033 0 315.329 0C309.624 0 305 4.62423 305 10.3285C305 16.0328 309.624 20.657 315.329 20.657Z" fill="#4B10AC" fill-opacity="0.25"/>
<path d="M325.435 10.3285C325.435 15.9102 320.91 20.4351 315.329 20.4351C309.747 20.4351 305.222 15.9102 305.222 10.3285C305.222 4.7468 309.747 0.22193 315.329 0.22193C320.91 0.22193 325.435 4.7468 325.435 10.3285Z" stroke="#4B10AC" stroke-opacity="0.5" stroke-width="0.44386"/>
<g clip-path="url(#clip19_643_78673)">
<path fill-rule="evenodd" clip-rule="evenodd" d="M315.099 12.7638C316.57 12.7638 317.762 11.5715 317.762 10.1007C317.762 8.62984 316.57 7.4375 315.099 7.4375C313.628 7.4375 312.436 8.62984 312.436 10.1007C312.436 11.5715 313.628 12.7638 315.099 12.7638Z" fill="#4B10AC"/>
<mask id="mask9_643_78673" style="mask-type:luminance" maskUnits="userSpaceOnUse" x="312" y="7" width="6" height="6">
<path fill-rule="evenodd" clip-rule="evenodd" d="M315.099 12.7638C316.57 12.7638 317.762 11.5715 317.762 10.1007C317.762 8.62984 316.57 7.4375 315.099 7.4375C313.628 7.4375 312.436 8.62984 312.436 10.1007C312.436 11.5715 313.628 12.7638 315.099 12.7638Z" fill="white"/>
</mask>
<g mask="url(#mask9_643_78673)">
</g>
</g>
</g>
<g clip-path="url(#clip20_643_78673)">
<path fill-rule="evenodd" clip-rule="evenodd" d="M431.01 113.657C436.714 113.657 441.338 109.033 441.338 103.329C441.338 97.6242 436.714 93 431.01 93C425.305 93 420.681 97.6242 420.681 103.329C420.681 109.033 425.305 113.657 431.01 113.657Z" fill="#FC306D" fill-opacity="0.25"/>
<path d="M440.838 103.329C440.838 108.757 436.438 113.157 431.01 113.157C425.582 113.157 421.181 108.757 421.181 103.329C421.181 97.9004 425.582 93.5 431.01 93.5C436.438 93.5 440.838 97.9004 440.838 103.329Z" stroke="#FC306D" stroke-opacity="0.5"/>
<g clip-path="url(#clip21_643_78673)">
<path fill-rule="evenodd" clip-rule="evenodd" d="M430.78 105.764C432.251 105.764 433.443 104.571 433.443 103.101C433.443 101.63 432.251 100.438 430.78 100.438C429.309 100.438 428.117 101.63 428.117 103.101C428.117 104.571 429.309 105.764 430.78 105.764Z" fill="#FC306D"/>
<mask id="mask10_643_78673" style="mask-type:luminance" maskUnits="userSpaceOnUse" x="428" y="100" width="6" height="6">
<path fill-rule="evenodd" clip-rule="evenodd" d="M430.78 105.764C432.251 105.764 433.443 104.571 433.443 103.101C433.443 101.63 432.251 100.438 430.78 100.438C429.309 100.438 428.117 101.63 428.117 103.101C428.117 104.571 429.309 105.764 430.78 105.764Z" fill="white"/>
</mask>
<g mask="url(#mask10_643_78673)">
</g>
</g>
</g>
<g clip-path="url(#clip22_643_78673)">
<path fill-rule="evenodd" clip-rule="evenodd" d="M431.01 33.657C436.714 33.657 441.338 29.0328 441.338 23.3285C441.338 17.6242 436.714 13 431.01 13C425.305 13 420.681 17.6242 420.681 23.3285C420.681 29.0328 425.305 33.657 431.01 33.657Z" fill="#FC306D" fill-opacity="0.25"/>
<path d="M440.838 23.3285C440.838 28.7566 436.438 33.157 431.01 33.157C425.582 33.157 421.181 28.7566 421.181 23.3285C421.181 17.9004 425.582 13.5 431.01 13.5C436.438 13.5 440.838 17.9004 440.838 23.3285Z" stroke="#FC306D" stroke-opacity="0.5"/>
<g clip-path="url(#clip23_643_78673)">
<path fill-rule="evenodd" clip-rule="evenodd" d="M430.78 25.7638C432.251 25.7638 433.443 24.5715 433.443 23.1007C433.443 21.6298 432.251 20.4375 430.78 20.4375C429.309 20.4375 428.117 21.6298 428.117 23.1007C428.117 24.5715 429.309 25.7638 430.78 25.7638Z" fill="#FC306D"/>
<mask id="mask11_643_78673" style="mask-type:luminance" maskUnits="userSpaceOnUse" x="428" y="20" width="6" height="6">
<path fill-rule="evenodd" clip-rule="evenodd" d="M430.78 25.7638C432.251 25.7638 433.443 24.5715 433.443 23.1007C433.443 21.6298 432.251 20.4375 430.78 20.4375C429.309 20.4375 428.117 21.6298 428.117 23.1007C428.117 24.5715 429.309 25.7638 430.78 25.7638Z" fill="white"/>
</mask>
<g mask="url(#mask11_643_78673)">
</g>
</g>
</g>
<g clip-path="url(#clip24_643_78673)">
<path fill-rule="evenodd" clip-rule="evenodd" d="M259.01 22.657C264.714 22.657 269.338 18.0328 269.338 12.3285C269.338 6.62423 264.714 2 259.01 2C253.305 2 248.681 6.62423 248.681 12.3285C248.681 18.0328 253.305 22.657 259.01 22.657Z" fill="#FC306D" fill-opacity="0.25"/>
<path d="M268.838 12.3285C268.838 17.7566 264.438 22.157 259.01 22.157C253.582 22.157 249.181 17.7566 249.181 12.3285C249.181 6.90037 253.582 2.5 259.01 2.5C264.438 2.5 268.838 6.90037 268.838 12.3285Z" stroke="#FC306D" stroke-opacity="0.5"/>
<g clip-path="url(#clip25_643_78673)">
<path fill-rule="evenodd" clip-rule="evenodd" d="M258.78 14.7638C260.251 14.7638 261.443 13.5715 261.443 12.1007C261.443 10.6298 260.251 9.4375 258.78 9.4375C257.309 9.4375 256.117 10.6298 256.117 12.1007C256.117 13.5715 257.309 14.7638 258.78 14.7638Z" fill="#FC306D"/>
<mask id="mask12_643_78673" style="mask-type:luminance" maskUnits="userSpaceOnUse" x="256" y="9" width="6" height="6">
<path fill-rule="evenodd" clip-rule="evenodd" d="M258.78 14.7638C260.251 14.7638 261.443 13.5715 261.443 12.1007C261.443 10.6298 260.251 9.4375 258.78 9.4375C257.309 9.4375 256.117 10.6298 256.117 12.1007C256.117 13.5715 257.309 14.7638 258.78 14.7638Z" fill="white"/>
</mask>
<g mask="url(#mask12_643_78673)">
</g>
</g>
</g>
<g clip-path="url(#clip26_643_78673)">
<path fill-rule="evenodd" clip-rule="evenodd" d="M331.01 143.657C336.714 143.657 341.338 139.033 341.338 133.329C341.338 127.624 336.714 123 331.01 123C325.305 123 320.681 127.624 320.681 133.329C320.681 139.033 325.305 143.657 331.01 143.657Z" fill="#FC306D" fill-opacity="0.25"/>
<path d="M340.838 133.329C340.838 138.757 336.438 143.157 331.01 143.157C325.582 143.157 321.181 138.757 321.181 133.329C321.181 127.9 325.582 123.5 331.01 123.5C336.438 123.5 340.838 127.9 340.838 133.329Z" stroke="#FC306D" stroke-opacity="0.5"/>
<g clip-path="url(#clip27_643_78673)">
<path fill-rule="evenodd" clip-rule="evenodd" d="M330.78 135.764C332.251 135.764 333.443 134.571 333.443 133.101C333.443 131.63 332.251 130.438 330.78 130.438C329.309 130.438 328.117 131.63 328.117 133.101C328.117 134.571 329.309 135.764 330.78 135.764Z" fill="#FC306D"/>
<mask id="mask13_643_78673" style="mask-type:luminance" maskUnits="userSpaceOnUse" x="328" y="130" width="6" height="6">
<path fill-rule="evenodd" clip-rule="evenodd" d="M330.78 135.764C332.251 135.764 333.443 134.571 333.443 133.101C333.443 131.63 332.251 130.438 330.78 130.438C329.309 130.438 328.117 131.63 328.117 133.101C328.117 134.571 329.309 135.764 330.78 135.764Z" fill="white"/>
</mask>
<g mask="url(#mask13_643_78673)">
</g>
</g>
</g>
<g clip-path="url(#clip28_643_78673)">
<path fill-rule="evenodd" clip-rule="evenodd" d="M168.01 141.657C173.714 141.657 178.338 137.033 178.338 131.329C178.338 125.624 173.714 121 168.01 121C162.305 121 157.681 125.624 157.681 131.329C157.681 137.033 162.305 141.657 168.01 141.657Z" fill="#FC306D" fill-opacity="0.25"/>
<path d="M177.838 131.329C177.838 136.757 173.438 141.157 168.01 141.157C162.582 141.157 158.181 136.757 158.181 131.329C158.181 125.9 162.582 121.5 168.01 121.5C173.438 121.5 177.838 125.9 177.838 131.329Z" stroke="#FC306D" stroke-opacity="0.5"/>
<g clip-path="url(#clip29_643_78673)">
<path fill-rule="evenodd" clip-rule="evenodd" d="M167.78 133.764C169.251 133.764 170.443 132.571 170.443 131.101C170.443 129.63 169.251 128.438 167.78 128.438C166.309 128.438 165.117 129.63 165.117 131.101C165.117 132.571 166.309 133.764 167.78 133.764Z" fill="#FC306D"/>
<mask id="mask14_643_78673" style="mask-type:luminance" maskUnits="userSpaceOnUse" x="165" y="128" width="6" height="6">
<path fill-rule="evenodd" clip-rule="evenodd" d="M167.78 133.764C169.251 133.764 170.443 132.571 170.443 131.101C170.443 129.63 169.251 128.438 167.78 128.438C166.309 128.438 165.117 129.63 165.117 131.101C165.117 132.571 166.309 133.764 167.78 133.764Z" fill="white"/>
</mask>
<g mask="url(#mask14_643_78673)">
</g>
</g>
</g>
<g clip-path="url(#clip30_643_78673)">
<path fill-rule="evenodd" clip-rule="evenodd" d="M38.0097 161.657C43.7139 161.657 48.3382 157.033 48.3382 151.329C48.3382 145.624 43.7139 141 38.0097 141C32.3054 141 27.6812 145.624 27.6812 151.329C27.6812 157.033 32.3054 161.657 38.0097 161.657Z" fill="#FC306D" fill-opacity="0.25"/>
<path d="M47.8382 151.329C47.8382 156.757 43.4378 161.157 38.0097 161.157C32.5815 161.157 28.1812 156.757 28.1812 151.329C28.1812 145.9 32.5815 141.5 38.0097 141.5C43.4378 141.5 47.8382 145.9 47.8382 151.329Z" stroke="#FC306D" stroke-opacity="0.5"/>
<g clip-path="url(#clip31_643_78673)">
<path fill-rule="evenodd" clip-rule="evenodd" d="M37.7799 153.764C39.2507 153.764 40.443 152.571 40.443 151.101C40.443 149.63 39.2507 148.438 37.7799 148.438C36.309 148.438 35.1167 149.63 35.1167 151.101C35.1167 152.571 36.309 153.764 37.7799 153.764Z" fill="#FC306D"/>
<mask id="mask15_643_78673" style="mask-type:luminance" maskUnits="userSpaceOnUse" x="35" y="148" width="6" height="6">
<path fill-rule="evenodd" clip-rule="evenodd" d="M37.7799 153.764C39.2507 153.764 40.443 152.571 40.443 151.101C40.443 149.63 39.2507 148.438 37.7799 148.438C36.309 148.438 35.1167 149.63 35.1167 151.101C35.1167 152.571 36.309 153.764 37.7799 153.764Z" fill="white"/>
</mask>
<g mask="url(#mask15_643_78673)">
</g>
</g>
</g>
<g clip-path="url(#clip32_643_78673)">
<path fill-rule="evenodd" clip-rule="evenodd" d="M10.3285 113.657C16.0328 113.657 20.657 109.033 20.657 103.329C20.657 97.6242 16.0328 93 10.3285 93C4.62423 93 0 97.6242 0 103.329C0 109.033 4.62423 113.657 10.3285 113.657Z" fill="#4B10AC" fill-opacity="0.25"/>
<path d="M20.4351 103.329C20.4351 108.91 15.9102 113.435 10.3285 113.435C4.7468 113.435 0.22193 108.91 0.22193 103.329C0.22193 97.7468 4.7468 93.2219 10.3285 93.2219C15.9102 93.2219 20.4351 97.7468 20.4351 103.329Z" stroke="#4B10AC" stroke-opacity="0.5" stroke-width="0.44386"/>
<g clip-path="url(#clip33_643_78673)">
<path fill-rule="evenodd" clip-rule="evenodd" d="M10.0987 105.764C11.5695 105.764 12.7619 104.571 12.7619 103.101C12.7619 101.63 11.5695 100.438 10.0987 100.438C8.62788 100.438 7.43555 101.63 7.43555 103.101C7.43555 104.571 8.62788 105.764 10.0987 105.764Z" fill="#4B10AC"/>
<mask id="mask16_643_78673" style="mask-type:luminance" maskUnits="userSpaceOnUse" x="7" y="100" width="6" height="6">
<path fill-rule="evenodd" clip-rule="evenodd" d="M10.0987 105.764C11.5695 105.764 12.7619 104.571 12.7619 103.101C12.7619 101.63 11.5695 100.438 10.0987 100.438C8.62788 100.438 7.43555 101.63 7.43555 103.101C7.43555 104.571 8.62788 105.764 10.0987 105.764Z" fill="white"/>
</mask>
<g mask="url(#mask16_643_78673)">
</g>
</g>
</g>
<g clip-path="url(#clip34_643_78673)">
<path fill-rule="evenodd" clip-rule="evenodd" d="M50.3285 73.657C56.0328 73.657 60.657 69.0328 60.657 63.3285C60.657 57.6242 56.0328 53 50.3285 53C44.6242 53 40 57.6242 40 63.3285C40 69.0328 44.6242 73.657 50.3285 73.657Z" fill="#4B10AC" fill-opacity="0.25"/>
<path d="M60.4351 63.3285C60.4351 68.9102 55.9102 73.4351 50.3285 73.4351C44.7468 73.4351 40.2219 68.9102 40.2219 63.3285C40.2219 57.7468 44.7468 53.2219 50.3285 53.2219C55.9102 53.2219 60.4351 57.7468 60.4351 63.3285Z" stroke="#4B10AC" stroke-opacity="0.5" stroke-width="0.44386"/>
<g clip-path="url(#clip35_643_78673)">
<path fill-rule="evenodd" clip-rule="evenodd" d="M50.0987 65.7638C51.5695 65.7638 52.7619 64.5715 52.7619 63.1007C52.7619 61.6298 51.5695 60.4375 50.0987 60.4375C48.6279 60.4375 47.4355 61.6298 47.4355 63.1007C47.4355 64.5715 48.6279 65.7638 50.0987 65.7638Z" fill="#4B10AC"/>
<mask id="mask17_643_78673" style="mask-type:luminance" maskUnits="userSpaceOnUse" x="47" y="60" width="6" height="6">
<path fill-rule="evenodd" clip-rule="evenodd" d="M50.0987 65.7638C51.5695 65.7638 52.7619 64.5715 52.7619 63.1007C52.7619 61.6298 51.5695 60.4375 50.0987 60.4375C48.6279 60.4375 47.4355 61.6298 47.4355 63.1007C47.4355 64.5715 48.6279 65.7638 50.0987 65.7638Z" fill="white"/>
</mask>
<g mask="url(#mask17_643_78673)">
</g>
</g>
</g>
<g clip-path="url(#clip36_643_78673)">
<path fill-rule="evenodd" clip-rule="evenodd" d="M28.3285 203.657C34.0328 203.657 38.657 199.033 38.657 193.329C38.657 187.624 34.0328 183 28.3285 183C22.6242 183 18 187.624 18 193.329C18 199.033 22.6242 203.657 28.3285 203.657Z" fill="#4B10AC" fill-opacity="0.25"/>
<path d="M38.4351 193.329C38.4351 198.91 33.9102 203.435 28.3285 203.435C22.7468 203.435 18.2219 198.91 18.2219 193.329C18.2219 187.747 22.7468 183.222 28.3285 183.222C33.9102 183.222 38.4351 187.747 38.4351 193.329Z" stroke="#4B10AC" stroke-opacity="0.5" stroke-width="0.44386"/>
<g clip-path="url(#clip37_643_78673)">
<path fill-rule="evenodd" clip-rule="evenodd" d="M28.0987 195.764C29.5695 195.764 30.7619 194.571 30.7619 193.101C30.7619 191.63 29.5695 190.438 28.0987 190.438C26.6279 190.438 25.4355 191.63 25.4355 193.101C25.4355 194.571 26.6279 195.764 28.0987 195.764Z" fill="#4B10AC"/>
<mask id="mask18_643_78673" style="mask-type:luminance" maskUnits="userSpaceOnUse" x="25" y="190" width="6" height="6">
<path fill-rule="evenodd" clip-rule="evenodd" d="M28.0987 195.764C29.5695 195.764 30.7619 194.571 30.7619 193.101C30.7619 191.63 29.5695 190.438 28.0987 190.438C26.6279 190.438 25.4355 191.63 25.4355 193.101C25.4355 194.571 26.6279 195.764 28.0987 195.764Z" fill="white"/>
</mask>
<g mask="url(#mask18_643_78673)">
</g>
</g>
</g>
<g clip-path="url(#clip38_643_78673)">
<path fill-rule="evenodd" clip-rule="evenodd" d="M79.6848 178.645C85.3857 178.645 90.0072 174.023 90.0072 168.322C90.0072 162.622 85.3857 158 79.6848 158C73.9838 158 69.3623 162.622 69.3623 168.322C69.3623 174.023 73.9838 178.645 79.6848 178.645Z" fill="#009020" fill-opacity="0.25"/>
<path d="M89.7853 168.322C89.7853 173.901 85.2631 178.423 79.6848 178.423C74.1064 178.423 69.5842 173.901 69.5842 168.322C69.5842 162.744 74.1064 158.222 79.6848 158.222C85.2631 158.222 89.7853 162.744 89.7853 168.322Z" stroke="#009020" stroke-opacity="0.5" stroke-width="0.44386"/>
<g clip-path="url(#clip39_643_78673)">
<path fill-rule="evenodd" clip-rule="evenodd" d="M79.6846 170.985C81.1555 170.985 82.3478 169.792 82.3478 168.321C82.3478 166.851 81.1555 165.658 79.6846 165.658C78.2138 165.658 77.0215 166.851 77.0215 168.321C77.0215 169.792 78.2138 170.985 79.6846 170.985Z" fill="#009020"/>
<mask id="mask19_643_78673" style="mask-type:luminance" maskUnits="userSpaceOnUse" x="77" y="165" width="6" height="6">
<path fill-rule="evenodd" clip-rule="evenodd" d="M79.6846 170.985C81.1555 170.985 82.3478 169.792 82.3478 168.321C82.3478 166.851 81.1555 165.658 79.6846 165.658C78.2138 165.658 77.0215 166.851 77.0215 168.321C77.0215 169.792 78.2138 170.985 79.6846 170.985Z" fill="white"/>
</mask>
<g mask="url(#mask19_643_78673)">
</g>
</g>
</g>
<g clip-path="url(#clip40_643_78673)">
<path fill-rule="evenodd" clip-rule="evenodd" d="M49.6848 38.6449C55.3857 38.6449 60.0072 34.0234 60.0072 28.3225C60.0072 22.6215 55.3857 18 49.6848 18C43.9838 18 39.3623 22.6215 39.3623 28.3225C39.3623 34.0234 43.9838 38.6449 49.6848 38.6449Z" fill="#009020" fill-opacity="0.25"/>
<path d="M59.7853 28.3225C59.7853 33.9008 55.2631 38.423 49.6848 38.423C44.1064 38.423 39.5842 33.9008 39.5842 28.3225C39.5842 22.7441 44.1064 18.2219 49.6848 18.2219C55.2631 18.2219 59.7853 22.7441 59.7853 28.3225Z" stroke="#009020" stroke-opacity="0.5" stroke-width="0.44386"/>
<g clip-path="url(#clip41_643_78673)">
<path fill-rule="evenodd" clip-rule="evenodd" d="M49.6846 30.9845C51.1555 30.9845 52.3478 29.7922 52.3478 28.3214C52.3478 26.8505 51.1555 25.6582 49.6846 25.6582C48.2138 25.6582 47.0215 26.8505 47.0215 28.3214C47.0215 29.7922 48.2138 30.9845 49.6846 30.9845Z" fill="#009020"/>
<mask id="mask20_643_78673" style="mask-type:luminance" maskUnits="userSpaceOnUse" x="47" y="25" width="6" height="6">
<path fill-rule="evenodd" clip-rule="evenodd" d="M49.6846 30.9845C51.1555 30.9845 52.3478 29.7922 52.3478 28.3214C52.3478 26.8505 51.1555 25.6582 49.6846 25.6582C48.2138 25.6582 47.0215 26.8505 47.0215 28.3214C47.0215 29.7922 48.2138 30.9845 49.6846 30.9845Z" fill="white"/>
</mask>
<g mask="url(#mask20_643_78673)">
</g>
</g>
</g>
<g clip-path="url(#clip42_643_78673)">
<path fill-rule="evenodd" clip-rule="evenodd" d="M91.6848 104.645C97.3857 104.645 102.007 100.023 102.007 94.3225C102.007 88.6215 97.3857 84 91.6848 84C85.9838 84 81.3623 88.6215 81.3623 94.3225C81.3623 100.023 85.9838 104.645 91.6848 104.645Z" fill="#009020" fill-opacity="0.25"/>
<path d="M101.785 94.3225C101.785 99.9008 97.2631 104.423 91.6848 104.423C86.1064 104.423 81.5842 99.9008 81.5842 94.3225C81.5842 88.7441 86.1064 84.2219 91.6848 84.2219C97.2631 84.2219 101.785 88.7441 101.785 94.3225Z" stroke="#009020" stroke-opacity="0.5" stroke-width="0.44386"/>
<g clip-path="url(#clip43_643_78673)">
<path fill-rule="evenodd" clip-rule="evenodd" d="M91.6846 96.9845C93.1555 96.9845 94.3478 95.7922 94.3478 94.3214C94.3478 92.8505 93.1555 91.6582 91.6846 91.6582C90.2138 91.6582 89.0215 92.8505 89.0215 94.3214C89.0215 95.7922 90.2138 96.9845 91.6846 96.9845Z" fill="#009020"/>
<mask id="mask21_643_78673" style="mask-type:luminance" maskUnits="userSpaceOnUse" x="89" y="91" width="6" height="6">
<path fill-rule="evenodd" clip-rule="evenodd" d="M91.6846 96.9845C93.1555 96.9845 94.3478 95.7922 94.3478 94.3214C94.3478 92.8505 93.1555 91.6582 91.6846 91.6582C90.2138 91.6582 89.0215 92.8505 89.0215 94.3214C89.0215 95.7922 90.2138 96.9845 91.6846 96.9845Z" fill="white"/>
</mask>
<g mask="url(#mask21_643_78673)">
</g>
</g>
</g>
<defs>
<clipPath id="clip0_643_78673">
<rect width="20.657" height="20.657" fill="white" transform="translate(142.681 63)"/>
</clipPath>
<clipPath id="clip1_643_78673">
<rect width="5.32632" height="5.32632" fill="white" transform="translate(150.117 70.4375)"/>
</clipPath>
<clipPath id="clip2_643_78673">
<rect width="20.6449" height="20.6449" fill="white" transform="translate(270.362 43)"/>
</clipPath>
<clipPath id="clip3_643_78673">
<rect width="5.32632" height="5.32632" fill="white" transform="translate(278.021 50.6582)"/>
</clipPath>
<clipPath id="clip4_643_78673">
<rect width="20.6449" height="20.6449" fill="white" transform="translate(364.362 156)"/>
</clipPath>
<clipPath id="clip5_643_78673">
<rect width="5.32632" height="5.32632" fill="white" transform="translate(372.021 163.658)"/>
</clipPath>
<clipPath id="clip6_643_78673">
<rect width="20.6449" height="20.6449" fill="white" transform="translate(469.362 65)"/>
</clipPath>
<clipPath id="clip7_643_78673">
<rect width="5.32632" height="5.32632" fill="white" transform="translate(477.021 72.6582)"/>
</clipPath>
<clipPath id="clip8_643_78673">
<rect width="20.6449" height="20.6449" fill="white" transform="translate(416.362 208)"/>
</clipPath>
<clipPath id="clip9_643_78673">
<rect width="5.32632" height="5.32632" fill="white" transform="translate(424.021 215.658)"/>
</clipPath>
<clipPath id="clip10_643_78673">
<rect width="20.657" height="20.657" fill="white" transform="translate(241 89)"/>
</clipPath>
<clipPath id="clip11_643_78673">
<rect width="5.32632" height="5.32632" fill="white" transform="translate(248.436 96.4375)"/>
</clipPath>
<clipPath id="clip12_643_78673">
<rect width="20.657" height="20.657" fill="white" transform="translate(262 153)"/>
</clipPath>
<clipPath id="clip13_643_78673">
<rect width="5.32632" height="5.32632" fill="white" transform="translate(269.436 160.438)"/>
</clipPath>
<clipPath id="clip14_643_78673">
<rect width="20.657" height="20.657" fill="white" transform="translate(322 193)"/>
</clipPath>
<clipPath id="clip15_643_78673">
<rect width="5.32632" height="5.32632" fill="white" transform="translate(329.436 200.438)"/>
</clipPath>
<clipPath id="clip16_643_78673">
<rect width="20.657" height="20.657" fill="white" transform="translate(345 63)"/>
</clipPath>
<clipPath id="clip17_643_78673">
<rect width="5.32632" height="5.32632" fill="white" transform="translate(352.436 70.4375)"/>
</clipPath>
<clipPath id="clip18_643_78673">
<rect width="20.657" height="20.657" fill="white" transform="translate(305)"/>
</clipPath>
<clipPath id="clip19_643_78673">
<rect width="5.32632" height="5.32632" fill="white" transform="translate(312.436 7.4375)"/>
</clipPath>
<clipPath id="clip20_643_78673">
<rect width="20.657" height="20.657" fill="white" transform="translate(420.681 93)"/>
</clipPath>
<clipPath id="clip21_643_78673">
<rect width="5.32632" height="5.32632" fill="white" transform="translate(428.117 100.438)"/>
</clipPath>
<clipPath id="clip22_643_78673">
<rect width="20.657" height="20.657" fill="white" transform="translate(420.681 13)"/>
</clipPath>
<clipPath id="clip23_643_78673">
<rect width="5.32632" height="5.32632" fill="white" transform="translate(428.117 20.4375)"/>
</clipPath>
<clipPath id="clip24_643_78673">
<rect width="20.657" height="20.657" fill="white" transform="translate(248.681 2)"/>
</clipPath>
<clipPath id="clip25_643_78673">
<rect width="5.32632" height="5.32632" fill="white" transform="translate(256.117 9.4375)"/>
</clipPath>
<clipPath id="clip26_643_78673">
<rect width="20.657" height="20.657" fill="white" transform="translate(320.681 123)"/>
</clipPath>
<clipPath id="clip27_643_78673">
<rect width="5.32632" height="5.32632" fill="white" transform="translate(328.117 130.438)"/>
</clipPath>
<clipPath id="clip28_643_78673">
<rect width="20.657" height="20.657" fill="white" transform="translate(157.681 121)"/>
</clipPath>
<clipPath id="clip29_643_78673">
<rect width="5.32632" height="5.32632" fill="white" transform="translate(165.117 128.438)"/>
</clipPath>
<clipPath id="clip30_643_78673">
<rect width="20.657" height="20.657" fill="white" transform="translate(27.6812 141)"/>
</clipPath>
<clipPath id="clip31_643_78673">
<rect width="5.32632" height="5.32632" fill="white" transform="translate(35.1167 148.438)"/>
</clipPath>
<clipPath id="clip32_643_78673">
<rect width="20.657" height="20.657" fill="white" transform="translate(0 93)"/>
</clipPath>
<clipPath id="clip33_643_78673">
<rect width="5.32632" height="5.32632" fill="white" transform="translate(7.43555 100.438)"/>
</clipPath>
<clipPath id="clip34_643_78673">
<rect width="20.657" height="20.657" fill="white" transform="translate(40 53)"/>
</clipPath>
<clipPath id="clip35_643_78673">
<rect width="5.32632" height="5.32632" fill="white" transform="translate(47.4355 60.4375)"/>
</clipPath>
<clipPath id="clip36_643_78673">
<rect width="20.657" height="20.657" fill="white" transform="translate(18 183)"/>
</clipPath>
<clipPath id="clip37_643_78673">
<rect width="5.32632" height="5.32632" fill="white" transform="translate(25.4355 190.438)"/>
</clipPath>
<clipPath id="clip38_643_78673">
<rect width="20.6449" height="20.6449" fill="white" transform="translate(69.3623 158)"/>
</clipPath>
<clipPath id="clip39_643_78673">
<rect width="5.32632" height="5.32632" fill="white" transform="translate(77.0215 165.658)"/>
</clipPath>
<clipPath id="clip40_643_78673">
<rect width="20.6449" height="20.6449" fill="white" transform="translate(39.3623 18)"/>
</clipPath>
<clipPath id="clip41_643_78673">
<rect width="5.32632" height="5.32632" fill="white" transform="translate(47.0215 25.6582)"/>
</clipPath>
<clipPath id="clip42_643_78673">
<rect width="20.6449" height="20.6449" fill="white" transform="translate(81.3623 84)"/>
</clipPath>
<clipPath id="clip43_643_78673">
<rect width="5.32632" height="5.32632" fill="white" transform="translate(89.0215 91.6582)"/>
</clipPath>
</defs>
</svg>
