<svg width="10" height="6" viewBox="0 0 10 6" fill="none" xmlns="http://www.w3.org/2000/svg">
<path d="M9.83309 3.39499C9.32486 3.76948 8.77651 4.09046 8.18803 4.34458C7.89379 4.46495 7.59955 4.58532 7.29194 4.66557C6.55635 4.87956 5.76725 4.99993 4.96479 4.99993C4.16232 4.99993 3.39998 4.87956 2.66438 4.66557C2.35677 4.57194 2.06253 4.46495 1.78167 4.34458C1.17982 4.09046 0.618092 3.76948 0.109863 3.38162L0.149987 2.28491L0.176736 1.58944V1.56269L2.42364 0.827099L2.79813 0.693355L2.87837 0.666605L2.98537 0.626483L3.02549 0.613108L3.09237 0.586359L3.46685 0.385742H6.43598L6.51622 0.425866L6.89071 0.599733L6.91746 0.613108L6.97095 0.639857L7.07795 0.679981L7.1582 0.706729L7.53268 0.840474L9.80634 1.57607L9.81971 2.25817V2.28491L9.83309 3.39499Z" fill="#2E2E2E" stroke="#2E2E2E" stroke-width="0.0715533" stroke-miterlimit="10" stroke-linecap="round" stroke-linejoin="round"/>
<path d="M6.50289 0.345788L6.87738 0.626651L7.05125 0.693523C6.9175 1.73673 6.03479 2.5392 4.96483 2.5392C3.89488 2.5392 3.01216 1.73673 2.87842 0.706897L3.05229 0.640025L3.48027 0.305664" fill="#2E2E2E"/>
<path d="M6.50289 0.345788L6.87738 0.626651L7.05125 0.693523C6.9175 1.73673 6.03479 2.5392 4.96483 2.5392C3.89488 2.5392 3.01216 1.73673 2.87842 0.706897L3.05229 0.640025L3.48027 0.305664" stroke="#2E2E2E" stroke-width="0.0715533" stroke-miterlimit="10" stroke-linecap="round" stroke-linejoin="round"/>
</svg>
