<svg width="17" height="17" viewBox="0 0 17 17" fill="none" xmlns="http://www.w3.org/2000/svg">
<path d="M10.7169 0.974666C11.3838 1.58827 11.5439 2.60206 11.0904 3.37574C10.6368 4.12274 9.62304 4.54959 8.74265 4.30949C9.00943 4.70966 8.79601 5.34995 8.50254 5.75013C8.20908 6.15031 7.64883 6.33706 7.16861 6.23034C7.59547 7.53759 6.74176 9.05827 5.48786 9.75191C5.83469 10.3922 5.64794 11.4327 5.30111 12.0729C4.95429 12.7132 4.26065 13.1668 3.51365 13.2735C4.02054 13.8337 4.18062 14.7141 3.91383 15.4078C3.64704 16.1014 2.98008 16.635 2.23308 16.7417C1.61947 16.8484 0.685725 16.6883 0.392261 16.1548C0.125475 15.6212 0.285547 14.9009 0.792439 14.5274C0.498975 13.9404 0.338904 13.4069 0.285547 12.7666C0.23219 11.9662 0.392261 11.1659 0.872475 10.4989C1.32601 9.83195 2.09969 9.35173 2.92672 9.29837C2.2064 8.28459 2.04633 7.08405 2.55322 5.96356C3.08679 4.84306 4.23397 4.01602 5.48786 3.82927C5.48786 3.13563 5.75465 2.44199 6.3149 2.01513C6.87515 1.56159 7.67551 1.40152 8.39583 1.53492C8.58258 1.10806 9.24954 0.867952 9.70308 0.787917C10.1833 0.707881 10.6902 0.894631 10.9836 1.24145L10.7169 0.974666Z" fill="#2E2E2E"/>
<path d="M11.277 1.29466C10.7968 2.14837 10.8235 3.24219 11.357 4.06923C11.8906 4.89626 12.8777 5.37648 13.8381 5.29644C13.3846 5.80334 13.4646 6.63037 13.8915 7.16394C14.3184 7.69751 15.1187 7.85758 15.7056 7.53744C15.4122 7.77755 15.092 8.17773 15.0654 8.57791C15.0387 8.97808 15.2521 9.40494 15.6256 9.51166C15.9991 9.61837 16.4793 9.35158 16.4793 8.95141C16.4793 7.83091 17.173 6.79044 16.7995 5.74998C16.426 4.70952 15.5989 3.82912 14.5585 3.42894C14.185 1.9883 12.7443 1.26798 11.277 1.29466Z" fill="#2E2E2E"/>
</svg>
