<svg width="18" height="18" viewBox="0 0 18 18" fill="none" xmlns="http://www.w3.org/2000/svg">
<path d="M15.1319 -1.90735e-06C16.7156 -1.90735e-06 18 1.28409 18 2.86835V15.1319C18 16.7156 16.7156 18 15.1319 18H2.86835C1.28436 18 0 16.7156 0 15.1319V2.86835C0 1.28409 1.28436 -1.90735e-06 2.86835 -1.90735e-06H15.1319Z" fill="#FFFC00"/>
<path d="M9.06613 15.1813C9.03207 15.1813 8.99881 15.1802 8.96528 15.1786C8.94389 15.1805 8.92172 15.1813 8.89954 15.1813C8.11837 15.1813 7.61703 14.827 7.13207 14.4841C6.79732 14.2475 6.48131 14.0242 6.10907 13.9621C5.92744 13.932 5.7466 13.917 5.5721 13.917C5.25714 13.917 5.00898 13.9656 4.82762 14.0009C4.71753 14.0226 4.62249 14.0411 4.55015 14.0411C4.47465 14.0411 4.39307 14.0247 4.35743 13.9033C4.32655 13.7979 4.30437 13.6963 4.28272 13.5975C4.22728 13.3441 4.18795 13.1881 4.08182 13.1717C2.84287 12.9803 2.48806 12.7192 2.40912 12.5342C2.39803 12.5078 2.39143 12.4811 2.39011 12.455C2.38615 12.3837 2.43631 12.3208 2.5068 12.3095C4.41129 11.9959 5.26533 10.0491 5.30097 9.9665C5.30176 9.96438 5.30282 9.96201 5.30387 9.9599C5.42056 9.72362 5.44326 9.51849 5.37198 9.35032C5.2413 9.0425 4.81495 8.90707 4.53273 8.81757C4.46383 8.79566 4.39835 8.77507 4.34661 8.75448C3.7835 8.53192 3.73677 8.30357 3.75895 8.18714C3.7967 7.98861 4.06176 7.85028 4.27639 7.85028C4.33499 7.85028 4.38674 7.86084 4.4303 7.88117C4.68374 7.9997 4.91183 8.05989 5.10904 8.05989C5.38122 8.05989 5.50002 7.94558 5.51454 7.93053C5.50742 7.8017 5.49897 7.66706 5.49026 7.52794C5.4335 6.6277 5.36301 5.50861 5.64813 4.86999C6.5019 2.95573 8.31241 2.80684 8.84701 2.80684C8.86073 2.80684 9.08144 2.80446 9.08144 2.80446H9.11312C9.64877 2.80446 11.4635 2.95336 12.3178 4.86893C12.6027 5.50781 12.5322 6.6277 12.4754 7.52741L12.473 7.56674C12.4651 7.69188 12.4575 7.81358 12.4511 7.93027C12.4649 7.94426 12.5741 8.04933 12.8207 8.05884C13.0084 8.05171 13.2241 7.99178 13.4607 7.88117C13.5298 7.84869 13.6069 7.84183 13.6592 7.84183C13.7394 7.84183 13.8205 7.85741 13.8878 7.88539L13.892 7.88724C14.0832 7.95509 14.2086 8.08893 14.2112 8.22912C14.2138 8.36112 14.113 8.55938 13.6191 8.75448C13.5678 8.7748 13.5024 8.7954 13.4329 8.81757C13.1505 8.90707 12.7244 9.0425 12.5937 9.35032C12.5224 9.51849 12.5451 9.72335 12.6618 9.95963C12.6629 9.96201 12.6639 9.96412 12.665 9.9665C12.7003 10.0491 13.5536 11.9953 15.4591 12.3092C15.5294 12.3208 15.5798 12.3837 15.5758 12.4547C15.5742 12.4814 15.5676 12.5083 15.5563 12.5344C15.4776 12.7182 15.1233 12.979 13.8841 13.1704C13.7827 13.186 13.7434 13.318 13.6829 13.5946C13.661 13.6952 13.6389 13.7942 13.6082 13.8982C13.5818 13.9885 13.5256 14.0308 13.4308 14.0308H13.4155C13.3498 14.0308 13.2566 14.0189 13.1383 13.9957C12.9284 13.9547 12.6932 13.917 12.3938 13.917C12.2191 13.917 12.0382 13.932 11.8563 13.9621C11.4846 14.0242 11.1689 14.247 10.8347 14.4833C10.3489 14.827 9.84756 15.1813 9.06613 15.1813Z" fill="white"/>
<path d="M9.11283 2.94374C9.61998 2.94374 11.3669 3.07996 12.19 4.92558C12.4611 5.53305 12.3917 6.63392 12.336 7.51832C12.327 7.65877 12.3186 7.79473 12.3117 7.92462L12.3085 7.98032L12.346 8.02203C12.3608 8.03866 12.5018 8.18598 12.8152 8.19812L12.8204 8.19838L12.8255 8.19812C13.0327 8.1902 13.2661 8.12605 13.5198 8.00725C13.5567 7.98982 13.6066 7.98138 13.6592 7.98138C13.7191 7.98138 13.7827 7.99246 13.8353 8.01464L13.8432 8.01781C13.976 8.06427 14.07 8.15218 14.0715 8.23165C14.0723 8.27679 14.0385 8.43836 13.5676 8.62448C13.5214 8.64269 13.4606 8.66197 13.3904 8.68414C13.0839 8.78156 12.6209 8.92834 12.4648 9.2953C12.3772 9.50254 12.4009 9.74674 12.5364 10.0213C12.5921 10.1509 13.4667 12.1222 15.4361 12.4467C15.4356 12.4559 15.4332 12.4662 15.428 12.4783C15.3947 12.557 15.1824 12.8284 13.8624 13.0319C13.6557 13.0639 13.6053 13.2954 13.5464 13.5647C13.5256 13.6608 13.5037 13.7579 13.4741 13.8585C13.4651 13.8889 13.4635 13.8907 13.4308 13.8907H13.4152C13.3569 13.8907 13.2677 13.8786 13.1647 13.8585C12.9775 13.8218 12.7212 13.777 12.3936 13.777C12.2109 13.777 12.0224 13.7931 11.8333 13.8242C11.4294 13.8915 11.1007 14.1238 10.7528 14.3696C10.2858 14.7002 9.80267 15.0415 9.06584 15.0415C9.0339 15.0415 9.00248 15.0405 8.9708 15.0389L8.96262 15.0386L8.95417 15.0391C8.93622 15.0407 8.918 15.0415 8.89926 15.0415C8.16244 15.0415 7.67932 14.7002 7.2123 14.3699C6.86435 14.1238 6.53567 13.8915 6.13202 13.8242C5.943 13.7931 5.7545 13.777 5.57181 13.777C5.24419 13.777 4.98785 13.8268 4.80041 13.8635C4.69745 13.8839 4.60848 13.901 4.54987 13.901C4.50235 13.901 4.50129 13.8984 4.49126 13.8638C4.46169 13.7632 4.43978 13.6634 4.41893 13.5673C4.36006 13.2981 4.3091 13.0652 4.10292 13.0333C2.78266 12.8295 2.57067 12.5575 2.53714 12.4791C2.53186 12.467 2.52975 12.4562 2.52922 12.4469C4.49839 12.1225 5.37328 10.1515 5.42899 10.0213C5.56416 9.74674 5.58818 9.5028 5.50027 9.29556C5.34451 8.92834 4.88145 8.78156 4.57469 8.68414C4.50446 8.66197 4.44374 8.64269 4.39781 8.62448C3.9997 8.46713 3.87746 8.309 3.89594 8.2129C3.9168 8.10229 4.10873 7.98982 4.2761 7.98982C4.31359 7.98982 4.34659 7.99563 4.37088 8.00725C4.6428 8.1345 4.89122 8.19917 5.10876 8.19917C5.4509 8.19917 5.60349 8.03998 5.6196 8.02177L5.65682 7.98032L5.65365 7.92488C5.64679 7.79499 5.63808 7.6593 5.62936 7.51911C5.57366 6.63445 5.50423 5.53437 5.77536 4.92664C6.59534 3.08788 8.33351 2.94612 8.84672 2.94612C8.8594 2.94612 9.08248 2.94401 9.08248 2.94401C9.09198 2.94374 9.10201 2.94374 9.11283 2.94374ZM9.11283 2.66469H9.11231H9.07931C9.07931 2.66469 8.86362 2.66681 8.84646 2.66681C8.29101 2.66681 6.40843 2.82177 5.52033 4.81286C5.22149 5.48289 5.29303 6.62072 5.35058 7.53495C5.35744 7.64266 5.36457 7.7546 5.37064 7.86284C5.32471 7.88818 5.24076 7.91986 5.10876 7.91986C4.93241 7.91986 4.72411 7.86442 4.48941 7.75434C4.42711 7.7253 4.3553 7.71051 4.2761 7.71051C4.00128 7.71051 3.6726 7.89135 3.62165 8.16063C3.58469 8.35467 3.67155 8.63768 4.29511 8.88399C4.35134 8.90643 4.41893 8.92781 4.49047 8.95025C4.74813 9.03209 5.13753 9.15564 5.2434 9.4046C5.29805 9.53369 5.27613 9.69975 5.17845 9.89775C5.17634 9.90223 5.17423 9.90672 5.17238 9.91147C5.13806 9.9912 4.31386 11.8701 2.48381 12.1713C2.3431 12.1945 2.24252 12.3202 2.25044 12.4625C2.25281 12.505 2.26284 12.547 2.28 12.5879C2.41755 12.9089 2.99676 13.1444 4.0517 13.3081C4.08708 13.3556 4.12378 13.524 4.14622 13.6267C4.16813 13.7281 4.19083 13.8324 4.2233 13.9427C4.25498 14.051 4.33762 14.1803 4.54987 14.1803C4.63567 14.1803 4.73705 14.1605 4.854 14.1376C5.02982 14.1033 5.27059 14.0563 5.57181 14.0563C5.73892 14.0563 5.91211 14.0708 6.08635 14.0996C6.42664 14.1563 6.71599 14.3609 7.05074 14.5975C7.53042 14.9367 8.07373 15.3206 8.89926 15.3206C8.92196 15.3206 8.94467 15.32 8.96737 15.3182C8.99404 15.3195 9.02888 15.3206 9.06584 15.3206C9.89163 15.3206 10.4349 14.9367 10.9141 14.5977C11.2496 14.3607 11.5387 14.1563 11.879 14.0996C12.0533 14.0708 12.2264 14.0563 12.3936 14.0563C12.681 14.0563 12.9084 14.0927 13.1111 14.1323C13.2384 14.1574 13.3405 14.17 13.4152 14.17H13.4308C13.5876 14.17 13.6982 14.0872 13.7421 13.9369C13.774 13.829 13.7967 13.7273 13.8192 13.6244C13.8416 13.5219 13.878 13.3543 13.9131 13.3068C14.9683 13.1431 15.5476 12.9081 15.6848 12.5884C15.7023 12.5475 15.7126 12.505 15.7149 12.4622C15.7228 12.3197 15.6223 12.1945 15.4816 12.1713C13.6507 11.8696 12.827 9.99094 12.793 9.91121C12.7911 9.90672 12.789 9.90223 12.7866 9.89775C12.689 9.69948 12.6673 9.53369 12.722 9.4046C12.8276 9.15564 13.217 9.03209 13.4746 8.95052C13.5467 8.92755 13.6143 8.9059 13.67 8.88399C14.1264 8.70368 14.3553 8.48245 14.3506 8.2261C14.3466 8.02467 14.1898 7.84515 13.9406 7.75618L13.9398 7.75592C13.8561 7.72107 13.7566 7.70206 13.6592 7.70206C13.5924 7.70206 13.4936 7.71104 13.4012 7.75434C13.1842 7.85598 12.9891 7.91142 12.821 7.91881C12.7093 7.91379 12.6364 7.88554 12.5947 7.86258C12.6 7.76991 12.6061 7.67434 12.6121 7.57455L12.6145 7.53574C12.6723 6.62099 12.7439 5.48209 12.445 4.8118C11.5564 2.81966 9.66987 2.66469 9.11283 2.66469Z" fill="#030303"/>
</svg>
