<svg width="6" height="4" viewBox="0 0 6 4" fill="none" xmlns="http://www.w3.org/2000/svg">
<path d="M3.40576 1.43401C3.47263 1.27352 3.60638 1.15315 3.7535 1.05953C3.90062 0.979279 4.07448 0.925781 4.24835 0.925781C4.42222 0.925781 4.59609 0.95253 4.74321 1.03278C4.89033 1.09965 5.03744 1.22002 5.11769 1.38051L4.66296 1.36714C4.52922 1.36714 4.39547 1.36714 4.26173 1.36714C4.12798 1.36714 3.99424 1.38051 3.86049 1.39389C3.72675 1.39389 3.57963 1.42064 3.40576 1.43401Z" fill="#2E2E2E"/>
<path d="M2.53664 1.43401C2.36277 1.42064 2.21565 1.39389 2.08191 1.39389C1.94816 1.38051 1.81442 1.38051 1.68067 1.36714C1.54693 1.36714 1.41318 1.36714 1.27944 1.36714L0.824707 1.38051C0.904954 1.22002 1.05207 1.11302 1.19919 1.03278C1.35969 0.965904 1.53355 0.925781 1.69405 0.925781C1.86791 0.925781 2.04178 0.979279 2.1889 1.05953C2.33602 1.15315 2.46976 1.27352 2.53664 1.43401Z" fill="#2E2E2E"/>
<path d="M3.48603 2.59793C3.51278 2.53106 3.5529 2.46419 3.57965 2.39731C3.6599 2.27694 3.76689 2.15657 3.90064 2.07633C4.03438 1.99608 4.19488 1.95596 4.35537 1.96933C4.51586 1.98271 4.66298 2.02283 4.79673 2.10308C4.8636 2.1432 4.9171 2.1967 4.98397 2.23682C5.03747 2.29032 5.09096 2.34382 5.10434 2.42406C5.10434 2.43744 5.10434 2.46419 5.07759 2.46419C5.06422 2.46419 5.06421 2.46419 5.05084 2.46419C4.97059 2.43744 4.93047 2.38394 4.87697 2.34382C4.82348 2.30369 4.76998 2.26357 4.70311 2.23682C4.58274 2.16995 4.46237 2.1432 4.32862 2.12982C4.19488 2.11645 4.07451 2.1432 3.95414 2.1967C3.83377 2.25019 3.74014 2.34382 3.64652 2.45081C3.6064 2.51768 3.5529 2.57118 3.51278 2.63805C3.4994 2.65143 3.48603 2.65143 3.47266 2.63805C3.48603 2.62468 3.48603 2.61131 3.48603 2.59793Z" fill="#2E2E2E"/>
<path d="M4.02115 2.33025C4.03452 2.18313 4.15489 2.07613 4.30201 2.08951C4.44913 2.10288 4.55613 2.22325 4.54275 2.37037C4.52938 2.51749 4.40901 2.62449 4.26189 2.61111C4.11477 2.59774 4.00777 2.47737 4.02115 2.33025Z" fill="#2E2E2E"/>
<path d="M4.81006 2.57124C4.90368 2.5445 4.9973 2.50437 5.07755 2.4375" stroke="#2E2E2E" stroke-width="0.0715533" stroke-miterlimit="10" stroke-linecap="round" stroke-linejoin="round"/>
<path d="M3.48584 2.15637C3.59284 1.96913 3.7667 1.82201 3.96732 1.75514C4.16794 1.68827 4.3953 1.68827 4.59592 1.76851" stroke="#2E2E2E" stroke-width="0.0715533" stroke-miterlimit="10" stroke-linecap="round" stroke-linejoin="round"/>
<path d="M2.40289 2.62438C2.36277 2.57088 2.30927 2.50401 2.26915 2.43714C2.17553 2.33014 2.08191 2.2499 1.96154 2.18303C1.84117 2.12953 1.7208 2.10278 1.58705 2.11615C1.45331 2.12953 1.33294 2.15628 1.21257 2.22315C1.15907 2.2499 1.0922 2.29002 1.0387 2.33014C0.985201 2.37027 0.931703 2.41039 0.864831 2.45051C0.851456 2.46389 0.824707 2.45051 0.824707 2.43714C0.824707 2.42376 0.824707 2.42377 0.824707 2.41039C0.851456 2.33014 0.891579 2.27665 0.945077 2.22315C0.998575 2.16965 1.06545 2.12953 1.13232 2.0894C1.26606 2.00916 1.41318 1.95566 1.57368 1.95566C1.73417 1.94229 1.89466 1.98241 2.02841 2.06265C2.16215 2.1429 2.26915 2.26327 2.34939 2.38364C2.37614 2.45051 2.41627 2.51739 2.44302 2.58426C2.45639 2.59763 2.44302 2.62438 2.42964 2.62438C2.42964 2.63776 2.41627 2.63776 2.40289 2.62438Z" fill="#2E2E2E"/>
<path d="M1.93484 2.33025C1.92147 2.18313 1.8011 2.07613 1.65398 2.08951C1.50686 2.10288 1.39986 2.22325 1.41324 2.37037C1.42661 2.51749 1.54698 2.62449 1.6941 2.61111C1.82785 2.59774 1.94822 2.47737 1.93484 2.33025Z" fill="#2E2E2E"/>
<path d="M1.13224 2.57076C1.03861 2.54401 0.944993 2.50388 0.864746 2.43701" stroke="#2E2E2E" stroke-width="0.0715533" stroke-miterlimit="10" stroke-linecap="round" stroke-linejoin="round"/>
<path d="M2.46965 2.15647C2.36265 1.96922 2.18878 1.8221 1.98816 1.75523C1.77417 1.68836 1.54681 1.68836 1.34619 1.75523" stroke="#2E2E2E" stroke-width="0.0715533" stroke-miterlimit="10" stroke-linecap="round" stroke-linejoin="round"/>
<path d="M3.01807 3.36102V2.4248" stroke="#2E2E2E" stroke-width="0.0715533" stroke-miterlimit="10" stroke-linecap="round" stroke-linejoin="round"/>
<path d="M2.71045 3.54834L2.87094 3.65534C2.97794 3.72221 3.08493 3.72221 3.19193 3.65534L3.35242 3.54834" stroke="#2E2E2E" stroke-width="0.076649" stroke-miterlimit="10" stroke-linecap="round" stroke-linejoin="round"/>
</svg>
