<svg width="6" height="10" viewBox="0 0 6 10" fill="none" xmlns="http://www.w3.org/2000/svg">
<path d="M5.7068 6.76134C5.61318 7.01545 5.46606 7.28294 5.2922 7.53706C4.95784 8.03191 4.51648 8.50001 4.07512 8.79425C3.59364 9.11524 2.95167 9.22224 2.40332 9.03499C1.97533 8.88787 1.61422 8.58026 1.29324 8.2459C0.892002 7.83129 0.530892 7.37656 0.330276 6.84158C0.169782 6.42698 0.10291 5.95887 0.0895352 5.49076C0.0627863 4.83542 0.129659 4.15332 0.196531 3.55147C0.276778 2.66876 0.811755 1.82617 1.58747 1.37144C2.32307 0.943453 3.28603 0.876581 4.0885 1.22432C4.89096 1.55868 5.51956 2.29427 5.73355 3.13686C5.88067 3.73871 5.84055 4.36731 5.84055 4.98254C5.84055 5.1564 5.85392 5.33027 5.85392 5.50414C5.88067 5.91875 5.8673 6.3601 5.7068 6.76134Z" fill="#F5F5FF" stroke="#2E2E2E" stroke-width="0.0715533" stroke-miterlimit="10" stroke-linecap="round" stroke-linejoin="round"/>
<path d="M5.88043 5.49078V5.51753L5.86705 5.50415C5.66643 5.33028 5.54606 5.07617 5.53269 4.82205L5.35882 3.01649C5.19989 2.95689 4.86899 2.57713 4.67672 2.45478C4.63391 2.42947 3.79476 2.69313 2.95142 2.68212C2.0994 2.671 1.2431 2.3855 1.19937 2.41465C0.992052 2.55286 0.765736 2.77188 0.54402 2.88274L0.437024 4.80868C0.42365 5.07617 0.289905 5.33028 0.0892882 5.50415L0.075914 5.5309V5.51753C0.0491651 4.9023 0.116037 4.2737 0.169535 3.71197L0.182909 3.57823C0.236407 3.00313 0.477148 2.45478 0.838258 2.01342C1.03887 1.7593 1.29299 1.55869 1.57385 1.38482C2.32282 0.943463 3.28578 0.876591 4.10162 1.21095C4.50286 1.37145 4.85059 1.63893 5.13146 1.95992C5.42569 2.29428 5.63969 2.69552 5.74668 3.1235C5.86705 3.5916 5.86705 4.07308 5.85368 4.54119C5.85368 4.67493 5.85368 4.82205 5.85368 4.96917C5.85368 5.06279 5.85368 5.16979 5.86705 5.26341C5.86705 5.34366 5.86705 5.4239 5.88043 5.49078Z" fill="#2E2E2E"/>
</svg>
