<svg width="14" height="14" viewBox="0 0 14 14" fill="none" xmlns="http://www.w3.org/2000/svg">
<path d="M11.7693 0C13.0011 0 14 0.998738 14 2.23094V11.7693C14 13.0011 13.0011 14 11.7693 14H2.23094C0.998944 14 0 13.0011 0 11.7693V2.23094C0 0.998738 0.998944 0 2.23094 0H11.7693Z" fill="#FFFC00"/>
<path d="M7.05151 11.8076C7.02502 11.8076 6.99915 11.8068 6.97308 11.8056C6.95644 11.807 6.9392 11.8076 6.92195 11.8076C6.31437 11.8076 5.92444 11.5321 5.54724 11.2653C5.28688 11.0814 5.0411 10.9076 4.75158 10.8594C4.61031 10.836 4.46966 10.8243 4.33393 10.8243C4.08897 10.8243 3.89596 10.8621 3.75489 10.8896C3.66927 10.9064 3.59535 10.9208 3.53909 10.9208C3.48036 10.9208 3.41692 10.9081 3.3892 10.8136C3.36517 10.7317 3.34793 10.6526 3.33109 10.5758C3.28797 10.3787 3.25737 10.2574 3.17483 10.2446C2.2112 10.0958 1.93524 9.89268 1.87384 9.74875C1.86522 9.72821 1.86008 9.70747 1.85906 9.68715C1.85598 9.63171 1.89499 9.58284 1.94981 9.57401C3.43108 9.33007 4.09534 7.81595 4.12306 7.75168C4.12367 7.75004 4.12449 7.74819 4.12532 7.74655C4.21607 7.56277 4.23373 7.40323 4.17829 7.27243C4.07665 7.03301 3.74504 6.92768 3.52554 6.85807C3.47195 6.84103 3.42102 6.82501 3.38078 6.809C2.9428 6.6359 2.90646 6.45829 2.92371 6.36774C2.95307 6.21333 3.15922 6.10573 3.32616 6.10573C3.37174 6.10573 3.41199 6.11394 3.44587 6.12976C3.64299 6.22195 3.8204 6.26876 3.97378 6.26876C4.18548 6.26876 4.27788 6.17986 4.28917 6.16815C4.28363 6.06795 4.27706 5.96323 4.27028 5.85502C4.22613 5.15483 4.17131 4.28443 4.39307 3.78773C5.05712 2.29886 6.46529 2.18305 6.88109 2.18305C6.89176 2.18305 7.06342 2.18121 7.06342 2.18121H7.08806C7.50468 2.18121 8.91614 2.29701 9.5806 3.78691C9.80215 4.28381 9.74733 5.15483 9.70318 5.85461L9.70133 5.8852C9.69517 5.98253 9.68922 6.07719 9.68429 6.16795C9.69497 6.17883 9.77998 6.26055 9.97176 6.26794C10.1177 6.2624 10.2855 6.21579 10.4695 6.12976C10.5233 6.1045 10.5832 6.09916 10.6239 6.09916C10.6863 6.09916 10.7494 6.11128 10.8017 6.13304L10.805 6.13448C10.9537 6.18725 11.0512 6.29135 11.0532 6.40038C11.0553 6.50305 10.9769 6.65726 10.5927 6.809C10.5528 6.82481 10.5019 6.84082 10.4479 6.85807C10.2282 6.92768 9.89681 7.03301 9.79517 7.27243C9.73973 7.40323 9.75739 7.56257 9.84815 7.74634C9.84897 7.74819 9.84979 7.74983 9.85061 7.75168C9.87812 7.81595 10.5418 9.32966 12.0239 9.5738C12.0785 9.58284 12.1177 9.63171 12.1146 9.68694C12.1134 9.70768 12.1082 9.72862 12.0994 9.74895C12.0382 9.89186 11.7627 10.0947 10.7988 10.2436C10.72 10.2557 10.6894 10.3584 10.6424 10.5736C10.6253 10.6518 10.6081 10.7288 10.5843 10.8097C10.5637 10.8799 10.52 10.9128 10.4463 10.9128H10.4344C10.3832 10.9128 10.3108 10.9035 10.2188 10.8855C10.0555 10.8536 9.87258 10.8243 9.63973 10.8243C9.5038 10.8243 9.36315 10.836 9.22168 10.8594C8.93257 10.9076 8.68699 11.0809 8.42704 11.2647C8.04922 11.5321 7.6593 11.8076 7.05151 11.8076Z" fill="white"/>
<path d="M7.08776 2.2896C7.4822 2.2896 8.84089 2.39555 9.48112 3.83104C9.692 4.30351 9.63799 5.15975 9.59467 5.84761C9.58769 5.95685 9.58112 6.06259 9.57578 6.16362L9.57331 6.20694L9.60247 6.23939C9.61397 6.25232 9.72362 6.3669 9.96735 6.37634L9.97145 6.37655L9.97536 6.37634C10.1365 6.37018 10.3181 6.32029 10.5154 6.22789C10.5441 6.21433 10.5829 6.20776 10.6238 6.20776C10.6704 6.20776 10.7199 6.21639 10.7608 6.23364L10.7669 6.2361C10.8702 6.27224 10.9433 6.34061 10.9445 6.40242C10.9451 6.43753 10.9189 6.56319 10.5525 6.70795C10.5166 6.72212 10.4694 6.73711 10.4148 6.75436C10.1764 6.83013 9.81622 6.94429 9.69487 7.22971C9.6267 7.39089 9.64518 7.58082 9.75052 7.79437C9.79384 7.89519 10.4741 9.42841 12.0059 9.68076C12.0055 9.68795 12.0036 9.69596 11.9995 9.7054C11.9737 9.76659 11.8086 9.97767 10.7819 10.136C10.6211 10.1608 10.5819 10.3409 10.5361 10.5503C10.5199 10.6251 10.5029 10.7007 10.4799 10.7789C10.4729 10.8025 10.4716 10.8039 10.4462 10.8039H10.4341C10.3887 10.8039 10.3193 10.7945 10.2392 10.7789C10.0936 10.7503 9.89425 10.7154 9.63943 10.7154C9.49734 10.7154 9.35073 10.728 9.20372 10.7522C8.88956 10.8045 8.63392 10.9852 8.36329 11.1764C8.00005 11.4335 7.6243 11.699 7.05121 11.699C7.02637 11.699 7.00193 11.6982 6.97729 11.6969L6.97093 11.6967L6.96436 11.6971C6.95039 11.6984 6.93622 11.699 6.92165 11.699C6.34856 11.699 5.9728 11.4335 5.60957 11.1766C5.33894 10.9852 5.0833 10.8045 4.76935 10.7522C4.62233 10.728 4.47572 10.7154 4.33363 10.7154C4.07881 10.7154 3.87944 10.7542 3.73365 10.7828C3.65357 10.7986 3.58437 10.8119 3.53879 10.8119C3.50183 10.8119 3.50101 10.8099 3.4932 10.783C3.47021 10.7048 3.45316 10.6271 3.43694 10.5524C3.39115 10.343 3.35153 10.1619 3.19116 10.137C2.16429 9.9785 1.99941 9.767 1.97333 9.70602C1.96922 9.69657 1.96758 9.68816 1.96717 9.68097C3.49875 9.42861 4.17922 7.8956 4.22255 7.79437C4.32768 7.58082 4.34636 7.3911 4.27799 7.22991C4.15684 6.94429 3.79669 6.83013 3.55809 6.75436C3.50347 6.73711 3.45624 6.72212 3.42052 6.70795C3.11087 6.58558 3.01581 6.46258 3.03018 6.38784C3.0464 6.30181 3.19568 6.21433 3.32586 6.21433C3.35502 6.21433 3.38068 6.21885 3.39957 6.22789C3.61107 6.32686 3.80428 6.37716 3.97348 6.37716C4.23959 6.37716 4.35827 6.25335 4.3708 6.23918L4.39975 6.20694L4.39728 6.16382C4.39195 6.0628 4.38517 5.95726 4.37839 5.84823C4.33507 5.16016 4.28107 4.30453 4.49194 3.83186C5.12971 2.40172 6.48162 2.29145 6.88078 2.29145C6.89064 2.29145 7.06415 2.28981 7.06415 2.28981C7.07154 2.2896 7.07934 2.2896 7.08776 2.2896ZM7.08776 2.07257H7.08735H7.06168C7.06168 2.07257 6.89393 2.07421 6.88058 2.07421C6.44856 2.07421 4.98433 2.19474 4.29359 3.74336C4.06116 4.26449 4.1168 5.14948 4.16156 5.86055C4.1669 5.94432 4.17245 6.03138 4.17717 6.11557C4.14144 6.13528 4.07614 6.15992 3.97348 6.15992C3.83632 6.15992 3.67431 6.1168 3.49177 6.03118C3.44331 6.00859 3.38746 5.99709 3.32586 5.99709C3.11211 5.99709 2.85647 6.13775 2.81684 6.34718C2.78809 6.4981 2.85565 6.71822 3.34064 6.9098C3.38438 6.92725 3.43694 6.94388 3.49259 6.96134C3.69299 7.02499 3.99586 7.12108 4.0782 7.31471C4.1207 7.41512 4.10366 7.54427 4.02769 7.69827C4.02604 7.70177 4.0244 7.70526 4.02296 7.70895C3.99627 7.77096 3.35522 9.23232 1.93185 9.4666C1.82241 9.48467 1.74418 9.58241 1.75034 9.69308C1.75219 9.72614 1.75999 9.75879 1.77334 9.79062C1.88032 10.0403 2.33082 10.2235 3.15133 10.3508C3.17884 10.3877 3.20738 10.5187 3.22483 10.5986C3.24188 10.6774 3.25954 10.7586 3.28479 10.8444C3.30943 10.9286 3.3737 11.0292 3.53879 11.0292C3.60552 11.0292 3.68437 11.0138 3.77533 10.9959C3.91208 10.9692 4.09935 10.9327 4.33363 10.9327C4.46361 10.9327 4.59831 10.944 4.73383 10.9664C4.9985 11.0105 5.22354 11.1696 5.48391 11.3536C5.857 11.6175 6.27957 11.916 6.92165 11.916C6.9393 11.916 6.95696 11.9156 6.97462 11.9142C6.99536 11.9152 7.02246 11.916 7.05121 11.916C7.69349 11.916 8.11607 11.6175 8.48875 11.3538C8.74972 11.1694 8.97456 11.0105 9.23924 10.9664C9.37476 10.944 9.50946 10.9327 9.63943 10.9327C9.86304 10.9327 10.0398 10.961 10.1975 10.9918C10.2965 11.0113 10.376 11.0212 10.4341 11.0212H10.4462C10.5682 11.0212 10.6542 10.9567 10.6883 10.8399C10.7131 10.7559 10.7308 10.6768 10.7482 10.5968C10.7657 10.5171 10.794 10.3867 10.8213 10.3497C11.642 10.2224 12.0925 10.0397 12.1993 9.79103C12.2129 9.7592 12.2209 9.72614 12.2227 9.69288C12.2289 9.582 12.1507 9.48467 12.0412 9.4666C10.6172 9.2319 9.97659 7.77076 9.9501 7.70875C9.94866 7.70526 9.94702 7.70177 9.94517 7.69827C9.8692 7.54407 9.85236 7.41512 9.89487 7.31471C9.977 7.12108 10.2799 7.02499 10.4803 6.96154C10.5363 6.94368 10.5889 6.92684 10.6322 6.9098C10.9872 6.76955 11.1653 6.59749 11.1616 6.39811C11.1585 6.24144 11.0365 6.10181 10.8427 6.03261L10.8421 6.03241C10.777 6.00531 10.6996 5.99052 10.6238 5.99052C10.5718 5.99052 10.4951 5.9975 10.4232 6.03118C10.2544 6.11023 10.1027 6.15335 9.97186 6.1591C9.88501 6.1552 9.82834 6.13323 9.79589 6.11536C9.8 6.04329 9.80472 5.96896 9.80945 5.89135L9.81129 5.86116C9.85626 5.14968 9.91191 4.26388 9.67947 3.74254C8.98832 2.1931 7.52101 2.07257 7.08776 2.07257Z" fill="#030303"/>
</svg>
