<svg width="14" height="9" viewBox="0 0 14 9" fill="none" xmlns="http://www.w3.org/2000/svg">
<path d="M4.06191 5.84647C5.27011 5.84647 6.24955 4.86703 6.24955 3.65883C6.24955 2.45063 5.27011 1.47119 4.06191 1.47119C2.85371 1.47119 1.87427 2.45063 1.87427 3.65883C1.87427 4.86703 2.85371 5.84647 4.06191 5.84647Z" stroke="#2E2E2E" stroke-width="0.266786" stroke-miterlimit="10" stroke-linecap="round" stroke-linejoin="round"/>
<path d="M10.038 5.84647C11.2462 5.84647 12.2256 4.86703 12.2256 3.65883C12.2256 2.45063 11.2462 1.47119 10.038 1.47119C8.82978 1.47119 7.85034 2.45063 7.85034 3.65883C7.85034 4.86703 8.82978 5.84647 10.038 5.84647Z" stroke="#2E2E2E" stroke-width="0.266786" stroke-miterlimit="10" stroke-linecap="round" stroke-linejoin="round"/>
<path d="M6.22266 3.41851C6.46276 3.28511 6.72955 3.20508 7.04969 3.20508C7.34315 3.20508 7.63662 3.28511 7.87673 3.41851" stroke="#2E2E2E" stroke-width="0.266786" stroke-miterlimit="10" stroke-linecap="round" stroke-linejoin="round"/>
<path d="M1.87419 3.65864L0.646973 2.03125" stroke="#2E2E2E" stroke-width="0.266786" stroke-miterlimit="10" stroke-linecap="round" stroke-linejoin="round"/>
<path d="M12.1721 3.65864L13.3993 2.03125" stroke="#2E2E2E" stroke-width="0.266786" stroke-miterlimit="10" stroke-linecap="round" stroke-linejoin="round"/>
<path d="M8.06372 1.44449C8.19711 1.15103 8.43722 0.91092 8.70401 0.750849C8.99747 0.590777 9.29093 0.510742 9.61108 0.510742C9.93122 0.510742 10.2514 0.564098 10.5448 0.697491C10.8383 0.830884 11.1051 1.04431 11.2385 1.33778L10.3848 1.3111C10.118 1.3111 9.87786 1.3111 9.63776 1.3111C9.39765 1.3111 9.15754 1.33778 8.89076 1.36445C8.65065 1.39113 8.38386 1.41781 8.06372 1.44449Z" fill="#2E2E2E"/>
<path d="M5.98268 1.44449C5.66253 1.41781 5.39575 1.39113 5.12896 1.36445C4.86218 1.33778 4.62207 1.33778 4.38196 1.3111C4.14186 1.3111 3.90175 1.3111 3.63496 1.3111L2.78125 1.33778C2.94132 1.04431 3.20811 0.830884 3.47489 0.697491C3.76836 0.564098 4.0885 0.510742 4.40864 0.510742C4.72879 0.510742 5.04893 0.617456 5.31571 0.750849C5.60918 0.91092 5.84928 1.15103 5.98268 1.44449Z" fill="#2E2E2E"/>
<path d="M8.22377 3.6055C8.27713 3.47211 8.35716 3.36539 8.41052 3.232C8.57059 2.99189 8.75734 2.77846 8.99745 2.64507C9.23756 2.485 9.5577 2.43164 9.85116 2.43164C10.1446 2.45832 10.4381 2.53836 10.6782 2.67175C10.8116 2.75178 10.9183 2.83182 11.025 2.93853C11.1317 3.04525 11.2118 3.15196 11.2651 3.28536C11.2651 3.31203 11.2651 3.36539 11.2118 3.36539C11.1851 3.36539 11.1851 3.36539 11.1584 3.36539C11.025 3.31203 10.945 3.232 10.8383 3.15196C10.7316 3.07193 10.6248 3.01857 10.5181 2.96521C10.3047 2.8585 10.0646 2.77846 9.82448 2.77846C9.58438 2.75178 9.34427 2.80514 9.13084 2.91186C8.91741 3.01857 8.73066 3.17864 8.54391 3.36539C8.46388 3.4721 8.38384 3.6055 8.30381 3.71221C8.27713 3.73889 8.25045 3.73889 8.22377 3.71221C8.22377 3.65886 8.19709 3.63218 8.22377 3.6055Z" fill="#2E2E2E"/>
<path d="M9.211 3.12523C9.23768 2.85844 9.47778 2.64501 9.74457 2.67169C10.0114 2.69837 10.2248 2.93848 10.1981 3.20526C10.1714 3.47205 9.93132 3.68547 9.66453 3.6588C9.39775 3.63212 9.18432 3.39201 9.211 3.12523Z" fill="#2E2E2E"/>
<path d="M10.6782 3.57897C10.865 3.52562 11.025 3.44558 11.1851 3.33887" stroke="#2E2E2E" stroke-width="0.266786" stroke-miterlimit="10" stroke-linecap="round" stroke-linejoin="round"/>
<path d="M5.7425 3.68553C5.66247 3.57881 5.58243 3.44542 5.5024 3.33871C5.34232 3.15196 5.1289 2.99189 4.91547 2.88517C4.70204 2.77846 4.46193 2.7251 4.22182 2.75178C3.98172 2.77846 3.74161 2.83181 3.52818 2.93853C3.42147 2.99189 3.31475 3.07192 3.20804 3.12528C3.10133 3.20532 3.02129 3.28535 2.8879 3.33871C2.86122 3.36539 2.80786 3.33871 2.80786 3.31203C2.80786 3.28535 2.80786 3.28535 2.80786 3.25867C2.83454 3.12528 2.94125 2.99189 3.04797 2.91185C3.15468 2.80514 3.2614 2.7251 3.39479 2.64507C3.6349 2.48499 3.92836 2.40496 4.22182 2.40496C4.51529 2.37828 4.80875 2.45831 5.07554 2.61839C5.34232 2.75178 5.52907 2.99189 5.66247 3.20531C5.71582 3.33871 5.79586 3.44542 5.84922 3.57882C5.84922 3.60549 5.84922 3.63217 5.82254 3.65885C5.76918 3.71221 5.7425 3.68553 5.7425 3.68553Z" fill="#2E2E2E"/>
<path d="M4.83555 3.12523C4.80888 2.85844 4.56877 2.64501 4.30198 2.67169C4.0352 2.69837 3.82177 2.93848 3.84845 3.20526C3.87513 3.47205 4.11523 3.68547 4.38202 3.6588C4.67548 3.63212 4.86223 3.39201 4.83555 3.12523Z" fill="#2E2E2E"/>
<path d="M3.36822 3.57897C3.18147 3.52562 3.0214 3.44558 2.86133 3.33887" stroke="#2E2E2E" stroke-width="0.266786" stroke-miterlimit="10" stroke-linecap="round" stroke-linejoin="round"/>
<path d="M6.16943 5.81992C6.38286 5.55314 6.703 5.39307 7.02315 5.39307C7.34329 5.39307 7.66343 5.55314 7.87686 5.79324" stroke="#2E2E2E" stroke-width="0.24747" stroke-miterlimit="10" stroke-linecap="round" stroke-linejoin="round"/>
<path d="M7.07639 7.66051C7.28981 7.66051 7.50324 7.63383 7.74335 7.60715C7.79671 7.60715 8.46367 7.50044 8.46367 7.47376C8.46367 7.47376 8.11685 7.20697 8.01013 7.12694L7.95678 7.07358C7.82338 6.96687 7.71667 6.86015 7.52992 6.78012C7.36985 6.72676 7.15642 6.75344 7.04971 6.88683C6.94299 6.75344 6.72956 6.72676 6.56949 6.75344C6.40942 6.80679 6.27603 6.91351 6.14264 7.02022L6.08928 7.07358C5.98256 7.18029 5.63574 7.4204 5.63574 7.4204C5.63574 7.47376 6.19599 7.58047 6.24935 7.58047C6.48946 7.60715 6.72956 7.63383 6.96967 7.63383C6.99635 7.66051 7.02303 7.66051 7.07639 7.66051Z" fill="#2E2E2E"/>
<path d="M6.24927 8.0874C6.72948 8.38087 7.39645 8.38087 7.87666 8.11408Z" fill="#F5F5FF"/>
<path d="M6.24927 8.0874C6.72948 8.38087 7.39645 8.38087 7.87666 8.11408" stroke="#2E2E2E" stroke-width="0.271374" stroke-miterlimit="10" stroke-linecap="round" stroke-linejoin="round"/>
</svg>
