<svg width="20" height="20" viewBox="0 0 20 20" fill="none" xmlns="http://www.w3.org/2000/svg">
<path fill-rule="evenodd" clip-rule="evenodd" d="M9.34311 3.612C9.21701 3.78714 9.16683 4.02232 9.16683 4.16675V5.00008H7.50016V4.16675C7.50016 3.75562 7.61665 3.15747 7.99055 2.63816C8.39505 2.07636 9.0619 1.66675 10.0002 1.66675C10.9384 1.66675 11.6053 2.07636 12.0098 2.63816C12.3837 3.15747 12.5002 3.75562 12.5002 4.16675V5.00008H10.8335V4.16675C10.8335 4.02232 10.7833 3.78714 10.6572 3.612C10.5617 3.47936 10.3952 3.33341 10.0002 3.33341C9.6051 3.33341 9.43861 3.47936 9.34311 3.612Z" fill="#D4FAE1"/>
<path fill-rule="evenodd" clip-rule="evenodd" d="M6.66683 13.3334C6.66683 12.8732 7.03993 12.5001 7.50016 12.5001H9.16683C9.62707 12.5001 10.0002 12.8732 10.0002 13.3334C10.0002 13.7937 9.62707 14.1667 9.16683 14.1667H7.50016C7.03993 14.1667 6.66683 13.7937 6.66683 13.3334Z" fill="#D4FAE1"/>
<path fill-rule="evenodd" clip-rule="evenodd" d="M6.66683 10.8334C6.66683 10.3732 7.03993 10.0001 7.50016 10.0001H12.5002C12.9604 10.0001 13.3335 10.3732 13.3335 10.8334C13.3335 11.2937 12.9604 11.6667 12.5002 11.6667H7.50016C7.03993 11.6667 6.66683 11.2937 6.66683 10.8334Z" fill="#D4FAE1"/>
<path fill-rule="evenodd" clip-rule="evenodd" d="M6.66683 8.33342C6.66683 7.87318 7.03993 7.50008 7.50016 7.50008H12.5002C12.9604 7.50008 13.3335 7.87318 13.3335 8.33342C13.3335 8.79365 12.9604 9.16675 12.5002 9.16675H7.50016C7.03993 9.16675 6.66683 8.79365 6.66683 8.33342Z" fill="#D4FAE1"/>
<path fill-rule="evenodd" clip-rule="evenodd" d="M3.3335 6.66675C3.3335 5.28604 4.45278 4.16675 5.8335 4.16675H14.1668C15.5475 4.16675 16.6668 5.28604 16.6668 6.66675V15.8334C16.6668 17.2141 15.5475 18.3334 14.1668 18.3334H5.8335C4.45278 18.3334 3.3335 17.2141 3.3335 15.8334V6.66675ZM5.8335 5.83341C5.37326 5.83341 5.00016 6.20651 5.00016 6.66675V15.8334C5.00016 16.2937 5.37326 16.6667 5.8335 16.6667H14.1668C14.6271 16.6667 15.0002 16.2937 15.0002 15.8334V6.66675C15.0002 6.20651 14.6271 5.83341 14.1668 5.83341H5.8335Z" fill="#D4FAE1"/>
</svg>
