<svg width="20" height="20" viewBox="0 0 20 20" fill="none" xmlns="http://www.w3.org/2000/svg">
<path d="M14.1667 7.50008V5.83341C14.1667 4.91294 13.4205 4.16675 12.5 4.16675H4.16667C3.24619 4.16675 2.5 4.91294 2.5 5.83341V10.8334C2.5 11.7539 3.24619 12.5001 4.16667 12.5001H5.83333M7.5 15.8334H15.8333C16.7538 15.8334 17.5 15.0872 17.5 14.1667V9.16675C17.5 8.24627 16.7538 7.50008 15.8333 7.50008H7.5C6.57953 7.50008 5.83333 8.24627 5.83333 9.16675V14.1667C5.83333 15.0872 6.57953 15.8334 7.5 15.8334ZM13.3333 11.6667C13.3333 12.5872 12.5871 13.3334 11.6667 13.3334C10.7462 13.3334 10 12.5872 10 11.6667C10 10.7463 10.7462 10.0001 11.6667 10.0001C12.5871 10.0001 13.3333 10.7463 13.3333 11.6667Z" stroke="#D4FAE1" stroke-width="1.5" stroke-linecap="round" stroke-linejoin="round"/>
</svg>
