<svg width="20" height="21" viewBox="0 0 20 21" fill="none" xmlns="http://www.w3.org/2000/svg">
<path fill-rule="evenodd" clip-rule="evenodd" d="M8.71537 2.77598C9.24894 3.0462 9.68331 3.36249 10.0002 3.62841C10.317 3.36249 10.7514 3.04621 11.2849 2.77598C12.4941 2.16361 14.2343 1.78486 16.1913 2.77597C17.4414 3.40908 18.287 4.36704 18.7475 5.53012C19.2018 6.67757 19.2635 7.9766 19.0448 9.29457C18.6723 11.5401 17.1375 13.5438 15.5612 15.0876C13.9653 16.6507 12.2153 17.8495 11.2284 18.4745C10.473 18.953 9.52735 18.953 8.77195 18.4745C7.78504 17.8495 6.03509 16.6507 4.43912 15.0876C2.86282 13.5438 1.32801 11.5401 0.955428 9.29457C0.736747 7.9766 0.798473 6.67757 1.25277 5.53012C1.71327 4.36704 2.5589 3.40908 3.809 2.77597C5.766 1.78486 7.50623 2.16361 8.71537 2.77598ZM9.36529 5.32124C9.52361 5.50746 9.75572 5.61481 10.0002 5.61481C10.2443 5.61481 10.476 5.50782 10.6343 5.3222C10.6345 5.32199 10.6346 5.32178 10.6348 5.32156C10.635 5.32131 10.6352 5.32106 10.6355 5.32081L10.6481 5.30661C10.6611 5.29222 10.6829 5.26852 10.713 5.23727C10.7736 5.17464 10.867 5.08255 10.9902 4.97484C11.2382 4.75781 11.5963 4.48653 12.038 4.26283C12.9055 3.82348 14.0726 3.57118 15.4383 4.26283C16.3299 4.71441 16.8893 5.3643 17.1979 6.14366C17.5126 6.93866 17.584 7.91667 17.4006 9.02176C17.1161 10.7366 15.8933 12.4294 14.395 13.8969C12.9164 15.3451 11.2748 16.4724 10.3367 17.0665C10.1258 17.2001 9.87461 17.2001 9.66372 17.0665C8.72561 16.4724 7.08395 15.3451 5.6053 13.8969C4.10698 12.4294 2.88414 10.7366 2.59962 9.02176C2.41626 7.91667 2.48764 6.93866 2.8024 6.14366C3.11097 5.3643 3.67035 4.71441 4.56201 4.26283C5.9277 3.57118 7.09482 3.82347 7.96235 4.26283C8.40405 4.48653 8.76212 4.75782 9.01023 4.97486C9.13335 5.08256 9.22683 5.17465 9.28735 5.23729C9.31754 5.26853 9.33933 5.29224 9.35229 5.30663L9.36529 5.32124Z" fill="#F56630"/>
</svg>
