<svg width="20" height="21" viewBox="0 0 20 21" fill="none" xmlns="http://www.w3.org/2000/svg">
<path fill-rule="evenodd" clip-rule="evenodd" d="M8.71512 2.77598C9.2487 3.0462 9.68307 3.36249 9.99994 3.62841C10.3168 3.36249 10.7511 3.04621 11.2847 2.77598C12.4938 2.16361 14.234 1.78486 16.191 2.77597C17.4411 3.40908 18.2867 4.36704 18.7472 5.53012C19.2015 6.67757 19.2633 7.9766 19.0446 9.29457C18.672 11.5401 17.1372 13.5438 15.561 15.0876C13.965 16.6507 12.2151 17.8495 11.2282 18.4745C10.4728 18.953 9.5271 18.953 8.77171 18.4745C7.78479 17.8495 6.03485 16.6507 4.43887 15.0876C2.86257 13.5438 1.32776 11.5401 0.955184 9.29457C0.736503 7.9766 0.798229 6.67757 1.25253 5.53012C1.71302 4.36704 2.55866 3.40908 3.80875 2.77597C5.76575 1.78486 7.50598 2.16361 8.71512 2.77598ZM9.36505 5.32124C9.52336 5.50746 9.75548 5.61481 9.99996 5.61481C10.244 5.61481 10.4757 5.50782 10.634 5.3222C10.6342 5.32199 10.6344 5.32178 10.6346 5.32156C10.6348 5.32131 10.635 5.32106 10.6352 5.32081L10.6479 5.30661C10.6608 5.29222 10.6826 5.26852 10.7128 5.23727C10.7733 5.17464 10.8668 5.08255 10.9899 4.97484C11.238 4.75781 11.5961 4.48653 12.0377 4.26283C12.9052 3.82348 14.0723 3.57118 15.438 4.26283C16.3297 4.71441 16.889 5.3643 17.1976 6.14366C17.5124 6.93866 17.5838 7.91667 17.4004 9.02176C17.1159 10.7366 15.8931 12.4294 14.3948 13.8969C12.9161 15.3451 11.2745 16.4724 10.3364 17.0665C10.1255 17.2001 9.87437 17.2001 9.66348 17.0665C8.72536 16.4724 7.0837 15.3451 5.60506 13.8969C4.10673 12.4294 2.8839 10.7366 2.59937 9.02176C2.41601 7.91667 2.4874 6.93866 2.80216 6.14366C3.11073 5.3643 3.6701 4.71441 4.56176 4.26283C5.92746 3.57118 7.09457 3.82347 7.96211 4.26283C8.40381 4.48653 8.76188 4.75782 9.00999 4.97486C9.13311 5.08256 9.22659 5.17465 9.2871 5.23729C9.3173 5.26853 9.33908 5.29224 9.35205 5.30663L9.36505 5.32124Z" fill="#98A2B3"/>
</svg>
