<svg width="20" height="20" viewBox="0 0 20 20" fill="none" xmlns="http://www.w3.org/2000/svg">
<path d="M3.3335 5.00004C3.3335 4.07957 4.07969 3.33337 5.00016 3.33337H6.66683C7.5873 3.33337 8.3335 4.07957 8.3335 5.00004V6.66671C8.3335 7.58718 7.5873 8.33337 6.66683 8.33337H5.00016C4.07969 8.33337 3.3335 7.58718 3.3335 6.66671V5.00004Z" stroke="#D4FAE1" stroke-width="1.5" stroke-linecap="round" stroke-linejoin="round"/>
<path d="M11.6668 5.00004C11.6668 4.07957 12.413 3.33337 13.3335 3.33337H15.0002C15.9206 3.33337 16.6668 4.07957 16.6668 5.00004V6.66671C16.6668 7.58718 15.9206 8.33337 15.0002 8.33337H13.3335C12.413 8.33337 11.6668 7.58718 11.6668 6.66671V5.00004Z" stroke="#D4FAE1" stroke-width="1.5" stroke-linecap="round" stroke-linejoin="round"/>
<path d="M3.3335 13.3334C3.3335 12.4129 4.07969 11.6667 5.00016 11.6667H6.66683C7.5873 11.6667 8.3335 12.4129 8.3335 13.3334V15C8.3335 15.9205 7.5873 16.6667 6.66683 16.6667H5.00016C4.07969 16.6667 3.3335 15.9205 3.3335 15V13.3334Z" stroke="#D4FAE1" stroke-width="1.5" stroke-linecap="round" stroke-linejoin="round"/>
<path d="M11.6668 13.3334C11.6668 12.4129 12.413 11.6667 13.3335 11.6667H15.0002C15.9206 11.6667 16.6668 12.4129 16.6668 13.3334V15C16.6668 15.9205 15.9206 16.6667 15.0002 16.6667H13.3335C12.413 16.6667 11.6668 15.9205 11.6668 15V13.3334Z" stroke="#D4FAE1" stroke-width="1.5" stroke-linecap="round" stroke-linejoin="round"/>
</svg>
