<svg width="16" height="16" viewBox="0 0 16 16" fill="none" xmlns="http://www.w3.org/2000/svg">
<path fill-rule="evenodd" clip-rule="evenodd" d="M6.972 1.82083C7.39886 2.03701 7.74636 2.29004 7.99985 2.50278C8.25334 2.29004 8.60082 2.03701 9.02767 1.82083C9.99496 1.33094 11.3871 1.02794 12.9527 1.82083C13.9528 2.32731 14.6293 3.09368 14.9977 4.02415C15.3611 4.9421 15.4105 5.98133 15.2356 7.0357C14.9375 8.8321 13.7097 10.4351 12.4487 11.6701C11.1719 12.9206 9.77198 13.8796 8.98246 14.3797C8.37814 14.7624 7.62159 14.7624 7.01727 14.3797C6.22774 13.8796 4.82778 12.9206 3.551 11.6701C2.28996 10.4351 1.06211 8.8321 0.764049 7.0357C0.589104 5.98133 0.638485 4.9421 1.00193 4.02415C1.37032 3.09368 2.04683 2.32731 3.0469 1.82083C4.6125 1.02794 6.00469 1.33094 6.972 1.82083ZM7.49194 3.85704C7.61859 4.00602 7.80429 4.0919 7.99987 4.0919C8.19511 4.09189 8.3805 4.00631 8.50713 3.85781C8.50727 3.85764 8.50742 3.85747 8.50756 3.8573C8.50774 3.8571 8.50791 3.8569 8.50808 3.8567L8.51819 3.84534C8.52857 3.83383 8.54599 3.81486 8.57015 3.78987C8.61856 3.73976 8.69334 3.66609 8.79183 3.57992C8.9903 3.4063 9.27675 3.18927 9.63009 3.01031C10.3241 2.65883 11.2577 2.457 12.3503 3.01031C13.0636 3.37157 13.5111 3.89149 13.758 4.51498C14.0098 5.15098 14.0669 5.93339 13.9202 6.81746C13.6926 8.18931 12.7143 9.5436 11.5157 10.7176C10.3328 11.8761 9.01951 12.7779 8.26903 13.2533C8.10032 13.3601 7.8994 13.3601 7.73068 13.2533C6.98019 12.7779 5.66687 11.8761 4.48395 10.7176C3.28529 9.5436 2.30702 8.18931 2.0794 6.81746C1.93271 5.93339 1.98982 5.15098 2.24163 4.51498C2.48849 3.89149 2.93599 3.37157 3.64931 3.01031C4.74187 2.457 5.67556 2.65883 6.36959 3.01032C6.72295 3.18927 7.00941 3.40631 7.20789 3.57993C7.30639 3.6661 7.38117 3.73977 7.42959 3.78988C7.45374 3.81488 7.47117 3.83384 7.48154 3.84535L7.49194 3.85704Z" fill="#98A2B3"/>
</svg>
