<svg width="12" height="12" viewBox="0 0 12 12" fill="none" xmlns="http://www.w3.org/2000/svg">
<g clip-path="url(#clip0_643_78703)">
<path d="M6.49393 11.0139C4.34906 8.21505 3.27686 6.22368 3.27686 5.03934C3.27686 4.61687 3.36007 4.19853 3.52174 3.80822C3.68341 3.41791 3.92038 3.06326 4.21911 2.76453C4.51785 2.46579 4.8725 2.22882 5.26281 2.06715C5.65312 1.90548 6.07146 1.82227 6.49393 1.82227C6.9164 1.82227 7.33474 1.90548 7.72505 2.06715C8.11537 2.22882 8.47001 2.46579 8.76875 2.76453C9.06748 3.06326 9.30445 3.41791 9.46612 3.80822C9.62779 4.19853 9.71101 4.61687 9.71101 5.03934C9.71101 6.22368 8.6388 8.21505 6.49393 11.0139ZM6.49393 6.87767C6.98149 6.87767 7.44907 6.68399 7.79383 6.33924C8.13858 5.99448 8.33226 5.5269 8.33226 5.03934C8.33226 4.55179 8.13858 4.0842 7.79383 3.73945C7.44907 3.39469 6.98149 3.20101 6.49393 3.20101C6.00638 3.20101 5.53879 3.39469 5.19404 3.73945C4.84928 4.0842 4.6556 4.55179 4.6556 5.03934C4.6556 5.5269 4.84928 5.99448 5.19404 6.33924C5.53879 6.68399 6.00638 6.87767 6.49393 6.87767Z" fill="#1A2FFC"/>
</g>
<defs>
<clipPath id="clip0_643_78703">
<rect width="11.03" height="11.03" fill="white" transform="translate(0.979004 0.873047)"/>
</clipPath>
</defs>
</svg>
