<svg width="12" height="12" viewBox="0 0 12 12" fill="none" xmlns="http://www.w3.org/2000/svg">
<path d="M6.48954 11.1155C4.34467 8.31662 3.27246 6.32525 3.27246 5.1409C3.27246 4.71843 3.35567 4.3001 3.51735 3.90978C3.67902 3.51947 3.91599 3.16482 4.21472 2.86609C4.51345 2.56735 4.8681 2.33039 5.25841 2.16871C5.64873 2.00704 6.06706 1.92383 6.48954 1.92383C6.91201 1.92383 7.33034 2.00704 7.72066 2.16871C8.11097 2.33039 8.46562 2.56735 8.76435 2.86609C9.06308 3.16482 9.30005 3.51947 9.46173 3.90978C9.6234 4.3001 9.70661 4.71843 9.70661 5.1409C9.70661 6.32525 8.63441 8.31662 6.48954 11.1155ZM6.48954 6.97923C6.97709 6.97923 7.44468 6.78555 7.78943 6.4408C8.13418 6.09604 8.32787 5.62846 8.32787 5.1409C8.32787 4.65335 8.13418 4.18576 7.78943 3.84101C7.44468 3.49626 6.97709 3.30257 6.48954 3.30257C6.00198 3.30257 5.53439 3.49626 5.18964 3.84101C4.84489 4.18576 4.65121 4.65335 4.65121 5.1409C4.65121 5.62846 4.84489 6.09604 5.18964 6.4408C5.53439 6.78555 6.00198 6.97923 6.48954 6.97923Z" fill="#4B10AC"/>
</svg>
