<svg width="16" height="16" viewBox="0 0 16 16" fill="none" xmlns="http://www.w3.org/2000/svg">
<path d="M10.8598 9.52663L7.9998 12.3933L5.1398 9.52663C5.01426 9.40109 4.844 9.33056 4.66646 9.33056C4.48893 9.33056 4.31867 9.40109 4.19313 9.52663C4.0676 9.65216 3.99707 9.82242 3.99707 9.99996C3.99707 10.1775 4.0676 10.3478 4.19313 10.4733L7.52646 13.8066C7.58844 13.8691 7.66217 13.9187 7.74341 13.9526C7.82465 13.9864 7.91179 14.0038 7.9998 14.0038C8.08781 14.0038 8.17494 13.9864 8.25618 13.9526C8.33742 13.9187 8.41116 13.8691 8.47313 13.8066L11.8065 10.4733C11.8686 10.4111 11.9179 10.3373 11.9516 10.2561C11.9852 10.1749 12.0025 10.0879 12.0025 9.99996C12.0025 9.91205 11.9852 9.82501 11.9516 9.74379C11.9179 9.66258 11.8686 9.58878 11.8065 9.52663C11.7443 9.46447 11.6705 9.41516 11.5893 9.38152C11.5081 9.34788 11.421 9.33056 11.3331 9.33056C11.2452 9.33056 11.1582 9.34788 11.077 9.38152C10.9958 9.41516 10.922 9.46447 10.8598 9.52663V9.52663ZM5.1398 6.47329L7.9998 3.60663L10.8598 6.47329C10.9218 6.53578 10.9955 6.58537 11.0767 6.61922C11.158 6.65307 11.2451 6.67049 11.3331 6.67049C11.4211 6.67049 11.5083 6.65307 11.5895 6.61922C11.6708 6.58537 11.7445 6.53578 11.8065 6.47329C11.8689 6.41132 11.9185 6.33758 11.9524 6.25634C11.9862 6.1751 12.0037 6.08797 12.0037 5.99996C12.0037 5.91195 11.9862 5.82481 11.9524 5.74357C11.9185 5.66234 11.8689 5.5886 11.8065 5.52663L8.47313 2.19329C8.41116 2.13081 8.33742 2.08121 8.25618 2.04737C8.17494 2.01352 8.08781 1.99609 7.9998 1.99609C7.91179 1.99609 7.82465 2.01352 7.74341 2.04737C7.66217 2.08121 7.58844 2.13081 7.52646 2.19329L4.19313 5.52663C4.0676 5.65216 3.99707 5.82242 3.99707 5.99996C3.99707 6.17749 4.0676 6.34776 4.19313 6.47329C4.31867 6.59883 4.48893 6.66935 4.66646 6.66935C4.844 6.66935 5.01426 6.59883 5.1398 6.47329Z" fill="white"/>
</svg>
