<svg width="16" height="16" viewBox="0 0 16 16" fill="none" xmlns="http://www.w3.org/2000/svg">
<path fill-rule="evenodd" clip-rule="evenodd" d="M9.21927 12.6664C9.0246 12.6664 8.83127 12.5817 8.69927 12.4177L5.4806 8.4177C5.28194 8.17037 5.2846 7.81704 5.48794 7.57304L8.82127 3.57304C9.0566 3.29037 9.47727 3.25237 9.7606 3.4877C10.0433 3.72304 10.0813 4.1437 9.84527 4.42637L6.86194 8.00704L9.7386 11.5817C9.96927 11.8684 9.92394 12.2884 9.6366 12.519C9.51394 12.6184 9.36594 12.6664 9.21927 12.6664" fill="white"/>
<mask id="mask0_3322_2276812" style="mask-type:luminance" maskUnits="userSpaceOnUse" x="5" y="3" width="5" height="10">
<path fill-rule="evenodd" clip-rule="evenodd" d="M9.21927 12.6664C9.0246 12.6664 8.83127 12.5817 8.69927 12.4177L5.4806 8.4177C5.28194 8.17037 5.2846 7.81704 5.48794 7.57304L8.82127 3.57304C9.0566 3.29037 9.47727 3.25237 9.7606 3.4877C10.0433 3.72304 10.0813 4.1437 9.84527 4.42637L6.86194 8.00704L9.7386 11.5817C9.96927 11.8684 9.92394 12.2884 9.6366 12.519C9.51394 12.6184 9.36594 12.6664 9.21927 12.6664" fill="white"/>
</mask>
<g mask="url(#mask0_3322_2276812)">
<rect width="16" height="16" fill="white"/>
</g>
</svg>
