<svg width="20" height="20" viewBox="0 0 20 20" fill="none" xmlns="http://www.w3.org/2000/svg">
<path fill-rule="evenodd" clip-rule="evenodd" d="M4.36001 8.86683C4.65501 9.22016 5.18001 9.2685 5.53334 8.9735L9.16667 5.946V15.8335C9.16667 16.2935 9.54001 16.6668 10 16.6668C10.46 16.6668 10.8333 16.2935 10.8333 15.8335V5.946L14.4667 8.9735C14.8208 9.2685 15.3458 9.22016 15.64 8.86683C15.935 8.5135 15.8875 7.98766 15.5333 7.6935L10.5333 3.52683C10.4942 3.4935 10.4475 3.47766 10.4042 3.45266C10.37 3.43266 10.34 3.40933 10.3025 3.39433C10.205 3.356 10.1033 3.3335 10 3.3335C9.89667 3.3335 9.79501 3.356 9.69751 3.39433C9.66001 3.40933 9.63001 3.43266 9.59584 3.45266C9.55251 3.47766 9.50584 3.4935 9.46667 3.52683L4.46667 7.6935C4.11334 7.98766 4.06501 8.5135 4.36001 8.86683Z" fill="#226E54"/>
<mask id="mask0_3316_7402" style="mask-type:luminance" maskUnits="userSpaceOnUse" x="4" y="3" width="12" height="14">
<path fill-rule="evenodd" clip-rule="evenodd" d="M4.36001 8.86683C4.65501 9.22016 5.18001 9.2685 5.53334 8.9735L9.16667 5.946V15.8335C9.16667 16.2935 9.54001 16.6668 10 16.6668C10.46 16.6668 10.8333 16.2935 10.8333 15.8335V5.946L14.4667 8.9735C14.8208 9.2685 15.3458 9.22016 15.64 8.86683C15.935 8.5135 15.8875 7.98766 15.5333 7.6935L10.5333 3.52683C10.4942 3.4935 10.4475 3.47766 10.4042 3.45266C10.37 3.43266 10.34 3.40933 10.3025 3.39433C10.205 3.356 10.1033 3.3335 10 3.3335C9.89667 3.3335 9.79501 3.356 9.69751 3.39433C9.66001 3.40933 9.63001 3.43266 9.59584 3.45266C9.55251 3.47766 9.50584 3.4935 9.46667 3.52683L4.46667 7.6935C4.11334 7.98766 4.06501 8.5135 4.36001 8.86683Z" fill="white"/>
</mask>
<g mask="url(#mask0_3316_7402)">
<rect width="20" height="20" fill="#226E54"/>
</g>
</svg>
