<svg width="20" height="20" viewBox="0 0 20 20" fill="none" xmlns="http://www.w3.org/2000/svg">
<path fill-rule="evenodd" clip-rule="evenodd" d="M15.64 11.1333C15.345 10.7799 14.82 10.7316 14.4667 11.0266L10.8334 14.0541V4.16659C10.8334 3.70659 10.46 3.33325 10 3.33325C9.54003 3.33325 9.1667 3.70659 9.1667 4.16659V14.0541L5.53337 11.0266C5.1792 10.7316 4.6542 10.7799 4.36003 11.1333C4.06503 11.4866 4.11253 12.0124 4.4667 12.3066L9.4667 16.4733C9.50587 16.5066 9.55253 16.5224 9.59587 16.5474C9.63003 16.5674 9.66003 16.5908 9.69753 16.6058C9.79503 16.6441 9.8967 16.6666 10 16.6666C10.1034 16.6666 10.205 16.6441 10.3025 16.6058C10.34 16.5908 10.37 16.5674 10.4042 16.5474C10.4475 16.5224 10.4942 16.5066 10.5334 16.4733L15.5334 12.3066C15.8867 12.0124 15.935 11.4866 15.64 11.1333Z" fill="#D41811"/>
<mask id="mask0_3316_6931" style="mask-type:luminance" maskUnits="userSpaceOnUse" x="4" y="3" width="12" height="14">
<path fill-rule="evenodd" clip-rule="evenodd" d="M15.64 11.1333C15.345 10.7799 14.82 10.7316 14.4667 11.0266L10.8334 14.0541V4.16659C10.8334 3.70659 10.46 3.33325 10 3.33325C9.54003 3.33325 9.1667 3.70659 9.1667 4.16659V14.0541L5.53337 11.0266C5.1792 10.7316 4.6542 10.7799 4.36003 11.1333C4.06503 11.4866 4.11253 12.0124 4.4667 12.3066L9.4667 16.4733C9.50587 16.5066 9.55253 16.5224 9.59587 16.5474C9.63003 16.5674 9.66003 16.5908 9.69753 16.6058C9.79503 16.6441 9.8967 16.6666 10 16.6666C10.1034 16.6666 10.205 16.6441 10.3025 16.6058C10.34 16.5908 10.37 16.5674 10.4042 16.5474C10.4475 16.5224 10.4942 16.5066 10.5334 16.4733L15.5334 12.3066C15.8867 12.0124 15.935 11.4866 15.64 11.1333Z" fill="white"/>
</mask>
<g mask="url(#mask0_3316_6931)">
<rect width="20" height="20" fill="#D41811"/>
</g>
</svg>
