<svg width="21" height="20" viewBox="0 0 21 20" fill="none" xmlns="http://www.w3.org/2000/svg">
<path fill-rule="evenodd" clip-rule="evenodd" d="M16.4735 11.1333C16.1785 10.7799 15.6535 10.7316 15.3002 11.0266L11.6669 14.0541V4.16659C11.6669 3.70659 11.2935 3.33325 10.8335 3.33325C10.3735 3.33325 10.0002 3.70659 10.0002 4.16659V14.0541L6.36686 11.0266C6.0127 10.7316 5.4877 10.7799 5.19353 11.1333C4.89853 11.4866 4.94603 12.0124 5.3002 12.3066L10.3002 16.4733C10.3394 16.5066 10.386 16.5224 10.4294 16.5474C10.4635 16.5674 10.4935 16.5908 10.531 16.6058C10.6285 16.6441 10.7302 16.6666 10.8335 16.6666C10.9369 16.6666 11.0385 16.6441 11.136 16.6058C11.1735 16.5908 11.2035 16.5674 11.2377 16.5474C11.281 16.5224 11.3277 16.5066 11.3669 16.4733L16.3669 12.3066C16.7202 12.0124 16.7685 11.4866 16.4735 11.1333" fill="#DC2626"/>
<mask id="mask0_3317_291118" style="mask-type:luminance" maskUnits="userSpaceOnUse" x="5" y="3" width="12" height="14">
<path fill-rule="evenodd" clip-rule="evenodd" d="M16.4735 11.1333C16.1785 10.7799 15.6535 10.7316 15.3002 11.0266L11.6669 14.0541V4.16659C11.6669 3.70659 11.2935 3.33325 10.8335 3.33325C10.3735 3.33325 10.0002 3.70659 10.0002 4.16659V14.0541L6.36686 11.0266C6.0127 10.7316 5.4877 10.7799 5.19353 11.1333C4.89853 11.4866 4.94603 12.0124 5.3002 12.3066L10.3002 16.4733C10.3394 16.5066 10.386 16.5224 10.4294 16.5474C10.4635 16.5674 10.4935 16.5908 10.531 16.6058C10.6285 16.6441 10.7302 16.6666 10.8335 16.6666C10.9369 16.6666 11.0385 16.6441 11.136 16.6058C11.1735 16.5908 11.2035 16.5674 11.2377 16.5474C11.281 16.5224 11.3277 16.5066 11.3669 16.4733L16.3669 12.3066C16.7202 12.0124 16.7685 11.4866 16.4735 11.1333" fill="white"/>
</mask>
<g mask="url(#mask0_3317_291118)">
<rect x="0.833252" width="20" height="20" fill="#DC2626"/>
</g>
</svg>
