<svg width="20" height="20" viewBox="0 0 20 20" fill="none" xmlns="http://www.w3.org/2000/svg">
<path d="M9.16667 5.83341H10.8333V14.1667H9.16667V5.83341ZM12.5 9.16675H14.1667V14.1667H12.5V9.16675ZM5.83333 10.8334H7.5V14.1667H5.83333V10.8334ZM12.5 3.33341H4.16667V16.6667H15.8333V6.66675H12.5V3.33341ZM2.5 2.49341C2.5 2.03675 2.8725 1.66675 3.3325 1.66675H13.3333L17.5 5.83341V17.4942C17.5008 17.6037 17.48 17.7122 17.4388 17.8136C17.3976 17.915 17.3369 18.0073 17.2601 18.0852C17.1832 18.1631 17.0918 18.2252 16.991 18.2678C16.8901 18.3103 16.7819 18.3327 16.6725 18.3334H3.3275C3.10865 18.3319 2.89918 18.2443 2.74435 18.0897C2.58951 17.935 2.50175 17.7256 2.5 17.5067V2.49341Z" fill="#D4FAE1"/>
</svg>
