<svg width="20" height="21" viewBox="0 0 20 21" fill="none" xmlns="http://www.w3.org/2000/svg">
<path d="M17.5 6.13091L15.8334 7.79758V3.83341H8.33335V8.00008H4.16669V17.1667H15.8334V14.8692L17.5 13.2026V18.0067C17.4998 18.2261 17.4125 18.4363 17.2574 18.5913C17.1022 18.7463 16.8918 18.8334 16.6725 18.8334H3.32752C3.21808 18.8327 3.10987 18.8103 3.00906 18.7678C2.90825 18.7252 2.81681 18.6631 2.73997 18.5852C2.66313 18.5073 2.60239 18.415 2.56122 18.3136C2.52005 18.2122 2.49925 18.1037 2.50002 17.9942V7.16675L7.50252 2.16675H16.665C17.125 2.16675 17.5 2.54591 17.5 2.99341V6.13091ZM18.1484 7.83925L19.3267 9.01842L12.845 15.5001L11.665 15.4984L11.6667 14.3217L18.1484 7.84008V7.83925Z" fill="#73637F"/>
</svg>
