<svg width="36" height="21" viewBox="0 0 36 21" fill="none" xmlns="http://www.w3.org/2000/svg">
<g style="mix-blend-mode:multiply" opacity="0.1">
<path d="M1.40985 14.9169L1 8.15907V20.9999H35V3.47876L34.2776 4.11868H33.5071L33.1459 4.71788H32.6643C32.5359 4.81774 32.2694 5.01748 32.2309 5.01748C32.1923 5.01748 31.9419 5.13731 31.8215 5.19723L30.7861 5.37699L30.1841 5.61667L29.221 5.37699L28.7153 5.19723L27.9929 5.61667H27.2465L26.6204 5.19723C26.3796 5.13731 25.8884 5.01748 25.8499 5.01748C25.8113 5.01748 25.4967 4.89764 25.3442 4.83772H24.9589L23.8983 1.82931L23.2493 5.19723L22.8881 5.61667L21.8847 5.97619H21.2507L20.566 2.47447L20.0227 6.99482H19.7578L18.891 12.9814L18.3371 6.27579L17.6614 7.35434L17.3739 5.97619L16.7479 5.79643L15.7725 3.25789L15.0142 5.97619L14.0618 4.87079L13.3286 6.6353L12.8501 8.88002L12.0283 7.17458L11.1133 6.99482L10.391 3.99522L9.66855 7.35434L8.99433 7.17458L8.43082 17.3132L7.30878 7.35434L5.79178 7.59402L4.99717 1.0459L3.81551 8.46527L2.99581 4.87079L2.46122 10.0782L1.62369 11.5528L1.40985 14.9169Z" fill="url(#paint0_linear_3316_3200)"/>
</g>
<path d="M1 8.15926L1.42767 14.8249L1.64151 11.4609L1.9979 11L2.47904 9.94012L2.99581 4.87098L3.81551 8.51154L5.00943 1L5.79178 7.5942H6.53824L7.30878 7.35452L8.44864 17.2673L8.99433 7.17476L9.66855 7.35452L10.3732 3.90323L11.1133 6.99501L12.0283 7.17476L12.8145 8.83412L13.3286 6.63549L14.0262 4.87098L15.0142 5.97637L15.7547 3.1659L16.7479 5.79661L17.3739 5.97637L17.6792 7.35452L18.3371 6.27597L18.9088 12.9355L19.7578 6.99501H20.0227L20.5482 2.47466L21.2507 5.97637H21.8312L22.8881 5.61686L23.2493 5.19742L23.9161 1.92166L24.9589 4.8379H25.3442C25.4967 4.89782 25.8113 5.01766 25.8499 5.01766C25.8884 5.01766 26.3796 5.1375 26.6204 5.19742L27.2465 5.61686H27.9929L28.7153 5.19742L29.221 5.37718L30.1841 5.61686L30.7861 5.37718L31.8215 5.19742C31.9419 5.1375 32.1923 5.01766 32.2309 5.01766C32.2694 5.01766 32.5359 4.81793 32.6643 4.71806H33.1459L33.5071 4.11887H34.2776L35 3.47895" stroke="#189E54" stroke-width="0.19404" stroke-linecap="round" stroke-linejoin="round"/>
<defs>
<linearGradient id="paint0_linear_3316_3200" x1="18" y1="3.47876" x2="18" y2="20.2199" gradientUnits="userSpaceOnUse">
<stop stop-color="#1F7A48"/>
<stop offset="1" stop-color="#1F7A48" stop-opacity="0"/>
</linearGradient>
</defs>
</svg>
