<svg width="1062" height="306" viewBox="0 0 1062 306" fill="none" xmlns="http://www.w3.org/2000/svg">
<g style="mix-blend-mode:multiply" opacity="0.1">
<path d="M13.7778 225.216L1 135.47V306.001H1061V73.3134L1038.48 81.8118H1014.46L1003.2 89.7694H988.181C984.178 91.0956 975.87 93.7481 974.669 93.7481C973.467 93.7481 965.66 95.3396 961.907 96.1354L929.626 98.5227L910.858 101.706L880.83 98.5227L865.065 96.1354L842.544 101.706H819.272L799.754 96.1354C792.247 95.3396 776.932 93.7481 775.731 93.7481C774.53 93.7481 764.721 92.1566 759.966 91.3609H747.955L714.889 51.4081L694.654 96.1354L683.394 101.706L652.111 106.48H632.346L611 59.9762L594.06 120.008H585.802L558.778 199.512L541.51 110.459L520.444 124.783L511.482 106.48L491.963 104.093L461.556 70.3801L437.912 106.48L408.222 91.8001L385.363 115.233L370.444 145.044L344.824 122.395L316.297 120.008L293.778 80.1721L271.255 124.783L250.235 122.395L232.667 257.04L197.686 124.783L150.391 127.966L125.618 41.0042L88.7778 139.536L63.2222 91.8001L46.5556 160.956L20.4444 180.54L13.7778 225.216Z" fill="url(#paint0_linear_643_78207)"/>
</g>
<path d="M1 135.47L14.3333 223.992L21 179.316L32.1111 173.196L47.1111 159.12L63.2222 91.8001L88.7778 140.148L126 40.3921L150.391 127.965H173.663L197.686 124.782L233.222 256.428L250.235 122.395L271.255 124.782L293.222 78.9481L316.297 120.008L344.824 122.395L369.333 144.432L385.363 115.233L407.111 91.8001L437.912 106.48L461 69.1561L491.963 104.093L511.482 106.48L521 124.782L541.51 110.459L559.333 198.9L585.802 120.008H594.06L610.444 59.9761L632.346 106.48H650.444L683.394 101.706L694.654 96.1353L715.444 52.6321L747.955 91.3608H759.966C764.721 92.1566 774.53 93.7481 775.731 93.7481C776.932 93.7481 792.246 95.3396 799.754 96.1353L819.272 101.706H842.544L865.065 96.1353L880.83 98.5226L910.858 101.706L929.626 98.5226L961.907 96.1353C965.66 95.3396 973.467 93.7481 974.669 93.7481C975.87 93.7481 984.178 91.0956 988.181 89.7693H1003.2L1014.46 81.8118H1038.48L1061 73.3134" stroke="#39B88D" stroke-width="2" stroke-linecap="round" stroke-linejoin="round"/>
<defs>
<linearGradient id="paint0_linear_643_78207" x1="531" y1="73.3134" x2="531" y2="295.642" gradientUnits="userSpaceOnUse">
<stop stop-color="#39B88D"/>
<stop offset="1" stop-color="#39B88D" stop-opacity="0"/>
</linearGradient>
</defs>
</svg>
