<svg width="470" height="244" viewBox="0 0 470 244" fill="none" xmlns="http://www.w3.org/2000/svg">
<g style="mix-blend-mode:multiply" opacity="0.1">
<path d="M469 112.053L453.792 221.05L447.456 106.51L436.518 110.037L424.604 80.365L413.98 108.273L403.509 131.215L392.768 106.51V90.535L371.555 106.51L358.96 102.396L349.68 104.159L339.981 120.48L329.793 100.633L318.151 57.765L307.918 100.633L295.094 106.51L287.7 93.5806L281.849 71.89L264.499 90.6421L253.396 20.475L243.618 90.6421H238.646L231.075 112.005L220.038 99.575L215.377 90.6421L207.038 142.515L196 119.915L190.255 90.6421L180.057 99.575L154.547 238.001L162.745 83.0018L150.868 56.635L139.212 79.4755H133.909C131.81 80.0632 127.479 81.2387 126.949 81.2387C126.419 81.2387 119.657 82.4141 116.343 83.0018L109.415 125.565L97.4504 87.1158L87.5071 83.0018L80.5468 84.7649L73.6038 40.25L67.289 87.1158L58.3962 149.295L44.7507 83.0018C44.7507 83.0018 38.3228 84.8849 37.7924 84.8849C37.2621 84.8849 34.1639 39.5345 32.3962 38.555L26.5212 78.3001L14.7358 52.68L7.86792 2.95996L1 66.1464V238.001H154.547H469V112.053Z" fill="url(#paint0_linear_643_78472)"/>
</g>
<path d="M469 112.053L453.547 223.875L447.456 106.51L436.518 110.037L424.358 78.3001L413.98 108.273L403.509 131.78L392.768 106.51V90.642L371.555 106.51L358.96 102.396L349.68 104.159L339.981 121.045L329.793 100.633L318.151 56.0699L307.918 100.633L295.34 106.51L287.7 93.5806L281.849 72.4229L264.499 90.642L253.641 19.9099L243.618 90.642H238.646L231.075 112.053L220.283 100.633L215.132 90.642L207.038 143.08L196.245 121.045L190.255 90.642L179.811 100.633L154.792 242.52L162.745 83.0018L150.868 56.0699L139.212 79.4755H133.909C131.81 80.0632 127.479 81.2386 126.949 81.2386C126.419 81.2386 119.657 82.414 116.343 83.0018L109.415 126.695L97.4504 87.1157L87.507 83.0018L80.5467 84.7649L73.6037 38.5549L67.2889 87.1157L58.6415 150.425L44.7506 83.0018C43.0934 82.414 38.0774 84.8849 37.5471 84.8849C37.0168 84.8849 34.1639 39.5344 32.3962 38.5549L26.5212 78.3001L14.9811 53.2449L7.86789 1.26489L0.999935 66.1463" stroke="#2169D6" stroke-width="2" stroke-linecap="round" stroke-linejoin="round"/>
<defs>
<linearGradient id="paint0_linear_643_78472" x1="235" y1="66.1464" x2="235" y2="230.35" gradientUnits="userSpaceOnUse">
<stop stop-color="#2169D6"/>
<stop offset="1" stop-color="#2169D6" stop-opacity="0"/>
</linearGradient>
</defs>
</svg>
