<svg width="470" height="246" viewBox="0 0 470 246" fill="none" xmlns="http://www.w3.org/2000/svg">
<g style="mix-blend-mode:multiply" opacity="0.1">
<path d="M11.6062 104.793L1 108.907V246.001H469V58.9381L459.057 65.7702H448.45L443.479 72.1674H436.85C435.082 73.2336 431.414 75.366 430.884 75.366C430.354 75.366 426.907 76.6454 425.249 77.2852L410.997 79.2043L402.711 81.7632L389.453 79.2043L382.493 77.2852L372.55 81.7632H362.275L353.657 77.2852C350.343 76.6454 343.581 75.366 343.051 75.366C342.521 75.366 338.19 74.0866 336.091 73.4468H330.788L318.193 75.366L307.255 77.2852L302.283 81.7632L287.368 83.6824L279.745 85.6016L271.127 88.8002L262.841 96.4769H259.195L249.252 94.5577L239.64 88.8002L231.354 85.6016H226.382L217.765 83.6824L205.501 85.6016H193.901L182.3 88.8002L170.7 92.6385L162.082 96.4769L152.802 98.396L140.207 96.4769L130.263 98.396L120.32 100.315L111.04 98.396L98.4448 102.874L87.8385 100.315L77.2323 102.874H66.9575L56.0198 104.793H44.7507L33.4816 106.712L22.5439 102.874L11.6062 104.793Z" fill="url(#paint0_linear_699_115115)"/>
</g>
<path d="M1 108.907L11.6062 104.793L22.5439 102.874L33.4816 106.712L44.7507 104.793H56.0198L66.9575 102.874H77.2323L87.8385 100.315L98.4448 102.874L111.04 98.396L120.32 100.315L130.263 98.396L140.207 96.4769L152.802 98.396L162.082 96.4769L170.7 92.6385L182.3 88.8002L193.901 85.6016H205.501L217.765 83.6824L226.382 85.6016H231.354L239.64 88.8002L249.252 94.5577L259.195 96.4769H262.841L271.127 88.8002L279.745 85.6016L287.368 83.6824L302.283 81.7632L307.255 77.2852L318.193 75.366L330.788 73.4468H336.091C338.19 74.0866 342.521 75.366 343.051 75.366C343.581 75.366 350.343 76.6454 353.657 77.2852L362.275 81.7632H372.55L382.493 77.2852L389.453 79.2043L402.711 81.7632L410.997 79.2043L425.249 77.2852C426.907 76.6454 430.354 75.366 430.884 75.366C431.414 75.366 435.082 73.2336 436.85 72.1674H443.479L448.45 65.7702H459.057L469 58.9381" stroke="#765FBE" stroke-width="2" stroke-linecap="round" stroke-linejoin="round"/>
<defs>
<linearGradient id="paint0_linear_699_115115" x1="235" y1="58.9381" x2="235" y2="237.672" gradientUnits="userSpaceOnUse">
<stop stop-color="#9747FF"/>
<stop offset="1" stop-color="#9747FF" stop-opacity="0"/>
</linearGradient>
</defs>
</svg>
