<svg width="470" height="185" viewBox="0 0 470 185" fill="none" xmlns="http://www.w3.org/2000/svg">
<g style="mix-blend-mode:multiply" opacity="0.1">
<path d="M1 85.2601L16.2075 167.249L22.5439 81.0911L33.4816 83.7436L45.3962 61.4242L56.0198 82.4173L66.4906 99.6742L77.2323 81.0911V69.0742L98.4448 81.0911L111.04 77.9965L120.32 79.3228L130.019 91.5992L140.207 76.6702L151.849 44.4242L162.082 76.6702L174.906 81.0911L182.3 71.3652L188.151 55.0492L205.501 69.1548L216.604 16.3742L226.382 69.1548H231.354L238.925 85.2242L249.962 75.8742L254.623 69.1548L262.962 108.174L274 91.1742L279.745 69.1548L289.943 75.8742L315.453 180L307.255 63.4077L319.132 43.5742L330.788 60.7552H336.091C338.19 61.1973 342.521 62.0814 343.051 62.0814C343.581 62.0814 350.343 62.9656 353.657 63.4077L360.585 95.4242L372.55 66.5023L382.493 63.4077L389.453 64.7339L396.396 31.2492L402.711 66.5023L411.604 113.274L425.249 63.4077C425.249 63.4077 431.677 64.8242 432.208 64.8242C432.738 64.8242 435.836 30.711 437.604 29.9742L443.479 59.871L455.264 40.5992L462.132 3.19922L469 50.7288V180H315.453H1V85.2601Z" fill="url(#paint0_linear_643_78607)"/>
</g>
<path d="M1 85.2609L16.4528 169.375L22.5439 81.0919L33.4816 83.7444L45.6415 59.8718L56.0198 82.4181L66.4906 100.1L77.2323 81.0919V69.1556L98.4448 81.0919L111.04 77.9973L120.32 79.3236L130.019 92.025L140.207 76.671L151.849 43.15L162.082 76.671L174.66 81.0919L182.3 71.366L188.151 55.451L205.501 69.1556L216.359 15.95L226.382 69.1556H231.354L238.925 85.2609L249.717 76.671L254.868 69.1556L262.962 108.6L273.755 92.025L279.745 69.1556L290.189 76.671L315.208 183.4L307.255 63.4085L319.132 43.15L330.788 60.756H336.091C338.19 61.1981 342.521 62.0822 343.051 62.0822C343.581 62.0822 350.343 62.9664 353.657 63.4085L360.585 96.275L372.55 66.5031L382.493 63.4085L389.453 64.7348L396.396 29.975L402.711 66.5031L411.359 114.125L425.249 63.4085C426.907 62.9664 431.923 64.825 432.453 64.825C432.983 64.825 435.836 30.7118 437.604 29.975L443.479 59.8718L455.019 41.025L462.132 1.92505L469 50.7296" stroke="#FD2EB3" stroke-width="2" stroke-linecap="round" stroke-linejoin="round"/>
<defs>
<linearGradient id="paint0_linear_643_78607" x1="235" y1="50.7288" x2="235" y2="174.244" gradientUnits="userSpaceOnUse">
<stop stop-color="#FD2EB3"/>
<stop offset="1" stop-color="#FD2EB3" stop-opacity="0"/>
</linearGradient>
</defs>
</svg>
