<svg width="1061" height="154" viewBox="0 0 1061 154" fill="none" xmlns="http://www.w3.org/2000/svg">
<g style="mix-blend-mode:multiply" opacity="0.1">
<path d="M1060 70.6933L1025.62 139.327L1011.3 67.2034L986.569 69.4239L959.634 50.7403L935.618 68.3137L911.947 82.7594L887.663 67.2034V57.1441L839.708 67.2034L811.235 64.6129L790.255 65.7232L768.329 75.9998L745.297 63.5027L718.978 36.5095L695.844 63.5027L666.854 67.2034L650.137 59.0619L636.911 45.4037L597.687 57.2115L572.588 13.0288L550.482 57.2115H539.242L522.128 70.6633L497.175 62.8364L486.639 57.2115L467.786 89.8748L442.833 75.644L429.846 57.2115L406.79 62.8364L349.122 150L367.654 52.4006L340.804 35.798L314.455 50.1802H302.466C297.721 50.5503 287.93 51.2904 286.731 51.2904C285.532 51.2904 270.246 52.0306 262.754 52.4006L247.092 79.2017L220.044 54.9911L197.565 52.4006L181.83 53.5108L166.134 25.4807L151.858 54.9911L131.755 94.144L100.907 52.4006C100.907 52.4006 86.375 53.5864 85.1761 53.5864C83.9773 53.5864 76.9732 25.0302 72.977 24.4134L59.6955 49.4401L33.0525 33.3076L17.5262 2L2 41.7871V150H349.122H1060V70.6933Z" fill="url(#paint0_linear_1160_33129)"/>
</g>
<path d="M1060 70.8005L1025.07 141.253L1011.3 67.3087L986.569 69.5304L959.08 49.5351L935.618 68.4195L911.947 83.2295L887.663 67.3087V57.3111L839.708 67.3087L811.235 64.7167L790.255 65.8275L768.329 76.466L745.297 63.6058L718.978 35.5293L695.844 63.6058L667.409 67.3087L650.137 59.1625L636.911 45.8323L597.687 57.3111L573.143 12.7471L550.482 57.3111H539.242L522.128 70.8005L497.73 63.6058L486.085 57.3111L467.786 90.3489L443.388 76.466L429.846 57.3111L406.236 63.6058L349.676 153L367.654 52.4974L340.804 35.5293L314.455 50.2757H302.466C297.72 50.646 287.93 51.3865 286.731 51.3865C285.532 51.3865 270.246 52.1271 262.754 52.4974L247.092 80.0258L220.044 55.0894L197.565 52.4974L181.83 53.6082L166.134 24.4941L151.858 55.0894L132.309 94.9766L100.906 52.4974C97.16 52.1271 85.8205 53.6838 84.6216 53.6838C83.4228 53.6838 76.9732 25.1113 72.977 24.4941L59.6954 49.5351L33.607 33.7494L17.5262 1L1.99997 41.8778" stroke="#FC306D" stroke-width="2" stroke-linecap="round" stroke-linejoin="round"/>
<defs>
<linearGradient id="paint0_linear_1160_33129" x1="531" y1="41.7871" x2="531" y2="145.182" gradientUnits="userSpaceOnUse">
<stop stop-color="#FC306D"/>
<stop offset="1" stop-color="#D6218E" stop-opacity="0"/>
</linearGradient>
</defs>
</svg>
