<svg width="470" height="296" viewBox="0 0 470 296" fill="none" xmlns="http://www.w3.org/2000/svg">
<g style="mix-blend-mode:multiply" opacity="0.1">
<path d="M6.64151 217.856L1 131.043V296.001H469V70.9175L459.057 79.1382H448.45L443.479 86.8356H436.85C435.082 88.1186 431.414 90.6844 430.884 90.6844C430.354 90.6844 426.907 92.2239 425.249 92.9936L410.997 95.3029L402.711 98.3819L389.453 95.3029L382.493 92.9936L372.55 98.3819H362.275L353.657 92.9936C350.343 92.2239 343.581 90.6844 343.051 90.6844C342.521 90.6844 338.19 89.1449 336.091 88.3751H330.788L316.189 49.7281L307.255 92.9936L302.283 98.3819L288.472 103H279.745L270.321 58.0161L262.841 116.086H259.195L247.264 192.992L239.64 106.849L230.34 120.705L226.382 103L217.765 100.691L204.34 68.0801L193.901 103L180.792 88.8001L170.7 111.468L164.113 140.304L152.802 118.395L140.207 116.086L130.264 77.5521L120.32 120.705L111.04 118.395L103.283 248.64L87.8385 120.705L66.9575 123.784L56.0198 39.6641L39.7547 134.976L28.4717 88.8001L21.1132 155.696L9.58491 174.64L6.64151 217.856Z" fill="url(#paint0_linear_699_115111)"/>
</g>
<path d="M1 131.043L6.88679 216.673L9.83019 173.457L14.7358 167.537L21.3585 153.921L28.4717 88.8009L39.7547 135.569L56.1887 39.0729L66.9575 123.784H77.2323L87.8385 120.705L103.528 248.049L111.04 118.396L120.32 120.705L130.019 76.3689L140.207 116.087L152.802 118.396L163.623 139.713L170.7 111.468L180.302 88.8009L193.901 103.001L204.094 66.8969L217.765 100.692L226.382 103.001L230.585 120.705L239.64 106.85L247.509 192.401L259.195 116.087H262.841L270.075 58.0169L279.745 103.001H287.736L302.283 98.3827L307.255 92.9945L316.434 50.9129L330.788 88.376H336.091C338.19 89.1458 342.521 90.6853 343.051 90.6853C343.581 90.6853 350.343 92.2248 353.657 92.9945L362.275 98.3827H372.55L382.493 92.9945L389.453 95.3037L402.711 98.3827L410.997 95.3037L425.249 92.9945C426.907 92.2248 430.354 90.6853 430.884 90.6853C431.414 90.6853 435.082 88.1194 436.85 86.8365H443.479L448.45 79.139H459.057L469 70.9184" stroke="#39B88D" stroke-width="2" stroke-linecap="round" stroke-linejoin="round"/>
<defs>
<linearGradient id="paint0_linear_699_115111" x1="235" y1="70.9175" x2="235" y2="285.98" gradientUnits="userSpaceOnUse">
<stop stop-color="#39B88D"/>
<stop offset="1" stop-color="#39B88D" stop-opacity="0"/>
</linearGradient>
</defs>
</svg>
