<svg width="1062" height="167" viewBox="0 0 1062 167" fill="none" xmlns="http://www.w3.org/2000/svg">
<g style="mix-blend-mode:multiply" opacity="0.1">
<path d="M25.0227 70.9427L1 73.7185V166.229H1061V39.9998L1038.48 44.61H1014.46L1003.2 48.9268H988.181C984.178 49.6463 975.87 51.0852 974.669 51.0852C973.467 51.0852 965.66 51.9486 961.906 52.3803L929.626 53.6753L910.858 55.4021L880.83 53.6753L865.065 52.3803L842.544 55.4021H819.272L799.754 52.3803C792.246 51.9486 776.932 51.0852 775.731 51.0852C774.53 51.0852 764.72 50.2219 759.966 49.7902H747.955L719.428 51.0852L694.654 52.3803L683.394 55.4021L649.612 56.6971L632.346 57.9922L612.827 60.1506L594.059 65.3308H585.802L563.28 64.0357L541.51 60.1506L522.742 57.9922H511.482L491.963 56.6971L464.187 57.9922H437.912L411.637 60.1506L385.363 62.7407L365.844 65.3308L344.824 66.6258L316.297 65.3308L293.776 66.6258L271.255 67.9209L250.235 66.6258L221.708 69.6476L197.686 67.9209L173.663 69.6476H150.391L125.618 70.9427H100.093L74.5694 72.2377L49.796 69.6476L25.0227 70.9427Z" fill="url(#paint0_linear_1160_33121)"/>
</g>
<path d="M1 73.49L25.0227 70.7142L49.796 69.4191L74.5694 72.0092L100.093 70.7142H125.618L150.391 69.4191H173.663L197.686 67.6924L221.708 69.4191L250.235 66.3973L271.255 67.6924L293.776 66.3973L316.297 65.1023L344.824 66.3973L365.844 65.1023L385.363 62.5122L411.637 59.9221L437.912 57.7637H464.187L491.963 56.4686L511.482 57.7637H522.742L541.51 59.9221L563.28 63.8072L585.802 65.1023H594.059L612.827 59.9221L632.346 57.7637L649.612 56.4686L683.394 55.1736L694.654 52.1518L719.428 50.8567L747.955 49.5617H759.966C764.72 49.9934 774.53 50.8567 775.731 50.8567C776.932 50.8567 792.246 51.7201 799.754 52.1518L819.272 55.1736H842.544L865.065 52.1518L880.83 53.4468L910.858 55.1736L929.626 53.4468L961.907 52.1518C965.66 51.7201 973.467 50.8567 974.669 50.8567C975.87 50.8567 984.178 49.4178 988.181 48.6983H1003.2L1014.46 44.3815H1038.48L1061 39.7712" stroke="#765FBE" stroke-width="2" stroke-linecap="round" stroke-linejoin="round"/>
<defs>
<linearGradient id="paint0_linear_1160_33121" x1="531" y1="39.9998" x2="531" y2="160.609" gradientUnits="userSpaceOnUse">
<stop stop-color="#9747FF"/>
<stop offset="1" stop-color="#9747FF" stop-opacity="0"/>
</linearGradient>
</defs>
</svg>
