<svg width="470" height="251" viewBox="0 0 470 251" fill="none" xmlns="http://www.w3.org/2000/svg">
<g style="mix-blend-mode:multiply" opacity="0.1">
<path d="M11.6062 106.841L1 111.022V250.345H469V60.2407L459.057 67.1839H448.45L443.479 73.6851H436.85C435.082 74.7687 431.414 76.9357 430.884 76.9357C430.354 76.9357 426.907 78.236 425.249 78.8861L410.997 80.8365L402.711 83.437L389.453 80.8365L382.493 78.8861L372.55 83.437H362.275L353.657 78.8861C350.343 78.236 343.581 76.9357 343.051 76.9357C342.521 76.9357 338.19 75.6355 336.091 74.9854H330.788L318.193 76.9357L307.255 78.8861L302.283 83.437L287.368 85.3874L279.745 87.3377L271.127 90.5884L262.841 98.3899H259.195L249.252 96.4395L239.64 90.5884L231.354 87.3377H226.382L217.765 85.3874L205.501 87.3377H193.901L182.3 90.5884L170.7 94.4891L162.082 98.3899L152.802 100.34L140.207 98.3899L130.263 100.34L120.32 102.291L111.04 100.34L98.4448 104.891L87.8385 102.291L77.2323 104.891H66.9575L56.0198 106.841H44.7507L33.4816 108.792L22.5439 104.891L11.6062 106.841Z" fill="url(#paint0_linear_643_78464)"/>
</g>
<path d="M1 110.678L11.6062 106.497L22.5439 104.547L33.4816 108.448L44.7507 106.497H56.0198L66.9575 104.547H77.2323L87.8385 101.946L98.4448 104.547L111.04 99.996L120.32 101.946L130.263 99.996L140.207 98.0456L152.802 99.996L162.082 98.0456L170.7 94.1449L182.3 90.2441L193.901 86.9935H205.501L217.765 85.0431L226.382 86.9935H231.354L239.64 90.2441L249.252 96.0953L259.195 98.0456H262.841L271.127 90.2441L279.745 86.9935L287.368 85.0431L302.283 83.0928L307.255 78.5419L318.193 76.5915L330.788 74.6411H336.091C338.19 75.2912 342.521 76.5915 343.051 76.5915C343.581 76.5915 350.343 77.8917 353.657 78.5419L362.275 83.0928H372.55L382.493 78.5419L389.453 80.4922L402.711 83.0928L410.997 80.4922L425.249 78.5419C426.907 77.8917 430.354 76.5915 430.884 76.5915C431.414 76.5915 435.082 74.4244 436.85 73.3409H443.479L448.45 66.8396H459.057L469 59.8965" stroke="#765FBE" stroke-width="2" stroke-linecap="round" stroke-linejoin="round"/>
<defs>
<linearGradient id="paint0_linear_643_78464" x1="235" y1="60.2407" x2="235" y2="241.881" gradientUnits="userSpaceOnUse">
<stop stop-color="#9747FF"/>
<stop offset="1" stop-color="#9747FF" stop-opacity="0"/>
</linearGradient>
</defs>
</svg>
