<svg width="468" height="272" viewBox="0 0 468 272" fill="none" xmlns="http://www.w3.org/2000/svg">
<g style="mix-blend-mode:multiply" opacity="0.1">
<path d="M1 125.004L16.1426 247.024L22.4518 118.8L33.3428 122.748L45.2065 89.5311L55.7847 120.774L66.2107 146.456L76.9065 118.8V100.916L98.0283 118.8L110.569 114.195L119.81 116.168L129.467 134.439L139.612 112.221L151.204 64.2311L161.394 112.221L174.162 118.8L181.525 104.326L187.351 80.0436L204.627 101.036L215.682 22.4861L225.419 101.036H230.37L237.908 124.951L248.898 111.036L253.539 101.036L261.843 159.106L272.833 133.806L278.554 101.036L288.709 111.036L314.109 265.999L305.946 92.483L317.773 62.9661L329.378 88.5354H334.659C336.749 89.1933 341.061 90.5092 341.589 90.5092C342.117 90.5092 348.85 91.825 352.15 92.483L359.048 140.131L370.962 97.0885L380.863 92.483L387.793 94.4568L394.707 44.6236L400.994 97.0885L409.849 166.696L423.436 92.483C423.436 92.483 429.837 94.5911 430.365 94.5911C430.893 94.5911 433.978 43.8226 435.738 42.7261L441.588 87.2196L453.323 58.5386L460.161 2.8786L467 73.6138V265.999H314.109H1V125.004Z" fill="url(#paint0_linear_699_115119)"/>
</g>
<path d="M1 125.006L16.3868 250.187L22.4518 118.801L33.3428 122.749L45.4507 87.2209L55.7847 120.775L66.2107 147.09L76.9065 118.801V101.037L98.0283 118.801L110.569 114.196L119.81 116.17L129.467 135.072L139.612 112.222L151.204 62.335L161.394 112.222L173.918 118.801L181.525 104.327L187.351 80.6417L204.627 101.037L215.438 21.855L225.419 101.037H230.37L237.908 125.006L248.654 112.222L253.783 101.037L261.843 159.74L272.589 135.072L278.554 101.037L288.953 112.222L313.865 271.06L305.946 92.4843L317.773 62.335L329.378 88.5368H334.659C336.749 89.1947 341.061 90.5106 341.589 90.5106C342.117 90.5106 348.85 91.8264 352.15 92.4843L359.048 141.397L370.962 97.0898L380.863 92.4843L387.793 94.4581L394.706 42.7275L400.994 97.0898L409.605 167.962L423.436 92.4843C425.086 91.8264 430.081 94.5925 430.609 94.5925C431.137 94.5925 433.978 43.824 435.738 42.7275L441.588 87.2209L453.079 59.1725L460.161 0.982483L467 73.6152" stroke="#1C1C1C" stroke-linecap="round" stroke-linejoin="round"/>
<defs>
<linearGradient id="paint0_linear_699_115119" x1="234" y1="73.6138" x2="234" y2="257.434" gradientUnits="userSpaceOnUse">
<stop stop-color="#1C1C1C"/>
<stop offset="1" stop-color="#1C1C1C" stop-opacity="0"/>
</linearGradient>
</defs>
</svg>
