<svg width="470" height="192" viewBox="0 0 470 192" fill="none" xmlns="http://www.w3.org/2000/svg">
<g style="mix-blend-mode:multiply" opacity="0.1">
<path d="M6.64151 133.92L1 69.3966V192.001H469V24.7091L459.057 30.8191H448.45L443.479 36.5402H436.85C435.082 37.4937 431.414 39.4007 430.884 39.4007C430.354 39.4007 426.907 40.545 425.249 41.1171L410.997 42.8334L402.711 45.1218L389.453 42.8334L382.493 41.1171L372.55 45.1218H362.275L353.657 41.1171C350.343 40.545 343.581 39.4007 343.051 39.4007C342.521 39.4007 338.19 38.2565 336.091 37.6844H330.788L316.189 8.96022L307.255 41.1171L302.283 45.1218L288.472 48.5545H279.745L270.321 15.1202L262.841 58.2804H259.195L247.264 115.44L239.64 51.415L230.34 61.713L226.382 48.5545L217.765 46.8382L204.34 22.6002L193.901 48.5545L180.792 38.0002L170.7 54.8477L164.113 76.2802L152.802 59.9967L140.207 58.2804L130.264 29.6402L120.32 61.713L111.04 59.9967L103.283 156.8L87.8385 61.713L66.9575 64.0015L56.0198 1.48022L39.7547 72.3202L28.4717 38.0002L21.1132 87.7202L9.58491 101.8L6.64151 133.92Z" fill="url(#paint0_linear_643_78597)"/>
</g>
<path d="M1 69.3972L6.88679 133.041L9.83019 100.921L14.7359 96.5208L21.3585 86.4008L28.4717 38.0008L39.7547 72.7608L56.1887 1.04077L66.9575 64.002H77.2323L87.8385 61.7136L103.528 156.361L111.04 59.9973L120.32 61.7136L130.019 28.7608L140.207 58.2809L152.802 59.9973L163.623 75.8408L170.7 54.8483L180.302 38.0008L193.901 48.5551L204.094 21.7208L217.765 46.8387L226.382 48.5551L230.585 61.7136L239.64 51.4156L247.509 115.001L259.196 58.2809H262.841L270.075 15.1208L279.745 48.5551H287.736L302.283 45.1224L307.255 41.1176L316.434 9.84077L330.788 37.685H336.091C338.19 38.2571 342.521 39.4013 343.051 39.4013C343.581 39.4013 350.343 40.5455 353.657 41.1176L362.275 45.1224H372.55L382.493 41.1176L389.453 42.834L402.711 45.1224L410.997 42.834L425.249 41.1176C426.907 40.5455 430.354 39.4013 430.884 39.4013C431.414 39.4013 435.082 37.4943 436.85 36.5407H443.479L448.45 30.8196H459.057L469 24.7097" stroke="#39B88D" stroke-width="2" stroke-linecap="round" stroke-linejoin="round"/>
<defs>
<linearGradient id="paint0_linear_643_78597" x1="235" y1="24.7091" x2="235" y2="184.553" gradientUnits="userSpaceOnUse">
<stop stop-color="#39B88D"/>
<stop offset="1" stop-color="#39B88D" stop-opacity="0"/>
</linearGradient>
</defs>
</svg>
