<svg width="1062" height="277" viewBox="0 0 1062 277" fill="none" xmlns="http://www.w3.org/2000/svg">
<g style="mix-blend-mode:multiply" opacity="0.1">
<path d="M1 127.334L35.4444 250.8L49.796 121.056L74.5694 125.05L101.556 91.44L125.618 123.053L149.333 149.04L173.663 121.056V102.96L221.708 121.056L250.235 116.396L271.255 118.393L293.222 136.88L316.297 114.399L342.667 65.84L365.844 114.399L394.889 121.056L411.637 106.41L424.889 81.84L464.187 103.081L489.333 23.6L511.482 103.081H522.742L539.889 127.28L564.889 113.2L575.444 103.081L594.333 161.84L619.333 136.24L632.346 103.081L655.444 113.2L713.222 270.001L694.654 94.4269L721.556 64.56L747.955 90.4325H759.966C764.721 91.0983 774.53 92.4297 775.731 92.4297C776.932 92.4297 792.247 93.7612 799.754 94.4269L815.444 142.64L842.544 99.087L865.065 94.4269L880.83 96.4241L896.556 46L910.858 99.087L931 169.52L961.907 94.4269C961.907 94.4269 976.466 96.56 977.667 96.56C978.868 96.56 985.885 45.1896 989.889 44.08L1003.2 89.1011L1029.89 60.08L1045.44 3.76001L1061 75.334V270.001H713.222H1V127.334Z" fill="url(#paint0_linear_643_78215)"/>
</g>
<path d="M1 127.334L36 254L49.796 121.056L74.5694 125.05L102.111 89.1011L125.618 123.053L149.333 149.68L173.663 121.056V103.081L221.708 121.056L250.235 116.396L271.255 118.393L293.222 137.52L316.297 114.399L342.667 63.9201L365.844 114.399L394.333 121.056L411.637 106.41L424.889 82.4439L464.187 103.081L488.778 22.9601L511.482 103.081H522.742L539.889 127.334L564.333 114.399L576 103.081L594.333 162.48L618.778 137.52L632.346 103.081L656 114.399L712.667 275.12L694.654 94.427L721.556 63.9201L747.955 90.4326H759.966C764.721 91.0983 774.53 92.4298 775.731 92.4298C776.932 92.4298 792.246 93.7612 799.754 94.427L815.444 143.92L842.544 99.0871L865.065 94.427L880.83 96.4241L896.556 44.0801L910.858 99.0871L930.444 170.8L961.907 94.427C965.66 93.7612 977.021 96.5601 978.222 96.5601C979.423 96.5601 985.885 45.1896 989.889 44.0801L1003.2 89.1011L1029.33 60.7201L1045.44 1.84009L1061 75.3341" stroke="#FD2EB3" stroke-width="2" stroke-linecap="round" stroke-linejoin="round"/>
<defs>
<linearGradient id="paint0_linear_643_78215" x1="531" y1="75.334" x2="531" y2="261.334" gradientUnits="userSpaceOnUse">
<stop stop-color="#FD2EB3"/>
<stop offset="1" stop-color="#FD2EB3" stop-opacity="0"/>
</linearGradient>
</defs>
</svg>
