<svg width="458" height="198" viewBox="0 0 458 198" fill="none" xmlns="http://www.w3.org/2000/svg">
<g style="mix-blend-mode:multiply" opacity="0.1">
<path d="M6.49686 145.728L1 87.6567V198.001H457V47.438L447.312 52.937H436.977L432.133 58.0859H425.674C423.952 58.9441 420.378 60.6604 419.861 60.6604C419.344 60.6604 415.986 61.6902 414.371 62.2051L400.484 63.7498L392.411 65.8094L379.493 63.7498L372.711 62.2051L363.023 65.8094H353.011L344.615 62.2051C341.385 61.6902 334.797 60.6604 334.28 60.6604C333.764 60.6604 329.544 59.6306 327.499 59.1157H322.331L308.107 33.264L299.402 62.2051L294.558 65.8094L281.101 68.8988H272.598L263.415 38.808L256.127 77.6521H252.575L240.95 129.096L233.521 71.4733L224.459 80.7415L220.603 68.8988L212.207 67.3541L199.126 45.54L188.955 68.8988L176.182 59.4L166.348 74.5627L159.931 93.852L148.909 79.1968L136.637 77.6521L126.95 51.876L117.261 80.7415L108.218 79.1968L100.66 166.32L85.6119 80.7415L65.2663 82.8011L54.6091 26.532L38.761 90.288L27.7673 59.4L20.5975 104.148L9.36478 116.82L6.49686 145.728Z" fill="url(#paint0_linear_643_78460)"/>
</g>
<path d="M1 87.6568L6.73585 144.936L9.60377 116.028L14.3836 112.068L20.8365 102.96L27.7673 59.4L38.761 90.684L54.7736 26.136L65.2663 82.8011H75.2776L85.6119 80.7415L100.899 165.924L108.218 79.1968L117.261 80.7415L126.711 51.084L136.637 77.6521L148.909 79.1968L159.453 93.456L166.348 74.5627L175.704 59.4L188.955 68.8988L198.887 44.748L212.207 67.3541L220.603 68.8988L224.698 80.7415L233.521 71.4733L241.189 128.7L252.575 77.6521H256.128L263.176 38.808L272.598 68.8988H280.384L294.558 65.8094L299.402 62.2051L308.346 34.056L322.331 59.1158H327.499C329.544 59.6307 333.764 60.6605 334.28 60.6605C334.797 60.6605 341.385 61.6903 344.615 62.2051L353.011 65.8094H363.023L372.711 62.2051L379.493 63.7498L392.411 65.8094L400.485 63.7498L414.371 62.2051C415.986 61.6903 419.345 60.6605 419.861 60.6605C420.378 60.6605 423.952 58.9441 425.674 58.086H432.133L436.977 52.937H447.312L457 47.438" stroke="#E87D00" stroke-width="2" stroke-linecap="round" stroke-linejoin="round"/>
<defs>
<linearGradient id="paint0_linear_643_78460" x1="229" y1="47.438" x2="229" y2="191.297" gradientUnits="userSpaceOnUse">
<stop stop-color="#E87D00"/>
<stop offset="1" stop-color="#E87D00" stop-opacity="0"/>
</linearGradient>
</defs>
</svg>
