<svg width="36" height="23" viewBox="0 0 36 23" fill="none" xmlns="http://www.w3.org/2000/svg">
<g style="mix-blend-mode:multiply" opacity="0.1">
<path d="M1.40985 16.3086L1 8.87503V23H35V3.72669L34.2776 4.4306H33.5071L33.1459 5.08971H32.6643C32.5359 5.19957 32.2694 5.41927 32.2309 5.41927C32.1923 5.41927 31.9419 5.5511 31.8215 5.61701L30.7861 5.81474L30.1841 6.07839L29.221 5.81474L28.7153 5.61701L27.9929 6.07839H27.2465L26.6204 5.61701C26.3796 5.5511 25.8884 5.41927 25.8499 5.41927C25.8113 5.41927 25.4967 5.28745 25.3442 5.22154H24.9589L23.8983 1.91229L23.2493 5.61701L22.8881 6.07839L21.8847 6.47386H21.2507L20.566 2.62197L20.0227 7.59435H19.7578L18.891 14.1796L18.3371 6.80341L17.6614 7.98982L17.3739 6.47386L16.7479 6.27612L15.7725 3.48372L15.0142 6.47386L14.0618 5.25792L13.3286 7.19888L12.8501 9.66807L12.0283 7.79209L11.1133 7.59435L10.391 4.29479L9.66855 7.98982L8.99433 7.79209L8.43082 18.9446L7.30878 7.98982L5.79178 8.25347L4.99717 1.05054L3.81551 9.21185L2.99581 5.25792L2.46122 10.986L1.62369 12.6082L1.40985 16.3086Z" fill="url(#paint0_linear_3316_1447)"/>
</g>
<path d="M1 8.87518L1.42767 16.2074L1.64151 12.5069L1.9979 12L2.47904 10.8341L2.99581 5.25808L3.81551 9.2627L5.00943 1L5.79178 8.25362H6.53824L7.30878 7.98998L8.44864 18.8941L8.99433 7.79224L9.66855 7.98998L10.3732 4.19356L11.1133 7.59451L12.0283 7.79224L12.8145 9.61754L13.3286 7.19904L14.0262 5.25808L15.0142 6.47401L15.7547 3.3825L16.7479 6.27628L17.3739 6.47401L17.6792 7.98998L18.3371 6.80357L18.9088 14.1291L19.7578 7.59451H20.0227L20.5482 2.62212L21.2507 6.47401H21.8312L22.8881 6.07854L23.2493 5.61716L23.9161 2.01383L24.9589 5.22169H25.3442C25.4967 5.2876 25.8113 5.41943 25.8499 5.41943C25.8884 5.41943 26.3796 5.55125 26.6204 5.61716L27.2465 6.07854H27.9929L28.7153 5.61716L29.221 5.8149L30.1841 6.07854L30.7861 5.8149L31.8215 5.61716C31.9419 5.55125 32.1923 5.41943 32.2309 5.41943C32.2694 5.41943 32.5359 5.19972 32.6643 5.08987H33.1459L33.5071 4.43075H34.2776L35 3.72684" stroke="#189E54" stroke-width="0.19404" stroke-linecap="round" stroke-linejoin="round"/>
<defs>
<linearGradient id="paint0_linear_3316_1447" x1="18" y1="3.72669" x2="18" y2="22.1419" gradientUnits="userSpaceOnUse">
<stop stop-color="#1F7A48"/>
<stop offset="1" stop-color="#1F7A48" stop-opacity="0"/>
</linearGradient>
</defs>
</svg>
