<svg width="470" height="305" viewBox="0 0 470 305" fill="none" xmlns="http://www.w3.org/2000/svg">
<g style="mix-blend-mode:multiply" opacity="0.1">
<path d="M6.64151 224.48L1 135.027V305.001H469V73.0738L459.057 81.5444H448.45L443.479 89.476H436.85C435.082 90.7979 431.414 93.4417 430.884 93.4417C430.354 93.4417 426.907 95.028 425.249 95.8212L410.997 98.2007L402.711 101.373L389.453 98.2007L382.493 95.8212L372.55 101.373H362.275L353.657 95.8212C350.343 95.028 343.581 93.4417 343.051 93.4417C342.521 93.4417 338.19 91.8554 336.091 91.0623H330.788L316.189 51.2401L307.255 95.8212L302.283 101.373L288.472 106.132H279.745L270.321 59.7801L262.841 119.616H259.195L247.264 198.86L239.64 110.098L230.34 124.375L226.382 106.132L217.765 103.753L204.34 70.1501L193.901 106.132L180.792 91.5001L170.7 114.857L164.113 144.57L152.802 121.995L140.207 119.616L130.264 79.9101L120.32 124.375L111.04 121.995L103.283 256.2L87.8385 124.375L66.9575 127.547L56.0198 40.8701L39.7547 139.08L28.4717 91.5001L21.1132 160.43L9.58491 179.95L6.64151 224.48Z" fill="url(#paint0_linear_643_78456)"/>
</g>
<path d="M1 135.027L6.88679 223.26L9.83019 178.73L14.7359 172.63L21.3585 158.6L28.4717 91.5L39.7547 139.69L56.1887 40.26L66.9575 127.547H77.2323L87.8385 124.375L103.528 255.59L111.04 121.995L120.32 124.375L130.019 78.69L140.207 119.616L152.802 121.995L163.623 143.96L170.7 114.857L180.302 91.5L193.901 106.132L204.094 68.93L217.765 103.753L226.382 106.132L230.585 124.375L239.64 110.098L247.509 198.25L259.196 119.616H262.841L270.075 59.78L279.745 106.132H287.736L302.283 101.373L307.255 95.8211L316.434 52.46L330.788 91.0622H336.091C338.19 91.8553 342.521 93.4416 343.051 93.4416C343.581 93.4416 350.343 95.0279 353.657 95.8211L362.275 101.373H372.55L382.493 95.8211L389.453 98.2006L402.711 101.373L410.997 98.2006L425.249 95.8211C426.907 95.0279 430.354 93.4416 430.884 93.4416C431.414 93.4416 435.082 90.7978 436.85 89.4759H443.479L448.45 81.5443H459.057L469 73.0737" stroke="#059471" stroke-width="2" stroke-linecap="round" stroke-linejoin="round"/>
<defs>
<linearGradient id="paint0_linear_643_78456" x1="235" y1="73.0738" x2="235" y2="294.675" gradientUnits="userSpaceOnUse">
<stop stop-color="#059471"/>
<stop offset="1" stop-color="#059471" stop-opacity="0"/>
</linearGradient>
</defs>
</svg>
