<svg width="1062" height="256" viewBox="0 0 1062 256" fill="none" xmlns="http://www.w3.org/2000/svg">
<g style="mix-blend-mode:multiply" opacity="0.1">
<path d="M25.0227 109.053L1 113.334V256.001H1061V61.334L1038.48 68.4438H1014.46L1003.2 75.101H988.181C984.178 76.2106 975.87 78.4297 974.669 78.4297C973.467 78.4297 965.66 79.7611 961.906 80.4269L929.626 82.424L910.858 85.087L880.83 82.424L865.065 80.4269L842.544 85.087H819.272L799.754 80.4269C792.246 79.7611 776.932 78.4297 775.731 78.4297C774.53 78.4297 764.72 77.0982 759.966 76.4325H747.955L719.428 78.4297L694.654 80.4269L683.394 85.087L649.612 87.0841L632.346 89.0813L612.827 92.41L594.059 100.399H585.802L563.28 98.4015L541.51 92.41L522.742 89.0813H511.482L491.963 87.0841L464.187 89.0813H437.912L411.637 92.41L385.363 96.4043L365.844 100.399L344.824 102.396L316.297 100.399L293.776 102.396L271.255 104.393L250.235 102.396L221.708 107.056L197.686 104.393L173.663 107.056H150.391L125.618 109.053H100.093L74.5694 111.05L49.796 107.056L25.0227 109.053Z" fill="url(#paint0_linear_643_78211)"/>
</g>
<path d="M1 113.334L25.0227 109.053L49.796 107.056L74.5694 111.05L100.093 109.053H125.618L150.391 107.056H173.663L197.686 104.393L221.708 107.056L250.235 102.396L271.255 104.393L293.776 102.396L316.297 100.399L344.824 102.396L365.844 100.399L385.363 96.4043L411.637 92.41L437.912 89.0813H464.187L491.963 87.0841L511.482 89.0813H522.742L541.51 92.41L563.28 98.4015L585.802 100.399H594.059L612.827 92.41L632.346 89.0813L649.612 87.0841L683.394 85.087L694.654 80.4269L719.428 78.4297L747.955 76.4325H759.966C764.72 77.0982 774.53 78.4297 775.731 78.4297C776.932 78.4297 792.246 79.7611 799.754 80.4269L819.272 85.087H842.544L865.065 80.4269L880.83 82.424L910.858 85.087L929.626 82.424L961.907 80.4269C965.66 79.7611 973.467 78.4297 974.669 78.4297C975.87 78.4297 984.178 76.2106 988.181 75.101H1003.2L1014.46 68.4438H1038.48L1061 61.334" stroke="#765FBE" stroke-width="2" stroke-linecap="round" stroke-linejoin="round"/>
<defs>
<linearGradient id="paint0_linear_643_78211" x1="531" y1="61.334" x2="531" y2="247.334" gradientUnits="userSpaceOnUse">
<stop stop-color="#9747FF"/>
<stop offset="1" stop-color="#9747FF" stop-opacity="0"/>
</linearGradient>
</defs>
</svg>
