<svg width="470" height="170" viewBox="0 0 470 170" fill="none" xmlns="http://www.w3.org/2000/svg">
<g style="mix-blend-mode:multiply" opacity="0.1">
<path d="M11.6062 72.418L1 75.2607V170H469V40.7295L459.057 45.4508H448.45L443.479 49.8717H436.85C435.082 50.6085 431.414 52.0821 430.884 52.0821C430.354 52.0821 426.907 52.9663 425.249 53.4084L410.997 54.7346L402.711 56.5029L389.453 54.7346L382.493 53.4084L372.55 56.5029H362.275L353.657 53.4084C350.343 52.9663 343.581 52.0821 343.051 52.0821C342.521 52.0821 338.19 51.1979 336.091 50.7558H330.788L318.193 52.0821L307.255 53.4084L302.283 56.5029L287.368 57.8292L279.745 59.1555L271.127 61.3659L262.841 66.6709H259.195L249.252 65.3447L239.64 61.3659L231.354 59.1555H226.382L217.765 57.8292L205.501 59.1555H193.901L182.3 61.3659L170.7 64.0184L162.082 66.6709L152.802 67.9972L140.207 66.6709L130.263 67.9972L120.32 69.3234L111.04 67.9972L98.4448 71.0918L87.8385 69.3234L77.2323 71.0918H66.9575L56.0198 72.418H44.7507L33.4816 73.7443L22.5439 71.0918L11.6062 72.418Z" fill="url(#paint0_linear_643_78603)"/>
</g>
<path d="M1 75.2607L11.6062 72.418L22.5439 71.0918L33.4816 73.7443L44.7507 72.418H56.0198L66.9575 71.0918H77.2323L87.8385 69.3234L98.4448 71.0918L111.04 67.9972L120.32 69.3234L130.263 67.9972L140.207 66.6709L152.802 67.9972L162.082 66.6709L170.7 64.0184L182.3 61.3659L193.901 59.1555H205.501L217.765 57.8292L226.382 59.1555H231.354L239.64 61.3659L249.252 65.3447L259.195 66.6709H262.841L271.127 61.3659L279.745 59.1555L287.368 57.8292L302.283 56.5029L307.255 53.4084L318.193 52.0821L330.788 50.7558H336.091C338.19 51.1979 342.521 52.0821 343.051 52.0821C343.581 52.0821 350.343 52.9663 353.657 53.4084L362.275 56.5029H372.55L382.493 53.4084L389.453 54.7346L402.711 56.5029L410.997 54.7346L425.249 53.4084C426.907 52.9663 430.354 52.0821 430.884 52.0821C431.414 52.0821 435.082 50.6085 436.85 49.8717H443.479L448.45 45.4508H459.057L469 40.7295" stroke="#765FBE" stroke-width="2" stroke-linecap="round" stroke-linejoin="round"/>
<defs>
<linearGradient id="paint0_linear_643_78603" x1="235" y1="40.7295" x2="235" y2="164.245" gradientUnits="userSpaceOnUse">
<stop stop-color="#9747FF"/>
<stop offset="1" stop-color="#9747FF" stop-opacity="0"/>
</linearGradient>
</defs>
</svg>
