<svg width="97" height="96" viewBox="0 0 97 96" fill="none" xmlns="http://www.w3.org/2000/svg">
<g opacity="0.03">
<g clip-path="url(#clip0_643_77904)">
<path d="M48.7998 96C75.4 96 96.7998 74.6002 96.7998 48C96.7998 21.3998 75.4 0 48.7998 0C22.1996 0 0.799805 21.3998 0.799805 48C0.799805 74.6002 22.1996 96 48.7998 96Z" fill="#2775CA"/>
<path d="M60.3435 52.9718C60.3435 46.9955 56.7576 44.9465 49.5859 44.0928C44.4632 43.4097 43.4387 42.0438 43.4387 39.6529C43.4387 37.2621 45.1464 35.7257 48.5614 35.7257C51.635 35.7257 53.3427 36.7502 54.1963 39.3115C54.3672 39.8238 54.8795 40.1652 55.3917 40.1652H58.1235C58.8067 40.1652 59.319 39.6529 59.319 38.9702V38.7993C58.6358 35.0425 55.5622 32.1398 51.635 31.7984V27.7003C51.635 27.0171 51.1227 26.5049 50.2691 26.334H47.7077C47.0246 26.334 46.5123 26.8463 46.3414 27.7003V31.6275C41.2187 32.3107 37.9747 35.7257 37.9747 39.9947C37.9747 45.6296 41.3896 47.8492 48.5614 48.7032C53.3427 49.5569 54.8795 50.5814 54.8795 53.3136C54.8795 56.0458 52.4886 57.924 49.2445 57.924C44.8046 57.924 43.2678 56.0454 42.7555 53.4841C42.5851 52.8013 42.0728 52.4596 41.5605 52.4596H38.6574C37.9747 52.4596 37.4624 52.9718 37.4624 53.655V53.8259C38.1452 58.0945 40.8774 61.1681 46.5123 62.0221V66.1203C46.5123 66.803 47.0246 67.3153 47.8782 67.4862H50.4395C51.1227 67.4862 51.635 66.9739 51.8059 66.1203V62.0221C56.9285 61.1681 60.3435 57.5822 60.3435 52.9718Z" fill="white"/>
<path d="M40.3652 70.8993C27.0463 66.1184 20.2159 51.2627 25.1681 38.1143C27.7294 30.9425 33.3644 25.4785 40.3652 22.9172C41.0484 22.5758 41.3897 22.0635 41.3897 21.2095V18.819C41.3897 18.1359 41.0484 17.6236 40.3652 17.4531C40.1943 17.4531 39.8529 17.4531 39.6821 17.6236C23.4604 22.7463 14.581 39.9928 19.7037 56.2145C22.7773 65.7766 30.1199 73.1192 39.6821 76.1928C40.3652 76.5342 41.0484 76.1928 41.2189 75.5097C41.3897 75.3392 41.3897 75.1683 41.3897 74.8269V72.4361C41.3897 71.9238 40.8775 71.2411 40.3652 70.8993ZM58.4654 17.6236C57.7823 17.2822 57.0991 17.6236 56.9286 18.3068C56.7577 18.4777 56.7577 18.6481 56.7577 18.9899V21.3804C56.7577 22.0635 57.27 22.7463 57.7823 23.0881C71.1012 27.8689 77.9315 42.7246 72.9794 55.8731C70.418 63.0448 64.7831 68.5088 57.7823 71.0702C57.0991 71.4116 56.7577 71.9238 56.7577 72.7779V75.1683C56.7577 75.8515 57.0991 76.3637 57.7823 76.5342C57.9532 76.5342 58.2945 76.5342 58.4654 76.3637C74.687 71.2411 83.5665 53.9945 78.4438 37.7729C75.3702 28.0398 67.8567 20.6972 58.4654 17.6236Z" fill="white"/>
</g>
</g>
<defs>
<clipPath id="clip0_643_77904">
<rect width="96" height="96" fill="white" transform="translate(0.799805)"/>
</clipPath>
</defs>
</svg>
