<svg width="19" height="18" viewBox="0 0 19 18" fill="none" xmlns="http://www.w3.org/2000/svg">
<path d="M9.5 18C14.4706 18 18.5 13.9706 18.5 9C18.5 4.02944 14.4706 0 9.5 0C4.52944 0 0.5 4.02944 0.5 9C0.5 13.9706 4.52944 18 9.5 18Z" fill="#50AF95"/>
<path fill-rule="evenodd" clip-rule="evenodd" d="M10.4295 9.74703C10.3739 9.75119 10.0871 9.76831 9.44724 9.76831C8.93832 9.76831 8.57699 9.75304 8.45022 9.74703C6.48348 9.66051 5.01548 9.31815 5.01548 8.90824C5.01548 8.49832 6.48348 8.15642 8.45022 8.06852V9.40605C8.57884 9.4153 8.94711 9.43705 9.45603 9.43705C10.0667 9.43705 10.3725 9.4116 10.4276 9.40651V8.06944C12.3902 8.15689 13.8549 8.49925 13.8549 8.90824C13.8549 9.31722 12.3906 9.65958 10.4276 9.74656L10.4295 9.74703ZM10.4295 7.93111V6.73423H13.1684V4.90906H5.71131V6.73423H8.44976V7.93065C6.22393 8.03289 4.55005 8.4738 4.55005 9.00215C4.55005 9.5305 6.22393 9.97095 8.44976 10.0737V13.9091H10.429V10.0723C12.6497 9.97003 14.3208 9.52958 14.3208 9.00169C14.3208 8.4738 12.6511 8.03336 10.429 7.93065L10.4295 7.93111Z" fill="white"/>
</svg>
