<svg width="19" height="18" viewBox="0 0 19 18" fill="none" xmlns="http://www.w3.org/2000/svg">
<g clip-path="url(#clip0_643_77914)">
<path d="M9.7998 18C14.7873 18 18.7998 13.9875 18.7998 9C18.7998 4.01247 14.7873 0 9.7998 0C4.81227 0 0.799805 4.01247 0.799805 9C0.799805 13.9875 4.81227 18 9.7998 18Z" fill="#2775CA"/>
<path d="M11.9643 9.93234C11.9643 8.81178 11.2919 8.42758 9.94723 8.26753C8.98673 8.13943 8.79463 7.88333 8.79463 7.43504C8.79463 6.98676 9.11482 6.69868 9.75513 6.69868C10.3314 6.69868 10.6516 6.89078 10.8117 7.37103C10.8437 7.46708 10.9398 7.53109 11.0358 7.53109H11.548C11.6761 7.53109 11.7722 7.43504 11.7722 7.30703V7.27498C11.6441 6.57059 11.0678 6.02634 10.3314 5.96233V5.19393C10.3314 5.06584 10.2354 4.96979 10.0753 4.93774H9.59507C9.46698 4.93774 9.37093 5.03379 9.33889 5.19393V5.93029C8.37839 6.05838 7.77012 6.69868 7.77012 7.49913C7.77012 8.55568 8.41043 8.97184 9.75513 9.13198C10.6516 9.29203 10.9398 9.48413 10.9398 9.99642C10.9398 10.5087 10.4915 10.8609 9.88322 10.8609C9.05074 10.8609 8.76259 10.5086 8.66654 10.0284C8.63457 9.90037 8.53852 9.83629 8.44247 9.83629H7.89814C7.77012 9.83629 7.67407 9.93234 7.67407 10.0604V10.0925C7.80209 10.8928 8.31438 11.4691 9.37093 11.6293V12.3977C9.37093 12.5257 9.46698 12.6217 9.62704 12.6538H10.1073C10.2354 12.6538 10.3314 12.5577 10.3635 12.3977V11.6293C11.324 11.4691 11.9643 10.7968 11.9643 9.93234Z" fill="white"/>
<path d="M8.21829 13.2936C5.72099 12.3972 4.4403 9.61175 5.36883 7.14642C5.84908 5.80172 6.90563 4.77722 8.21829 4.29697C8.34638 4.23296 8.41039 4.13691 8.41039 3.97678V3.52857C8.41039 3.40048 8.34638 3.30443 8.21829 3.27246C8.18625 3.27246 8.12224 3.27246 8.0902 3.30443C5.04864 4.26493 3.38375 7.49866 4.34425 10.5402C4.92055 12.3331 6.29729 13.7099 8.0902 14.2862C8.21829 14.3502 8.34638 14.2862 8.37835 14.1581C8.41039 14.1261 8.41039 14.0941 8.41039 14.0301V13.5818C8.41039 13.4857 8.31434 13.3577 8.21829 13.2936ZM11.6121 3.30443C11.484 3.24042 11.3559 3.30443 11.3239 3.43252C11.2919 3.46456 11.2919 3.49653 11.2919 3.56061V4.00882C11.2919 4.13691 11.3879 4.26493 11.484 4.32901C13.9813 5.22542 15.262 8.01087 14.3334 10.4762C13.8532 11.8209 12.7966 12.8454 11.484 13.3257C11.3559 13.3897 11.2919 13.4857 11.2919 13.6459V14.0941C11.2919 14.2221 11.3559 14.3182 11.484 14.3502C11.516 14.3502 11.58 14.3502 11.6121 14.3182C14.6536 13.3577 16.3185 10.124 15.358 7.08241C14.7817 5.25747 13.3729 3.88073 11.6121 3.30443Z" fill="white"/>
</g>
<defs>
<clipPath id="clip0_643_77914">
<rect width="18" height="18" fill="white" transform="translate(0.799805)"/>
</clipPath>
</defs>
</svg>
