<svg width="19" height="18" viewBox="0 0 19 18" fill="none" xmlns="http://www.w3.org/2000/svg">
<g clip-path="url(#clip0_3316_8406)">
<path d="M9.5 18C14.4706 18 18.5 13.9706 18.5 9C18.5 4.02944 14.4706 0 9.5 0C4.52944 0 0.5 4.02944 0.5 9C0.5 13.9706 4.52944 18 9.5 18Z" fill="url(#paint0_linear_3316_8406)"/>
<path fill-rule="evenodd" clip-rule="evenodd" d="M6.08639 4.76135H9.51503C11.6001 4.76135 13.1813 5.88239 13.7695 7.51319H14.8373V8.49887H13.9941C14.0107 8.65439 14.0193 8.81351 14.0193 8.97479V8.99927C14.0193 9.18071 14.0085 9.35927 13.9877 9.53423H14.8373V10.5199H13.7486C13.1453 12.1284 11.5764 13.2386 9.51503 13.2386H6.08639V10.5199H4.89551V9.53423H6.08711V8.49959H4.89551V7.51391H6.08711L6.08639 4.76135ZM7.04471 10.5199V12.3545H9.51431C11.0385 12.3545 12.1711 11.6201 12.6981 10.5199H7.04471ZM12.9926 9.53423H7.04543V8.49959H12.9941C13.0164 8.66231 13.0272 8.82935 13.0272 8.99927V9.02375C13.0272 9.19727 13.0157 9.36791 12.9926 9.53423ZM9.51503 5.64479C11.0465 5.64479 12.1819 6.39863 12.7061 7.51391H7.04543V5.64479H9.51503Z" fill="white"/>
</g>
<defs>
<linearGradient id="paint0_linear_3316_8406" x1="9.5" y1="-1.8" x2="9.5" y2="19.8" gradientUnits="userSpaceOnUse">
<stop stop-color="#F9A606"/>
<stop offset="1" stop-color="#FBCC5F"/>
</linearGradient>
<clipPath id="clip0_3316_8406">
<rect width="18" height="18" fill="white" transform="translate(0.5)"/>
</clipPath>
</defs>
</svg>
