<svg width="17" height="16" viewBox="0 0 17 16" fill="none" xmlns="http://www.w3.org/2000/svg">
<g clip-path="url(#clip0_643_77931)">
<path d="M8.7998 16C13.2181 16 16.7998 12.4183 16.7998 8C16.7998 3.58172 13.2181 0 8.7998 0C4.38153 0 0.799805 3.58172 0.799805 8C0.799805 12.4183 4.38153 16 8.7998 16Z" fill="#1B5AFE"/>
<path fill-rule="evenodd" clip-rule="evenodd" d="M4.73633 4.13452V6.86028C6.24161 6.86028 7.46209 5.6398 7.46209 4.13516L4.73633 4.13452Z" fill="white"/>
<path fill-rule="evenodd" clip-rule="evenodd" d="M7.46216 12.3214V6.83402C7.46216 6.81098 7.46216 6.78794 7.4628 6.7649C7.46344 6.74186 7.46408 6.71882 7.46536 6.69578C7.46664 6.67274 7.46792 6.6497 7.46984 6.6273C7.47176 6.60426 7.47368 6.58186 7.47624 6.55946C7.4788 6.53706 7.48136 6.51402 7.48392 6.49162C7.48648 6.46922 7.48968 6.44682 7.49352 6.42442C7.49672 6.40202 7.50056 6.37962 7.5044 6.35786C7.50824 6.33546 7.51272 6.3137 7.5172 6.29194C7.52168 6.27018 7.52616 6.24842 7.53128 6.22666C7.5364 6.2049 7.54152 6.18314 7.54728 6.16202C7.55304 6.1409 7.5588 6.11914 7.56456 6.09802C7.57032 6.0769 7.57672 6.05578 7.58376 6.03466C7.59016 6.01354 7.5972 5.99242 7.60424 5.97194C7.61128 5.95082 7.61832 5.93034 7.626 5.90986C7.63368 5.88938 7.64136 5.8689 7.64968 5.84842C7.658 5.82794 7.66632 5.8081 7.67464 5.78762C7.68296 5.76714 7.69192 5.7473 7.70088 5.72746C7.70984 5.70762 7.71944 5.68778 7.7284 5.66794C7.738 5.6481 7.7476 5.6289 7.75784 5.60906C7.76808 5.58986 7.77832 5.57066 7.78856 5.55146C7.7988 5.53226 7.80968 5.51306 7.82056 5.4945C7.83144 5.47594 7.84232 5.45674 7.85384 5.43818C7.86536 5.41962 7.87688 5.40106 7.8884 5.38314C7.89992 5.36522 7.91208 5.34666 7.92424 5.32874C7.9364 5.31082 7.94856 5.2929 7.96136 5.27562C7.97416 5.2577 7.98696 5.24042 7.99976 5.22314C8.01256 5.20586 8.026 5.18858 8.03944 5.17194C8.05288 5.15466 8.06632 5.13802 8.0804 5.12138C8.09448 5.10474 8.10792 5.0881 8.12264 5.0721C8.13672 5.0561 8.15144 5.03946 8.16552 5.02346C8.18024 5.00746 8.19496 4.99146 8.20968 4.9761C8.2244 4.96074 8.23976 4.94474 8.25512 4.93002C8.27048 4.91466 8.28584 4.8993 8.3012 4.88458C8.31656 4.86986 8.33256 4.85514 8.34856 4.84042C8.36456 4.8257 8.38056 4.81162 8.3972 4.79754C8.41384 4.78346 8.42984 4.76938 8.44648 4.75594C8.46312 4.74186 8.47976 4.72842 8.49704 4.71498C8.51432 4.70154 8.53096 4.6881 8.54888 4.6753C8.56616 4.6625 8.58344 4.6497 8.60136 4.6369C8.61928 4.6241 8.63656 4.61194 8.65448 4.59978C8.6724 4.58762 8.69032 4.57546 8.70888 4.56394C8.7268 4.55242 8.74536 4.5409 8.76392 4.52938C8.78248 4.51786 8.80104 4.50698 8.82024 4.4961C8.8388 4.48522 8.858 4.47434 8.8772 4.4641C8.8964 4.45386 8.9156 4.44362 8.9348 4.43338C8.954 4.42314 8.97384 4.41354 8.99368 4.40394C9.01352 4.39434 9.03336 4.38538 9.0532 4.37642C9.07304 4.36746 9.09288 4.3585 9.11336 4.35018C9.13384 4.34186 9.15368 4.33354 9.17416 4.32522C9.19464 4.3169 9.21512 4.30922 9.2356 4.30154C9.25608 4.29386 9.2772 4.28682 9.29768 4.27978C9.31816 4.27274 9.33928 4.2657 9.3604 4.2593C9.38152 4.2529 9.40264 4.2465 9.42376 4.2401C9.44488 4.2337 9.46664 4.22794 9.48776 4.22282C9.50952 4.21706 9.53064 4.21194 9.5524 4.20682C9.57416 4.2017 9.59592 4.19722 9.61768 4.19274C9.63944 4.18826 9.66184 4.18378 9.6836 4.17994C9.70536 4.1761 9.72776 4.17226 9.75016 4.16906C9.77256 4.16586 9.79496 4.16266 9.81736 4.15946C9.83976 4.15626 9.86216 4.1537 9.8852 4.15178C9.9076 4.14922 9.93064 4.1473 9.95304 4.14538C9.97608 4.14346 9.99848 4.14218 10.0215 4.1409C10.0446 4.13962 10.0676 4.13898 10.0906 4.13834C10.1137 4.1377 10.1367 4.1377 10.1598 4.1377H12.8612V6.83722H10.1598V12.3246L7.46216 12.3214Z" fill="white"/>
</g>
<defs>
<clipPath id="clip0_643_77931">
<rect width="16" height="16" fill="white" transform="translate(0.799805)"/>
</clipPath>
</defs>
</svg>
