<svg width="97" height="96" viewBox="0 0 97 96" fill="none" xmlns="http://www.w3.org/2000/svg">
<g opacity="0.03" clip-path="url(#clip0_643_77921)">
<path d="M48.7998 96C75.3095 96 96.7998 74.5097 96.7998 48C96.7998 21.4903 75.3095 0 48.7998 0C22.2901 0 0.799805 21.4903 0.799805 48C0.799805 74.5097 22.2901 96 48.7998 96Z" fill="#1B5AFE"/>
<path fill-rule="evenodd" clip-rule="evenodd" d="M24.4197 24.8066V41.1612C33.4514 41.1612 40.7742 33.8383 40.7742 24.8105L24.4197 24.8066Z" fill="white"/>
<path fill-rule="evenodd" clip-rule="evenodd" d="M40.7742 73.9278V41.0036C40.7742 40.8654 40.7742 40.7271 40.778 40.5889C40.7818 40.4506 40.7857 40.3124 40.7934 40.1742C40.801 40.0359 40.8087 39.8977 40.8202 39.7633C40.8318 39.625 40.8433 39.4906 40.8586 39.3562C40.874 39.2218 40.8894 39.0836 40.9047 38.9492C40.9201 38.8148 40.9393 38.6804 40.9623 38.546C40.9815 38.4116 41.0046 38.2772 41.0276 38.1466C41.0506 38.0122 41.0775 37.8817 41.1044 37.7511C41.1313 37.6206 41.1582 37.49 41.1889 37.3594C41.2196 37.2289 41.2503 37.0983 41.2849 36.9716C41.3195 36.8449 41.354 36.7143 41.3886 36.5876C41.4231 36.4609 41.4615 36.3342 41.5038 36.2074C41.5422 36.0807 41.5844 35.954 41.6266 35.8311C41.6689 35.7044 41.7111 35.5815 41.7572 35.4586C41.8033 35.3358 41.8494 35.2129 41.8993 35.09C41.9492 34.9671 41.9991 34.8481 42.049 34.7252C42.099 34.6023 42.1527 34.4833 42.2065 34.3642C42.2603 34.2452 42.3178 34.1262 42.3716 34.0071C42.4292 33.8881 42.4868 33.7729 42.5482 33.6538C42.6097 33.5386 42.6711 33.4234 42.7326 33.3082C42.794 33.193 42.8593 33.0778 42.9246 32.9665C42.9898 32.8551 43.0551 32.7399 43.1242 32.6286C43.1934 32.5172 43.2625 32.4058 43.3316 32.2983C43.4007 32.1908 43.4737 32.0794 43.5466 31.9719C43.6196 31.8644 43.6926 31.7569 43.7694 31.6532C43.8462 31.5457 43.923 31.442 43.9998 31.3383C44.0766 31.2346 44.1572 31.131 44.2378 31.0311C44.3185 30.9274 44.3991 30.8276 44.4836 30.7278C44.5681 30.6279 44.6487 30.5281 44.737 30.4321C44.8215 30.3361 44.9099 30.2362 44.9943 30.1402C45.0827 30.0442 45.171 29.9482 45.2593 29.8561C45.3476 29.7639 45.4398 29.6679 45.5319 29.5796C45.6241 29.4874 45.7162 29.3953 45.8084 29.307C45.9006 29.2186 45.9966 29.1303 46.0926 29.042C46.1886 28.9537 46.2846 28.8692 46.3844 28.7847C46.4842 28.7002 46.5803 28.6158 46.6801 28.5351C46.7799 28.4506 46.8798 28.37 46.9834 28.2894C47.0871 28.2087 47.187 28.1281 47.2945 28.0513C47.3982 27.9745 47.5018 27.8977 47.6094 27.8209C47.7169 27.7441 47.8206 27.6711 47.9281 27.5982C48.0356 27.5252 48.1431 27.4522 48.2545 27.3831C48.362 27.314 48.4734 27.2449 48.5847 27.1758C48.6961 27.1066 48.8074 27.0414 48.9226 26.9761C49.034 26.9108 49.1492 26.8455 49.2644 26.7841C49.3796 26.7226 49.4948 26.6612 49.61 26.5998C49.7252 26.5383 49.8443 26.4807 49.9633 26.4231C50.0823 26.3655 50.2014 26.3118 50.3204 26.258C50.4394 26.2042 50.5585 26.1505 50.6814 26.1006C50.8042 26.0506 50.9233 26.0007 51.0462 25.9508C51.169 25.9009 51.2919 25.8548 51.4148 25.8087C51.5377 25.7626 51.6644 25.7204 51.7873 25.6782C51.9102 25.6359 52.0369 25.5937 52.1636 25.5553C52.2903 25.5169 52.417 25.4785 52.5438 25.4401C52.6705 25.4017 52.801 25.3671 52.9278 25.3364C53.0583 25.3018 53.185 25.2711 53.3156 25.2404C53.4462 25.2097 53.5767 25.1828 53.7073 25.1559C53.8379 25.129 53.9722 25.1022 54.1028 25.0791C54.2334 25.0561 54.3678 25.033 54.5022 25.0138C54.6366 24.9946 54.771 24.9754 54.9054 24.9562C55.0398 24.937 55.1742 24.9217 55.3124 24.9102C55.4468 24.8948 55.585 24.8833 55.7194 24.8718C55.8577 24.8602 55.9921 24.8526 56.1303 24.8449C56.2686 24.8372 56.4068 24.8334 56.545 24.8295C56.6833 24.8257 56.8215 24.8257 56.9598 24.8257H73.1684V41.0228H56.9598V73.947L40.7742 73.9278Z" fill="white"/>
</g>
<defs>
<clipPath id="clip0_643_77921">
<rect width="96" height="96" fill="white" transform="translate(0.799805)"/>
</clipPath>
</defs>
</svg>
