<svg width="19" height="18" viewBox="0 0 19 18" fill="none" xmlns="http://www.w3.org/2000/svg">
<g clip-path="url(#clip0_3316_4714)">
<path d="M9.5 18C14.4706 18 18.5 13.9706 18.5 9C18.5 4.02944 14.4706 0 9.5 0C4.52944 0 0.5 4.02944 0.5 9C0.5 13.9706 4.52944 18 9.5 18Z" fill="#1B5AFE"/>
<path fill-rule="evenodd" clip-rule="evenodd" d="M4.92871 4.65125V7.71773C6.62215 7.71773 7.99519 6.34469 7.99519 4.65196L4.92871 4.65125Z" fill="white"/>
<path fill-rule="evenodd" clip-rule="evenodd" d="M7.99512 13.8614V7.68815C7.99512 7.66223 7.99512 7.63631 7.99584 7.61039C7.99656 7.58447 7.99728 7.55854 7.99872 7.53262C8.00016 7.5067 8.0016 7.48079 8.00376 7.45559C8.00592 7.42967 8.00808 7.40447 8.01096 7.37927C8.01384 7.35407 8.01672 7.32815 8.0196 7.30295C8.02248 7.27775 8.02608 7.25255 8.0304 7.22735C8.034 7.20215 8.03832 7.17695 8.04264 7.15247C8.04696 7.12727 8.052 7.10278 8.05704 7.0783C8.06208 7.05382 8.06712 7.02935 8.07288 7.00487C8.07864 6.98039 8.0844 6.95591 8.09088 6.93215C8.09736 6.90839 8.10384 6.88391 8.11032 6.86015C8.1168 6.83639 8.124 6.81263 8.13192 6.78887C8.13912 6.76511 8.14704 6.74134 8.15496 6.7183C8.16288 6.69454 8.1708 6.67151 8.17944 6.64847C8.18808 6.62543 8.19672 6.60239 8.20608 6.57935C8.21544 6.55631 8.2248 6.53399 8.23416 6.51095C8.24352 6.48791 8.2536 6.46559 8.26368 6.44327C8.27376 6.42095 8.28456 6.39862 8.29464 6.3763C8.30544 6.35398 8.31624 6.33239 8.32776 6.31007C8.33928 6.28847 8.3508 6.26687 8.36232 6.24527C8.37384 6.22367 8.38608 6.20207 8.39832 6.18119C8.41056 6.16031 8.4228 6.13871 8.43576 6.11783C8.44872 6.09695 8.46168 6.07606 8.47464 6.0559C8.4876 6.03574 8.50128 6.01486 8.51496 5.9947C8.52864 5.97454 8.54232 5.95439 8.55672 5.93495C8.57112 5.91479 8.58552 5.89534 8.59992 5.8759C8.61432 5.85646 8.62944 5.83702 8.64456 5.8183C8.65968 5.79886 8.6748 5.78015 8.69064 5.76143C8.70648 5.74271 8.7216 5.72399 8.73816 5.70599C8.754 5.68799 8.77056 5.66927 8.7864 5.65127C8.80296 5.63327 8.81952 5.61527 8.83608 5.59799C8.85264 5.58071 8.86992 5.56271 8.8872 5.54615C8.90448 5.52887 8.92176 5.51159 8.93904 5.49503C8.95632 5.47847 8.97432 5.46191 8.99232 5.44535C9.01032 5.42879 9.02832 5.41294 9.04704 5.3971C9.06576 5.38126 9.08376 5.36542 9.10248 5.3503C9.1212 5.33446 9.13992 5.31935 9.15936 5.30423C9.1788 5.28911 9.19752 5.27399 9.21768 5.25959C9.23712 5.24519 9.25656 5.23079 9.27672 5.21639C9.29688 5.20199 9.31632 5.18831 9.33648 5.17463C9.35664 5.16095 9.3768 5.14726 9.39768 5.1343C9.41784 5.12134 9.43872 5.10839 9.4596 5.09543C9.48048 5.08247 9.50136 5.07023 9.52296 5.05799C9.54384 5.04575 9.56544 5.03351 9.58704 5.02199C9.60864 5.01047 9.63024 4.99895 9.65184 4.98743C9.67344 4.97591 9.69576 4.9651 9.71808 4.9543C9.7404 4.9435 9.76272 4.93343 9.78504 4.92335C9.80736 4.91327 9.82968 4.90319 9.85272 4.89383C9.87576 4.88447 9.89808 4.87511 9.92112 4.86575C9.94416 4.85639 9.9672 4.84774 9.99024 4.8391C10.0133 4.83046 10.037 4.82255 10.0601 4.81463C10.0831 4.80671 10.1069 4.79879 10.1306 4.79159C10.1544 4.78439 10.1782 4.77719 10.2019 4.76999C10.2257 4.76279 10.2502 4.75631 10.2739 4.75055C10.2984 4.74407 10.3222 4.73831 10.3466 4.73255C10.3711 4.72679 10.3956 4.72174 10.4201 4.7167C10.4446 4.71166 10.4698 4.70662 10.4942 4.7023C10.5187 4.69798 10.5439 4.69367 10.5691 4.69007C10.5943 4.68647 10.6195 4.68287 10.6447 4.67927C10.6699 4.67567 10.6951 4.67279 10.721 4.67063C10.7462 4.66775 10.7722 4.66559 10.7974 4.66343C10.8233 4.66127 10.8485 4.65983 10.8744 4.65839C10.9003 4.65695 10.9262 4.65622 10.9522 4.6555C10.9781 4.65478 11.004 4.65479 11.0299 4.65479H14.069V7.69175H11.0299V13.865L7.99512 13.8614Z" fill="white"/>
</g>
<defs>
<clipPath id="clip0_3316_4714">
<rect width="18" height="18" fill="white" transform="translate(0.5)"/>
</clipPath>
</defs>
</svg>
