<svg width="17" height="16" viewBox="0 0 17 16" fill="none" xmlns="http://www.w3.org/2000/svg">
<g clip-path="url(#clip0_643_77948)">
<path d="M8.7998 16C13.2181 16 16.7998 12.4183 16.7998 8C16.7998 3.58172 13.2181 0 8.7998 0C4.38153 0 0.799805 3.58172 0.799805 8C0.799805 12.4183 4.38153 16 8.7998 16Z" fill="url(#paint0_linear_643_77948)"/>
<path fill-rule="evenodd" clip-rule="evenodd" d="M5.76559 4.23242H8.81327C10.6667 4.23242 12.0722 5.2289 12.595 6.6785H13.5442V7.55466H12.7947C12.8094 7.6929 12.8171 7.83434 12.8171 7.9777V7.99946C12.8171 8.16074 12.8075 8.31946 12.789 8.47498H13.5442V9.35114H12.5765C12.0402 10.7809 10.6456 11.7678 8.81327 11.7678H5.76559V9.35114H4.70703V8.47498H5.76623V7.5553H4.70703V6.67914H5.76623L5.76559 4.23242ZM6.61743 9.35114V10.9819H8.81263C10.1675 10.9819 11.1742 10.3291 11.6427 9.35114H6.61743ZM11.9045 8.47498H6.61807V7.5553H11.9058C11.9256 7.69994 11.9352 7.84842 11.9352 7.99946V8.02122C11.9352 8.17546 11.925 8.32714 11.9045 8.47498ZM8.81327 5.0177C10.1746 5.0177 11.1838 5.68778 11.6498 6.67914H6.61807V5.0177H8.81327Z" fill="white"/>
</g>
<defs>
<linearGradient id="paint0_linear_643_77948" x1="8.7998" y1="-1.6" x2="8.7998" y2="17.6" gradientUnits="userSpaceOnUse">
<stop stop-color="#F9A606"/>
<stop offset="1" stop-color="#FBCC5F"/>
</linearGradient>
<clipPath id="clip0_643_77948">
<rect width="16" height="16" fill="white" transform="translate(0.799805)"/>
</clipPath>
</defs>
</svg>
