<svg width="97" height="96" viewBox="0 0 97 96" fill="none" xmlns="http://www.w3.org/2000/svg">
<g opacity="0.03" clip-path="url(#clip0_643_77938)">
<path d="M48.7998 96C75.3095 96 96.7998 74.5097 96.7998 48C96.7998 21.4903 75.3095 0 48.7998 0C22.2901 0 0.799805 21.4903 0.799805 48C0.799805 74.5097 22.2901 96 48.7998 96Z" fill="url(#paint0_linear_643_77938)"/>
<path fill-rule="evenodd" clip-rule="evenodd" d="M30.5943 25.394H48.8804C60.001 25.394 68.4336 31.3729 71.5709 40.0705H77.2656V45.3275H72.769C72.8573 46.1569 72.9034 47.0056 72.9034 47.8657V47.9963C72.9034 48.964 72.8458 49.9163 72.7344 50.8494H77.2656V56.1064H71.4596C68.2416 64.6849 59.8743 70.6062 48.8804 70.6062H30.5943V56.1064H24.2429V50.8494H30.5981V45.3313H24.2429V40.0744H30.5981L30.5943 25.394ZM35.7053 56.1064V65.8907H48.8765C57.0058 65.8907 63.0461 61.9739 65.857 56.1064H35.7053ZM67.4276 50.8494H35.7092V45.3313H67.4352C67.5543 46.1992 67.6119 47.09 67.6119 47.9963V48.1268C67.6119 49.0523 67.5504 49.9624 67.4276 50.8494ZM48.8804 30.1057C57.048 30.1057 63.1037 34.1262 65.8992 40.0744H35.7092V30.1057H48.8804Z" fill="white"/>
</g>
<defs>
<linearGradient id="paint0_linear_643_77938" x1="48.7998" y1="-9.6" x2="48.7998" y2="105.6" gradientUnits="userSpaceOnUse">
<stop stop-color="#F9A606"/>
<stop offset="1" stop-color="#FBCC5F"/>
</linearGradient>
<clipPath id="clip0_643_77938">
<rect width="96" height="96" fill="white" transform="translate(0.799805)"/>
</clipPath>
</defs>
</svg>
