<svg width="12" height="12" viewBox="0 0 12 12" fill="none" xmlns="http://www.w3.org/2000/svg">
<path d="M10.8186 6.79124H10.0274V5.20882H10.8186C10.9235 5.20882 11.0241 5.16714 11.0983 5.09295C11.1725 5.01876 11.2142 4.91814 11.2142 4.81322C11.2142 4.7083 11.1725 4.60768 11.0983 4.53349C11.0241 4.4593 10.9235 4.41762 10.8186 4.41762H10.0274V1.25278C10.0274 1.14786 9.98568 1.04724 9.91149 0.973048C9.8373 0.898857 9.73668 0.857178 9.63176 0.857178C9.52684 0.857178 9.42621 0.898857 9.35202 0.973048C9.27783 1.04724 9.23615 1.14786 9.23615 1.25278V4.41762H5.37901L2.82737 1.01542C2.77755 0.948995 2.70809 0.899929 2.62884 0.875172C2.54959 0.850415 2.46455 0.851222 2.38578 0.877479C2.30701 0.903735 2.2385 0.95411 2.18995 1.02147C2.1414 1.08883 2.11528 1.16975 2.11528 1.25278V4.41762H1.32407C1.21915 4.41762 1.11853 4.4593 1.04434 4.53349C0.970146 4.60768 0.928467 4.7083 0.928467 4.81322C0.928467 4.91814 0.970146 5.01876 1.04434 5.09295C1.11853 5.16714 1.21915 5.20882 1.32407 5.20882H2.11528V6.79124H1.32407C1.21915 6.79124 1.11853 6.83292 1.04434 6.90711C0.970146 6.9813 0.928467 7.08192 0.928467 7.18684C0.928467 7.29177 0.970146 7.39239 1.04434 7.46658C1.11853 7.54077 1.21915 7.58245 1.32407 7.58245H2.11528V10.7473C2.11528 10.8522 2.15696 10.9528 2.23115 11.027C2.30534 11.1012 2.40596 11.1429 2.51088 11.1429C2.6158 11.1429 2.71643 11.1012 2.79062 11.027C2.86481 10.9528 2.90649 10.8522 2.90649 10.7473V7.58245H6.76363L9.31528 10.9846C9.35212 11.0338 9.39991 11.0737 9.45484 11.1011C9.50977 11.1286 9.57034 11.1429 9.63176 11.1429C9.67423 11.1431 9.71645 11.1364 9.75677 11.1231C9.83564 11.0968 9.90423 11.0464 9.9528 10.9789C10.0014 10.9115 10.0275 10.8304 10.0274 10.7473V7.58245H10.8186C10.9235 7.58245 11.0241 7.54077 11.0983 7.46658C11.1725 7.39239 11.2142 7.29177 11.2142 7.18684C11.2142 7.08192 11.1725 6.9813 11.0983 6.90711C11.0241 6.83292 10.9235 6.79124 10.8186 6.79124ZM2.90649 2.43959L4.39 4.41762H2.90649V2.43959ZM2.90649 6.79124V5.20882H4.98341L6.17022 6.79124H2.90649ZM9.23615 9.56047L7.75264 7.58245H9.23615V9.56047ZM9.23615 6.79124H7.15923L5.97242 5.20882H9.23615V6.79124Z" fill="white"/>
</svg>
