<svg width="16" height="16" viewBox="0 0 16 16" fill="none" xmlns="http://www.w3.org/2000/svg">
<path d="M16 7.98025C16 10.0609 15.1947 11.9572 13.8878 13.3794C13.8218 13.4584 13.7558 13.5243 13.6766 13.6033C13.3993 13.8798 13.1089 14.13 12.8053 14.3671C12.3696 14.6963 11.8944 14.9728 11.4059 15.2099C11.3267 15.2494 11.2343 15.2889 11.1551 15.3284C10.8647 15.4469 10.5743 15.5654 10.2574 15.6444C10.099 15.6971 9.94059 15.7366 9.78218 15.7761C9.21452 15.9078 8.63366 15.9737 8.0264 15.9737H8C7.44554 15.9737 6.91749 15.921 6.38944 15.8156C6.16502 15.7761 5.9538 15.7103 5.74257 15.6576C5.43894 15.5654 5.13531 15.4601 4.84488 15.3416C4.77888 15.3152 4.69967 15.2757 4.63366 15.2494C4.13201 15.0123 3.65677 14.7358 3.20792 14.4066C2.89109 14.1695 2.58746 13.9062 2.31023 13.6296C2.24422 13.5638 2.16502 13.4848 2.09901 13.4058C0.80528 11.9704 0 10.0741 0 7.98025C0 3.56872 3.57756 0 8 0C12.4224 0 16 3.56872 16 7.98025Z" fill="#FA5C5C"/>
</svg>
