<svg width="14" height="14" viewBox="0 0 14 14" fill="none" xmlns="http://www.w3.org/2000/svg">
<path fill-rule="evenodd" clip-rule="evenodd" d="M14 7.04257C14 3.15336 10.8657 0 7 0C3.1343 0 0 3.15336 0 7.04257C0 10.5574 2.55944 13.4711 5.90636 14V9.07879H4.12853V7.04257H5.90636V5.49063C5.90636 3.72577 6.95177 2.75024 8.55041 2.75024C9.31625 2.75024 10.1176 2.8879 10.1176 2.8879V4.62109H9.23454C8.36536 4.62109 8.09364 5.16382 8.09364 5.72138V7.04251H10.0348L9.72474 9.07874H8.09359V13.9999C11.4405 13.472 13.9999 10.5583 13.9999 7.04251L14 7.04257Z" fill="#1977F3"/>
</svg>
