<svg width="56" height="56" viewBox="0 0 56 56" fill="none" xmlns="http://www.w3.org/2000/svg">
<path d="M53.3185 32.2196H49.0987V23.7801H53.3185C53.8781 23.7801 54.4147 23.5578 54.8104 23.1621C55.2061 22.7664 55.4284 22.2298 55.4284 21.6702C55.4284 21.1106 55.2061 20.5739 54.8104 20.1783C54.4147 19.7826 53.8781 19.5603 53.3185 19.5603H49.0987V2.68118C49.0987 2.1216 48.8764 1.58494 48.4808 1.18926C48.0851 0.79358 47.5484 0.571289 46.9888 0.571289C46.4293 0.571289 45.8926 0.79358 45.4969 1.18926C45.1012 1.58494 44.879 2.1216 44.879 2.68118V19.5603H24.3075L10.6988 1.41524C10.4331 1.06098 10.0626 0.799298 9.63995 0.66726C9.21726 0.535223 8.76374 0.539527 8.34364 0.679562C7.92353 0.819596 7.55814 1.08826 7.29921 1.4475C7.04029 1.80675 6.90096 2.23835 6.90096 2.68118V19.5603H2.68118C2.1216 19.5603 1.58494 19.7826 1.18926 20.1783C0.79358 20.5739 0.571289 21.1106 0.571289 21.6702C0.571289 22.2298 0.79358 22.7664 1.18926 23.1621C1.58494 23.5578 2.1216 23.7801 2.68118 23.7801H6.90096V32.2196H2.68118C2.1216 32.2196 1.58494 32.4419 1.18926 32.8376C0.79358 33.2333 0.571289 33.7699 0.571289 34.3295C0.571289 34.8891 0.79358 35.4258 1.18926 35.8214C1.58494 36.2171 2.1216 36.4394 2.68118 36.4394H6.90096V53.3185C6.90096 53.8781 7.12325 54.4148 7.51893 54.8104C7.91461 55.2061 8.45127 55.4284 9.01084 55.4284C9.57042 55.4284 10.1071 55.2061 10.5028 54.8104C10.8984 54.4148 11.1207 53.8781 11.1207 53.3185V36.4394H31.6921L45.3009 54.5844C45.4975 54.8465 45.7523 55.0592 46.0453 55.2057C46.3382 55.3521 46.6613 55.4284 46.9888 55.4284C47.2153 55.4297 47.4405 55.394 47.6556 55.3229C48.0762 55.1828 48.442 54.9138 48.7011 54.5539C48.9601 54.1941 49.0993 53.7619 49.0987 53.3185V36.4394H53.3185C53.8781 36.4394 54.4147 36.2171 54.8104 35.8214C55.2061 35.4258 55.4284 34.8891 55.4284 34.3295C55.4284 33.7699 55.2061 33.2333 54.8104 32.8376C54.4147 32.4419 53.8781 32.2196 53.3185 32.2196ZM11.1207 9.01085L19.0328 19.5603H11.1207V9.01085ZM11.1207 32.2196V23.7801H22.1976L28.5273 32.2196H11.1207ZM44.879 46.9888L36.9669 36.4394H44.879V46.9888ZM44.879 32.2196H33.802L27.4724 23.7801H44.879V32.2196Z" fill="white"/>
</svg>
