<svg width="18" height="18" viewBox="0 0 18 18" fill="none" xmlns="http://www.w3.org/2000/svg">
<path d="M18 9C18 13.9706 13.9706 18 9 18C4.02944 18 0 13.9706 0 9C0 4.02944 4.02944 0 9 0C13.9706 0 18 4.02944 18 9Z" fill="#0052B5"/>
<path d="M6.75 4.95V0.283539C7.11649 0.189212 7.49201 0.117389 7.875 0.0696305C8.24354 0.0236737 8.61901 0 9 0C9.38099 0 9.75646 0.0236737 10.125 0.0696305C10.508 0.117389 10.8835 0.189212 11.25 0.283539V6.1875L15.075 2.35957C15.4873 2.73699 16.0887 3.4898 16.425 3.9375L13.5 6.75H17.7165C17.8108 7.11649 17.8826 7.49201 17.9304 7.875C17.9763 8.24354 18 8.61901 18 9C18 9.38099 17.9763 9.75646 17.9304 10.125C17.8826 10.508 17.8108 10.8835 17.7165 11.25H12.825L16.2007 14.4C15.7169 15.0441 15.1487 15.6211 14.5125 16.1148L11.25 12.825V17.7165C10.8835 17.8108 10.508 17.8826 10.125 17.9304C9.75646 17.9763 9.38099 18 9 18C8.61901 18 8.24354 17.9763 7.875 17.9304C7.492 17.8826 7.11648 17.8108 6.75 17.7165L6.75 11.925L3.0375 15.7417C2.53402 15.2961 2.08082 14.7949 1.6875 14.2478L4.95 11.25H0.283539C0.189213 10.8835 0.11739 10.508 0.069631 10.125C0.0236739 9.75646 0 9.38099 0 9C0 8.61901 0.0236737 8.24354 0.0696305 7.875C0.117389 7.49201 0.189212 7.11649 0.283539 6.75H5.0625L1.8 3.59912C2.29935 2.9345 2.88857 2.34126 3.54963 1.83745L6.75 4.95Z" fill="white"/>
<path d="M6.75 6.75L2.64261 2.62948C2.42542 2.84622 2.21924 3.074 2.025 3.31191L5.625 6.75H6.75Z" fill="#D90026"/>
<path d="M11.25 6.75L15.3574 2.62947C15.5746 2.84622 15.7808 3.074 15.975 3.31191L12.375 6.75H11.25Z" fill="#D90026"/>
<path d="M11.25 11.3272L15.3574 15.4478C15.5746 15.231 15.7808 15.0032 15.975 14.7653L12.375 11.3272H11.25Z" fill="#D90026"/>
<path d="M6.75 11.3272L2.64261 15.4478C2.42542 15.231 2.21924 15.0032 2.025 14.7653L5.625 11.3272H6.75Z" fill="#D90026"/>
<path d="M0.0696305 7.875C0.0236737 8.24354 0 8.61901 0 9C0 9.38099 0.0236739 9.75646 0.069631 10.125H7.875V17.9304C8.24354 17.9763 8.61901 18 9 18C9.38099 18 9.75646 17.9763 10.125 17.9304V10.125H17.9304C17.9763 9.75646 18 9.38099 18 9C18 8.61901 17.9763 8.24354 17.9304 7.875H10.125V0.0696305C9.68464 0.00338994 9.45883 0 9 0C8.61901 0 8.24354 0.0236737 7.875 0.0696305V7.875H0.0696305Z" fill="#D90026"/>
</svg>
