<svg width="8" height="10" viewBox="0 0 8 10" fill="none" xmlns="http://www.w3.org/2000/svg">
<path d="M3.2932 9.14754H1.63716C1.20519 9.14754 0.876311 8.76012 0.946452 8.33388L2.17756 0.852539H5.20238C6.79681 0.852539 8.06939 2.18202 7.9997 3.77492C7.93419 5.27229 6.70118 6.45254 5.20238 6.45254H4.31256L3.98485 8.55533C3.93173 8.8962 3.63818 9.14754 3.2932 9.14754Z" fill="white"/>
<path d="M3.23708 8.27254H1.81789L2.84256 1.62254H5.15016C6.34835 1.62254 7.27757 2.66902 7.13585 3.8588C7.01604 4.86461 6.16309 5.62199 5.15016 5.62199H4.15606C3.95593 5.62199 3.7444 5.66117 3.65696 5.8412C3.42984 6.30877 3.34164 7.40304 3.23708 8.27254Z" fill="#3B6FEF"/>
<path d="M4.99506 4.84254H0.917559C0.685599 4.84254 0.497559 4.6545 0.497559 4.42254C0.497559 4.19058 0.685599 4.00254 0.917559 4.00254H5.13506C5.33802 4.00254 5.50256 3.838 5.50256 3.63504C5.50256 3.43207 5.33802 3.26754 5.13506 3.26754H1.12756C0.895599 3.26754 0.707559 3.0795 0.707559 2.84754C0.707559 2.61558 0.895599 2.42754 1.12756 2.42754H4.99506C5.66194 2.42754 6.20256 2.96816 6.20256 3.63504C6.20256 4.30192 5.66194 4.84254 4.99506 4.84254Z" fill="white"/>
</svg>
