<svg width="12" height="12" viewBox="0 0 12 12" fill="none" xmlns="http://www.w3.org/2000/svg">
<path d="M10.7475 6.79136H9.95632V5.20895H10.7475C10.8524 5.20895 10.9531 5.16727 11.0273 5.09308C11.1014 5.01889 11.1431 4.91826 11.1431 4.81334C11.1431 4.70842 11.1014 4.6078 11.0273 4.53361C10.9531 4.45942 10.8524 4.41774 10.7475 4.41774H9.95632V1.2529C9.95632 1.14798 9.91464 1.04736 9.84045 0.97317C9.76626 0.898979 9.66563 0.8573 9.56071 0.8573C9.45579 0.8573 9.35517 0.898979 9.28098 0.97317C9.20679 1.04736 9.16511 1.14798 9.16511 1.2529V4.41774H5.30797L2.75632 1.01554C2.7065 0.949117 2.63705 0.900051 2.55779 0.875294C2.47854 0.850537 2.39351 0.851344 2.31474 0.877601C2.23597 0.903857 2.16746 0.954232 2.11891 1.02159C2.07036 1.08895 2.04423 1.16987 2.04423 1.2529V4.41774H1.25303C1.14811 4.41774 1.04748 4.45942 0.973292 4.53361C0.899101 4.6078 0.857422 4.70842 0.857422 4.81334C0.857422 4.91826 0.899101 5.01889 0.973292 5.09308C1.04748 5.16727 1.14811 5.20895 1.25303 5.20895H2.04423V6.79136H1.25303C1.14811 6.79136 1.04748 6.83304 0.973292 6.90723C0.899101 6.98142 0.857422 7.08205 0.857422 7.18697C0.857422 7.29189 0.899101 7.39251 0.973292 7.4667C1.04748 7.54089 1.14811 7.58257 1.25303 7.58257H2.04423V10.7474C2.04423 10.8523 2.08591 10.9529 2.1601 11.0271C2.23429 11.1013 2.33492 11.143 2.43984 11.143C2.54476 11.143 2.64538 11.1013 2.71957 11.0271C2.79376 10.9529 2.83544 10.8523 2.83544 10.7474V7.58257H6.69258L9.24423 10.9848C9.28108 11.0339 9.32886 11.0738 9.38379 11.1012C9.43872 11.1287 9.4993 11.143 9.56071 11.143C9.60318 11.1432 9.6454 11.1366 9.68572 11.1232C9.76459 11.097 9.83319 11.0465 9.88176 10.979C9.93033 10.9116 9.95642 10.8305 9.95632 10.7474V7.58257H10.7475C10.8524 7.58257 10.9531 7.54089 11.0273 7.4667C11.1014 7.39251 11.1431 7.29189 11.1431 7.18697C11.1431 7.08205 11.1014 6.98142 11.0273 6.90723C10.9531 6.83304 10.8524 6.79136 10.7475 6.79136ZM2.83544 2.43972L4.31896 4.41774H2.83544V2.43972ZM2.83544 6.79136V5.20895H4.91236L6.09918 6.79136H2.83544ZM9.16511 9.56059L7.68159 7.58257H9.16511V9.56059ZM9.16511 6.79136H7.08819L5.90137 5.20895H9.16511V6.79136Z" fill="white"/>
</svg>
