<svg width="10" height="10" viewBox="0 0 10 10" fill="none" xmlns="http://www.w3.org/2000/svg">
<path d="M3.70625 9.74001H1.81364C1.31995 9.74001 0.94409 9.29725 1.02425 8.81011L2.43123 0.26001H5.88817C7.71037 0.26001 9.16476 1.77942 9.08511 3.59988C9.01024 5.31115 7.60109 6.66001 5.88817 6.66001H4.87123L4.49671 9.0632C4.436 9.45276 4.10051 9.74001 3.70625 9.74001Z" fill="white"/>
<path d="M3.64212 8.74001H2.02018L3.19123 1.14001H5.82849C7.19785 1.14001 8.25982 2.33599 8.09785 3.69574C7.96092 4.84524 6.98612 5.71081 5.82849 5.71081H4.69238C4.46365 5.71081 4.22191 5.75559 4.12197 5.96133C3.86241 6.4957 3.76161 7.7463 3.64212 8.74001Z" fill="#3B6FEF"/>
<path d="M5.65123 4.82001H0.99123C0.726134 4.82001 0.51123 4.60511 0.51123 4.34001C0.51123 4.07491 0.726134 3.86001 0.99123 3.86001H5.81123C6.04319 3.86001 6.23123 3.67197 6.23123 3.44001C6.23123 3.20805 6.04319 3.02001 5.81123 3.02001H1.23123C0.966134 3.02001 0.75123 2.80511 0.75123 2.54001C0.75123 2.27491 0.966134 2.06001 1.23123 2.06001H5.65123C6.41338 2.06001 7.03123 2.67786 7.03123 3.44001C7.03123 4.20216 6.41338 4.82001 5.65123 4.82001Z" fill="white"/>
</svg>
