<svg width="14" height="17" viewBox="0 0 14 17" fill="none" xmlns="http://www.w3.org/2000/svg">
<path d="M13.1326 7.23141C13.1326 7.31145 13.1326 7.41816 13.1326 7.4982C13.1326 7.76499 13.1059 8.00509 13.0525 8.27188L13.0259 8.6187L12.9992 8.80545L12.9725 9.09891C12.9458 9.25898 12.9458 9.44574 12.9191 9.60581C12.9191 9.71252 12.8925 9.81924 12.8925 9.92595C12.8658 10.3528 12.8391 10.7797 12.7858 11.2065V11.2332C12.7591 11.3132 12.7591 11.3933 12.7324 11.4733C12.7057 11.5533 12.7057 11.6601 12.679 11.7401C12.6524 11.8735 12.599 12.0069 12.5723 12.1136C12.5457 12.1669 12.5456 12.1936 12.519 12.247C12.4923 12.3537 12.4389 12.4337 12.4123 12.5404C12.3055 12.7806 12.1721 13.0207 12.0121 13.2874C11.3718 14.3012 10.3847 15.2083 9.42426 15.8219C9.42426 15.8219 9.42426 15.8219 9.39758 15.8219C9.29087 15.9019 9.15747 15.982 9.05076 16.0353C7.85022 16.7023 6.43626 16.729 5.20905 16.1687C4.94226 16.062 4.70216 15.9286 4.46205 15.7686C3.50162 15.1549 2.70126 14.2746 2.08766 13.2874C2.0343 13.2074 2.00762 13.1541 1.95426 13.074C1.92759 13.0473 1.90091 12.994 1.90091 12.9673C1.87423 12.9139 1.82087 12.8339 1.79419 12.7806C1.68748 12.6205 1.60744 12.4337 1.52741 12.2737C1.50073 12.2203 1.47405 12.1669 1.47405 12.1403C1.18059 11.4466 1.07387 10.6729 1.02051 9.92595C1.02051 9.81924 0.993836 9.68584 0.993836 9.57913C0.993836 9.44574 0.967157 9.31234 0.967157 9.17895L0.9138 8.80545C0.9138 8.77877 0.887122 8.72541 0.887122 8.69874C0.887122 8.64538 0.860444 8.6187 0.860444 8.56534C0.833765 8.40527 0.807086 8.2452 0.780407 8.08513C0.753729 7.81834 0.727051 7.52488 0.727051 7.23141C0.727051 7.20474 0.727051 7.17806 0.727051 7.15138C0.727051 6.96463 0.72705 6.77788 0.753729 6.61781C0.780407 6.45774 0.780408 6.32434 0.807086 6.16427C0.940479 5.2572 1.26062 4.43017 1.71416 3.70985C1.82087 3.5231 1.95426 3.36302 2.08766 3.17627C3.39491 1.49552 5.6359 0.508419 7.90358 0.85524C9.7444 1.1487 11.2117 2.2692 12.1188 3.73652C12.1455 3.7632 12.1722 3.81656 12.1988 3.84324C12.599 4.53688 12.8925 5.31056 13.0259 6.13759C13.0259 6.13759 13.0259 6.13759 13.0259 6.16427C13.0525 6.29767 13.0792 6.45774 13.0792 6.61781C13.1059 6.80456 13.1059 6.96463 13.1059 7.15138C13.1326 7.17806 13.1326 7.20474 13.1326 7.23141Z" fill="#F5F5FF" stroke="#2E2E2E" stroke-width="0.271374" stroke-miterlimit="10" stroke-linecap="round" stroke-linejoin="round"/>
</svg>
