<svg width="72" height="73" viewBox="0 0 72 73" fill="none" xmlns="http://www.w3.org/2000/svg">
<path opacity="0.05" d="M63.8059 45.6067L59.1745 40.9753C59.0573 40.8581 59.0982 40.6619 59.2481 40.5964C60.8837 39.8904 62.4129 38.98 63.8059 37.9032C64.3047 37.5161 64.7845 37.11 65.2451 36.682C66.589 35.4335 67.7694 34.0133 68.7507 32.4541C68.7534 32.4486 68.7561 32.4459 68.7589 32.4405C69.3531 31.4946 69.8765 30.4969 70.3181 29.4583C71.3839 26.9504 71.9782 24.1945 71.9891 21.2996C71.9891 21.2996 71.9891 21.2969 71.9891 21.2941C71.9891 21.2669 71.9891 21.2396 71.9891 21.2123C71.9891 18.3201 71.4085 15.5669 70.3563 13.0564C70.0046 12.2141 69.5984 11.399 69.1432 10.6167C69.1432 10.6112 69.1378 10.6085 69.1378 10.6058C67.0906 7.0893 64.0566 4.22162 60.4175 2.37617C60.4039 2.36799 60.3875 2.35981 60.3739 2.35436C57.558 0.934152 52.7985 0.127276 49.4347 0.105469C49.3884 0.105469 50.9286 0.105469 50.8822 0.105469C50.8359 0.105469 50.7923 0.105469 50.7459 0.105469H6.28872C2.81589 0.105469 0 2.92136 0 6.39419V51.2357C0 52.6887 0.1472 54.1089 0.427971 55.48C0.427971 55.4827 0.427971 55.4855 0.427971 55.4909C0.95135 58.0478 1.93814 60.4385 3.29565 62.5674C3.29565 62.5729 3.3011 62.5756 3.30383 62.5811C5.57725 66.1439 8.89198 68.9788 12.8173 70.6553C12.831 70.6607 12.8446 70.6662 12.8582 70.6716C12.8882 70.6853 12.9209 70.6989 12.9509 70.7125C14.9708 71.5603 17.1488 72.1 19.4304 72.2799C19.9838 72.3235 20.5399 72.3454 21.1042 72.3454C24.0154 72.3454 26.7877 71.7566 29.3092 70.6907C31.0892 69.9384 32.7466 68.9488 34.2404 67.7603C34.2431 67.7603 34.2459 67.7576 34.2486 67.7549C34.2758 67.7331 34.3058 67.7113 34.3331 67.6867C34.3413 67.6813 34.3494 67.6731 34.3576 67.6677C36.2903 66.1057 37.9422 64.2112 39.2234 62.0686C41.0389 59.0346 42.1156 55.51 42.2029 51.74V51.7319C42.2056 51.5683 42.2083 51.4048 42.2083 51.2412C42.2083 51.0776 42.2083 50.9141 42.2029 50.7505V43.2133C42.2029 42.8889 42.5954 42.7254 42.8244 42.9544L61.9386 62.0686L66.4118 66.5418C68.4754 68.6054 72 67.1443 72 64.2275V56.1506C72 54.6568 71.4057 53.2229 70.3481 52.1653L63.7949 45.6122L63.8059 45.6067ZM50.874 29.4583H30.7403C29.9525 29.4583 29.3119 30.0962 29.3119 30.8867V51.4129V51.4157C29.053 57.1728 23.2604 60.9019 17.9421 58.6748C15.0689 57.4727 13.1254 54.7004 12.9509 51.5629V14.3157C12.9509 13.6288 13.5097 13.07 14.1966 13.07L31.4082 13.0591C31.4082 13.0591 31.4082 13.0645 31.4054 13.0673C35.0173 13.0673 38.7464 13.0673 42.2083 13.0673C45.4413 13.0673 48.4425 13.0673 50.8958 13.0727C55.3364 13.0782 59 16.7745 59.0164 21.2014C59.0327 25.7401 55.4318 29.3956 50.874 29.461V29.4583Z" fill="#80BBFF"/>
</svg>
