<svg width="56" height="56" viewBox="0 0 56 56" fill="none" xmlns="http://www.w3.org/2000/svg">
<path d="M53.5329 32.2197H49.3131V23.7802H53.5329C54.0924 23.7802 54.6291 23.5579 55.0248 23.1622C55.4205 22.7665 55.6427 22.2299 55.6427 21.6703C55.6427 21.1107 55.4205 20.5741 55.0248 20.1784C54.6291 19.7827 54.0924 19.5604 53.5329 19.5604H49.3131V2.6813C49.3131 2.12172 49.0908 1.58506 48.6951 1.18938C48.2994 0.793702 47.7628 0.571411 47.2032 0.571411C46.6436 0.571411 46.107 0.793702 45.7113 1.18938C45.3156 1.58506 45.0933 2.12172 45.0933 2.6813V19.5604H24.5219L10.9131 1.41537C10.6474 1.0611 10.277 0.79942 9.8543 0.667382C9.43161 0.535345 8.9781 0.539649 8.55799 0.679684C8.13789 0.819719 7.77249 1.08838 7.51357 1.44763C7.25464 1.80687 7.11531 2.23847 7.11531 2.6813V19.5604H2.89553C2.33596 19.5604 1.7993 19.7827 1.40362 20.1784C1.00794 20.5741 0.785645 21.1107 0.785645 21.6703C0.785645 22.2299 1.00794 22.7665 1.40362 23.1622C1.7993 23.5579 2.33596 23.7802 2.89553 23.7802H7.11531V32.2197H2.89553C2.33596 32.2197 1.7993 32.442 1.40362 32.8377C1.00794 33.2334 0.785645 33.7701 0.785645 34.3296C0.785645 34.8892 1.00794 35.4259 1.40362 35.8216C1.7993 36.2172 2.33596 36.4395 2.89553 36.4395H7.11531V53.3186C7.11531 53.8782 7.3376 54.4149 7.73328 54.8106C8.12896 55.2062 8.66562 55.4285 9.2252 55.4285C9.78478 55.4285 10.3214 55.2062 10.7171 54.8106C11.1128 54.4149 11.3351 53.8782 11.3351 53.3186V36.4395H31.9065L45.5153 54.5846C45.7118 54.8466 45.9667 55.0593 46.2596 55.2058C46.5526 55.3523 46.8756 55.4285 47.2032 55.4285C47.4297 55.4298 47.6549 55.3942 47.8699 55.323C48.2906 55.1829 48.6564 54.9139 48.9154 54.5541C49.1745 54.1943 49.3136 53.762 49.3131 53.3186V36.4395H53.5329C54.0924 36.4395 54.6291 36.2172 55.0248 35.8216C55.4205 35.4259 55.6427 34.8892 55.6427 34.3296C55.6427 33.7701 55.4205 33.2334 55.0248 32.8377C54.6291 32.442 54.0924 32.2197 53.5329 32.2197ZM11.3351 9.01097L19.2472 19.5604H11.3351V9.01097ZM11.3351 32.2197V23.7802H22.412L28.7417 32.2197H11.3351ZM45.0933 46.989L37.1812 36.4395H45.0933V46.989ZM45.0933 32.2197H34.0164L27.6867 23.7802H45.0933V32.2197Z" fill="white"/>
</svg>
