<svg width="23" height="22" viewBox="0 0 23 22" fill="none" xmlns="http://www.w3.org/2000/svg">
<path d="M20.9209 12.6332C21.5346 12.1263 21.4812 11.2459 21.1611 10.4989C20.8409 9.75187 20.0139 9.27166 19.2135 9.37837C19.8538 8.92483 19.7738 8.01776 19.4003 7.32412C19.0268 6.63048 18.1197 6.28366 17.3994 6.55044C18.093 6.01687 18.093 5.1098 17.6662 4.3628C17.4794 4.04266 17.1859 3.80255 16.8658 3.64248C16.6791 2.92216 16.2522 2.2552 15.6653 1.80166C15.1851 1.45484 14.5981 1.26809 13.9845 1.21473C13.2909 0.734518 12.4105 0.467732 11.6635 0.814554C9.55588 0.0675542 7.02142 0.681161 5.52742 2.33523C5.28731 2.60202 5.04721 2.92216 4.96717 3.29566C4.91381 3.66916 5.07389 4.09602 5.42071 4.22941C4.48696 3.77587 3.65992 4.12269 2.9396 4.89637C2.21928 5.64337 2.05921 6.89726 2.5661 7.80433C1.76574 7.83101 1.09878 8.76476 0.912031 9.56512C0.725282 10.3388 1.09878 11.2459 1.8191 11.6194C0.831996 11.7261 0.458496 13.0867 0.75196 14.0471C0.93871 14.6607 1.55232 15.0876 2.1926 15.1943C1.63235 15.4611 1.15214 15.9947 0.93871 16.5015C0.591889 17.3286 0.858674 18.369 1.60567 18.8759C2.32599 19.4095 3.41982 19.3295 4.08678 18.7425C3.87335 19.3561 4.32689 20.2099 4.91381 20.53C5.50074 20.8235 6.22106 20.7701 6.83467 20.5033C7.44828 20.2365 7.98185 19.8097 8.48874 19.4095C8.27531 19.5429 8.59545 19.863 8.67549 20.0765C8.7822 20.3166 8.96895 20.4766 9.18238 20.5834C10.3829 21.277 12.0903 20.8768 12.8373 19.703C12.8107 20.53 13.4243 21.3037 14.2513 21.3304C15.0783 21.357 15.852 20.61 15.852 19.783C16.3856 20.5834 17.3727 20.7968 18.1197 20.2099C18.8667 19.6229 18.9734 18.369 18.3331 17.6487C19.0268 18.2623 20.254 18.6625 20.8409 17.9155C21.4278 17.1685 21.2411 15.968 20.4674 15.4344C21.3211 15.6212 22.3349 15.2743 22.4416 14.3939C22.5483 13.5669 21.8013 12.6598 20.9209 12.6332Z" fill="#2E2E2E"/>
</svg>
