<svg width="32" height="32" viewBox="0 0 32 32" fill="none" xmlns="http://www.w3.org/2000/svg">
<path d="M32 15.9605C32 20.1218 30.3894 23.9144 27.7756 26.7588C27.6436 26.9169 27.5116 27.0486 27.3531 27.2066C26.7987 27.7597 26.2178 28.2601 25.6106 28.7342C24.7393 29.3926 23.7888 29.9457 22.8119 30.4198C22.6535 30.4988 22.4686 30.5778 22.3102 30.6568C21.7294 30.8938 21.1485 31.1309 20.5149 31.2889C20.198 31.3942 19.8812 31.4733 19.5644 31.5523C18.429 31.8156 17.2673 31.9473 16.0528 31.9473H16C14.8911 31.9473 13.835 31.842 12.7789 31.6313C12.33 31.5523 11.9076 31.4206 11.4851 31.3152C10.8779 31.1309 10.2706 30.9202 9.68977 30.6831C9.55776 30.6305 9.39934 30.5514 9.26733 30.4988C8.26403 30.0247 7.31353 29.4716 6.41584 28.8132C5.78218 28.3391 5.17492 27.8123 4.62046 27.2593C4.48845 27.1276 4.33003 26.9695 4.19802 26.8115C1.61056 23.9407 0 20.1481 0 15.9605C0 7.13745 7.15512 0 16 0C24.8449 0 32 7.13745 32 15.9605Z" fill="#9DD961"/>
</svg>
