<svg width="12" height="12" viewBox="0 0 12 12" fill="none" xmlns="http://www.w3.org/2000/svg">
<path d="M7.73523 3.99979H4.2679C4.12059 3.99979 4.00116 4.11917 4.00116 4.26648V7.73387C4.00116 7.88117 4.12059 8.00061 4.2679 8.00061H7.73523C7.88254 8.00061 8.00197 7.88117 8.00197 7.73387V4.26648C8.00197 4.11917 7.88254 3.99979 7.73523 3.99979Z" fill="black"/>
<path d="M3.73286 -0.0012207H0.26552C0.118218 -0.0012207 -0.0012207 0.118163 -0.0012207 0.265518V3.73285C-0.0012207 3.88016 0.118218 3.99959 0.26552 3.99959H3.73286C3.88021 3.99959 3.99959 3.88016 3.99959 3.73285V0.265518C3.99959 0.118163 3.88021 -0.0012207 3.73286 -0.0012207Z" fill="black"/>
<path d="M11.7345 -0.0012207H8.26709C8.11979 -0.0012207 8.00035 0.118163 8.00035 0.265518V3.73285C8.00035 3.88016 8.11979 3.99959 8.26709 3.99959H11.7345C11.8818 3.99959 12.0012 3.88016 12.0012 3.73285V0.265518C12.0012 0.118163 11.8818 -0.0012207 11.7345 -0.0012207Z" fill="black"/>
<path d="M3.73286 8.00041H0.26552C0.118218 8.00041 -0.0012207 8.11979 -0.0012207 8.2671V11.7345C-0.0012207 11.8818 0.118218 12.0012 0.26552 12.0012H3.73286C3.88021 12.0012 3.99959 11.8818 3.99959 11.7345V8.2671C3.99959 8.11979 3.88021 8.00041 3.73286 8.00041Z" fill="black"/>
<path d="M11.7345 8.00041H8.26709C8.11979 8.00041 8.00035 8.11979 8.00035 8.2671V11.7345C8.00035 11.8818 8.11979 12.0012 8.26709 12.0012H11.7345C11.8818 12.0012 12.0012 11.8818 12.0012 11.7345V8.2671C12.0012 8.11979 11.8818 8.00041 11.7345 8.00041Z" fill="black"/>
</svg>
