<svg width="10" height="12" viewBox="0 0 10 12" fill="none" xmlns="http://www.w3.org/2000/svg">
<path d="M3.76993 11.3325H1.64074C1.08535 11.3325 0.662504 10.8344 0.752686 10.2863L2.33554 0.66748H6.22459C8.27457 0.66748 9.91075 2.37681 9.82115 4.42483C9.73692 6.35002 8.15162 7.86748 6.22459 7.86748H5.08054L4.6592 10.5711C4.5909 11.0093 4.21348 11.3325 3.76993 11.3325Z" fill="white"/>
<path d="M3.69778 10.2075H1.8731L3.19054 1.65748H6.15745C7.69798 1.65748 8.8927 3.00296 8.71048 4.53267C8.55644 5.82586 7.45979 6.79963 6.15745 6.79963H4.87933C4.62201 6.79963 4.35005 6.85001 4.23762 7.08147C3.94562 7.68263 3.83222 9.08955 3.69778 10.2075Z" fill="#3B6FEF"/>
<path d="M5.95804 5.79748H0.715537C0.417303 5.79748 0.175537 5.55571 0.175537 5.25748C0.175537 4.95925 0.417303 4.71748 0.715537 4.71748H6.13804C6.39899 4.71748 6.61054 4.50593 6.61054 4.24498C6.61054 3.98403 6.39899 3.77248 6.13804 3.77248H0.985537C0.687303 3.77248 0.445537 3.53071 0.445537 3.23248C0.445537 2.93425 0.687303 2.69248 0.985537 2.69248H5.95804C6.81546 2.69248 7.51054 3.38756 7.51054 4.24498C7.51054 5.1024 6.81546 5.79748 5.95804 5.79748Z" fill="white"/>
</svg>
