<svg width="18" height="18" viewBox="0 0 18 18" fill="none" xmlns="http://www.w3.org/2000/svg">
<path d="M9 18C4.02944 18 -2.1727e-07 13.9706 0 9C2.1727e-07 4.02944 4.02944 -2.1727e-07 9 0C13.9706 2.1727e-07 18 4.02944 18 9C18 13.9706 13.9706 18 9 18Z" fill="#D90026"/>
<path d="M17.4334 5.85C16.1565 2.433 12.8624 1.6883e-07 9 0C5.13763 -1.6883e-07 1.84351 2.433 0.566648 5.85L17.4334 5.85Z" fill="black"/>
<path d="M0.566648 12.15C1.84351 15.567 5.13763 18 9 18C12.8624 18 16.1565 15.567 17.4334 12.15L0.566648 12.15Z" fill="#FFDB44"/>
</svg>
