<svg width="52" height="58" viewBox="0 0 52 58" fill="none" xmlns="http://www.w3.org/2000/svg">
<path d="M19.239 57.4401H7.88328C4.92116 57.4401 2.66601 54.7835 3.14698 51.8607L11.5888 0.560059H32.3305C43.2637 0.560059 51.99 9.6765 51.5121 20.5993C51.0629 30.8669 42.608 38.9601 32.3305 38.9601H26.2288L23.9817 53.3792C23.6174 55.7166 21.6045 57.4401 19.239 57.4401Z" fill="white"/>
<path d="M18.8542 51.4401H9.12252L16.1488 5.84006H31.9724C40.1885 5.84006 46.5604 13.016 45.5886 21.1744C44.767 28.0714 38.9182 33.2649 31.9724 33.2649H25.1557C23.7834 33.2649 22.3329 33.5335 21.7333 34.768C20.1759 37.9742 19.5711 45.4778 18.8542 51.4401Z" fill="#3B6FEF"/>
<path d="M30.9088 27.9201H2.94885C1.35827 27.9201 0.0688477 26.6306 0.0688477 25.0401C0.0688477 23.4495 1.35827 22.1601 2.94885 22.1601H31.8688C33.2606 22.1601 34.3888 21.0318 34.3888 19.6401C34.3888 18.2483 33.2606 17.1201 31.8688 17.1201H4.38885C2.79827 17.1201 1.50885 15.8306 1.50885 14.2401C1.50885 12.6495 2.79827 11.3601 4.38885 11.3601H30.9088C35.4818 11.3601 39.1888 15.0671 39.1888 19.6401C39.1888 24.213 35.4818 27.9201 30.9088 27.9201Z" fill="white"/>
</svg>
