<svg width="18" height="18" viewBox="0 0 18 18" fill="none" xmlns="http://www.w3.org/2000/svg">
<path d="M9 18C4.02944 18 -2.1727e-07 13.9706 0 9C2.1727e-07 4.02944 4.02944 -2.1727e-07 9 0C13.9706 2.1727e-07 18 4.02944 18 9C18 13.9706 13.9706 18 9 18Z" fill="#D90026"/>
<path d="M10.3328 5.62423L9.4482 5.52896L10.1015 5.00272L9.94178 4.2696L10.6114 4.69967L11.2647 4.17342L11.1694 5.05806L11.7274 5.41645L10.9943 5.57614L10.7874 6.3891L10.3328 5.62423Z" fill="#FFDB44"/>
<path d="M4.95 10.6031L2.75625 11.7L3.4875 9.50625L2.025 8.04375H4.21875L4.95 5.85L6.04688 8.04375H7.875L6.4125 9.50625L7.14375 11.7L4.95 10.6031Z" fill="#FFDB44"/>
<path d="M10.3328 12.3832L9.4482 12.4785L10.1015 13.0047L9.94178 13.7379L10.6114 13.3078L11.2647 13.834L11.1694 12.9494L11.7274 12.591L10.9943 12.4313L10.7874 11.6184L10.3328 12.3832Z" fill="#FFDB44"/>
<path d="M12.4682 8.00337L11.6478 7.65888L12.4244 7.34164L12.4812 6.59349L12.9997 7.19722L13.7763 6.87998L13.4318 7.70034L13.8639 8.20345L13.1157 8.14662L12.6848 8.86635L12.4682 8.00337Z" fill="#FFDB44"/>
<path d="M12.4682 10.5142L11.6478 10.8587L12.4244 11.176L12.4812 11.9241L12.9997 11.3204L13.7763 11.6376L13.4318 10.8173L13.8639 10.3141L13.1157 10.371L12.6848 9.65124L12.4682 10.5142Z" fill="#FFDB44"/>
</svg>
