<svg width="12" height="12" viewBox="0 0 12 12" fill="none" xmlns="http://www.w3.org/2000/svg">
<path d="M11.5385 6.92307H10.6154V5.07692H11.5385C11.6609 5.07692 11.7783 5.02829 11.8648 4.94174C11.9514 4.85518 12 4.73779 12 4.61538C12 4.49297 11.9514 4.37558 11.8648 4.28903C11.7783 4.20247 11.6609 4.15384 11.5385 4.15384H10.6154V0.461538C10.6154 0.339131 10.5668 0.221737 10.4802 0.135181C10.3936 0.0486262 10.2762 0 10.1538 0C10.0314 0 9.91404 0.0486262 9.82748 0.135181C9.74093 0.221737 9.6923 0.339131 9.6923 0.461538V4.15384H5.1923L2.21538 0.184615C2.15726 0.10712 2.07623 0.0498769 1.98377 0.0209937C1.89131 -0.0078894 1.7921 -0.00694797 1.7002 0.0236846C1.6083 0.0543172 1.52837 0.113088 1.47173 0.191672C1.41509 0.270256 1.38461 0.364669 1.38461 0.461538V4.15384H0.461538C0.339131 4.15384 0.221737 4.20247 0.135181 4.28903C0.0486262 4.37558 0 4.49297 0 4.61538C0 4.73779 0.0486262 4.85518 0.135181 4.94174C0.221737 5.02829 0.339131 5.07692 0.461538 5.07692H1.38461V6.92307H0.461538C0.339131 6.92307 0.221737 6.9717 0.135181 7.05825C0.0486262 7.14481 0 7.2622 0 7.38461C0 7.50702 0.0486262 7.62441 0.135181 7.71097C0.221737 7.79752 0.339131 7.84615 0.461538 7.84615H1.38461V11.5385C1.38461 11.6609 1.43324 11.7783 1.5198 11.8648C1.60635 11.9514 1.72375 12 1.84615 12C1.96856 12 2.08595 11.9514 2.17251 11.8648C2.25906 11.7783 2.30769 11.6609 2.30769 11.5385V7.84615H6.80769L9.78461 11.8154C9.8276 11.8727 9.88335 11.9192 9.94743 11.9513C10.0115 11.9833 10.0822 12 10.1538 12C10.2034 12.0003 10.2526 11.9925 10.2997 11.9769C10.3917 11.9463 10.4717 11.8874 10.5284 11.8087C10.5851 11.73 10.6155 11.6354 10.6154 11.5385V7.84615H11.5385C11.6609 7.84615 11.7783 7.79752 11.8648 7.71097C11.9514 7.62441 12 7.50702 12 7.38461C12 7.2622 11.9514 7.14481 11.8648 7.05825C11.7783 6.9717 11.6609 6.92307 11.5385 6.92307ZM2.30769 1.84615L4.03846 4.15384H2.30769V1.84615ZM2.30769 6.92307V5.07692H4.73077L6.11538 6.92307H2.30769ZM9.6923 10.1538L7.96153 7.84615H9.6923V10.1538ZM9.6923 6.92307H7.26923L5.88461 5.07692H9.6923V6.92307Z" fill="#1A1B25"/>
</svg>
