<svg width="8" height="10" viewBox="0 0 8 10" fill="none" xmlns="http://www.w3.org/2000/svg">
<path d="M3.0432 9.14754H1.38716C0.955187 9.14754 0.626311 8.76012 0.696452 8.33388L1.92756 0.852539H4.95238C6.54681 0.852539 7.81939 2.18202 7.7497 3.77492C7.68419 5.27229 6.45118 6.45254 4.95238 6.45254H4.06256L3.73485 8.55533C3.68173 8.8962 3.38818 9.14754 3.0432 9.14754Z" fill="white"/>
<path d="M2.98708 8.27254H1.56789L2.59256 1.62254H4.90016C6.09835 1.62254 7.02757 2.66902 6.88585 3.8588C6.76604 4.86461 5.91309 5.62199 4.90016 5.62199H3.90606C3.70593 5.62199 3.4944 5.66117 3.40696 5.8412C3.17984 6.30877 3.09164 7.40304 2.98708 8.27254Z" fill="#3B6FEF"/>
<path d="M4.74506 4.84254H0.667559C0.435599 4.84254 0.247559 4.6545 0.247559 4.42254C0.247559 4.19058 0.435599 4.00254 0.667559 4.00254H4.88506C5.08802 4.00254 5.25256 3.838 5.25256 3.63504C5.25256 3.43207 5.08802 3.26754 4.88506 3.26754H0.877559C0.645599 3.26754 0.457559 3.0795 0.457559 2.84754C0.457559 2.61558 0.645599 2.42754 0.877559 2.42754H4.74506C5.41194 2.42754 5.95256 2.96816 5.95256 3.63504C5.95256 4.30192 5.41194 4.84254 4.74506 4.84254Z" fill="white"/>
</svg>
