<svg width="12" height="12" viewBox="0 0 12 12" fill="none" xmlns="http://www.w3.org/2000/svg">
<path d="M0.698177 7.5969C0.605131 6.11055 1.23733 4.45746 2.53785 3.17187C5.36662 0.375979 11.2574 0.767412 11.2906 0.769932C11.2748 0.793032 6.96837 6.96523 1.86486 7.54272C1.47101 7.58724 1.08141 7.60488 0.698177 7.5969Z" fill="#03CA9B"/>
<path d="M1.29591 9.49782C1.44164 9.72756 1.61371 9.94217 1.81297 10.1391C3.55918 11.8653 6.71467 11.5444 8.8611 9.42306C11.6979 6.61877 11.2905 0.770386 11.2905 0.770386C11.2752 0.804825 8.18811 7.64482 3.28174 9.13705C2.61597 9.33948 1.9485 9.45708 1.29548 9.49782H1.29591Z" fill="#03CA9B"/>
</svg>
