<svg width="18" height="18" viewBox="0 0 18 18" fill="none" xmlns="http://www.w3.org/2000/svg">
<path d="M11.7635 0C8.59764 0 5.90823 2.43529 5.56941 5.56941C2.43529 5.90823 0 8.59764 0 11.7635C0 15.2047 2.7953 18 6.23647 18C9.40236 18 12.1024 15.5647 12.4306 12.4306C15.5647 12.0918 18.0001 9.40235 18.0001 6.23647C18.0001 2.79529 15.2047 0 11.7635 0ZM16.5388 6.93529C16.2318 9.02118 14.5588 10.6941 12.4729 11.0012V6.93529H16.5388ZM1.46118 11.0647C1.76824 8.96824 3.44118 7.29529 5.52707 6.98824V11.0541H1.46118V11.0647ZM11.0118 12.4729C10.6624 14.8341 8.64 16.5918 6.23647 16.5918C3.83294 16.5918 1.81059 14.8341 1.46118 12.4729H11.0118ZM11.0647 6.93529V11.0541H6.93529V6.93529H11.0647ZM16.5388 5.52705H6.98824C7.33765 3.16588 9.36 1.40823 11.7635 1.40823C14.1671 1.40823 16.1894 3.16588 16.5388 5.52705Z" fill="#00DCFA"/>
</svg>
